{"glyphs":{"0":{"ha":833,"x_min":69,"x_max":764,"o":"m 417 -17 q 235 36 314 -17 q 113 192 157 89 q 69 444 69 294 q 165 784 69 671 q 417 897 261 897 q 668 784 572 897 q 764 444 764 671 q 720 192 764 294 q 599 36 676 89 q 417 -17 521 -17 m 417 167 q 485 190 454 167 q 534 274 515 214 q 553 444 553 335 q 534 613 553 554 q 485 692 515 671 q 417 714 454 714 q 349 692 381 714 q 299 613 318 671 q 281 444 281 554 q 299 274 281 335 q 349 190 318 214 q 417 167 381 167 m 417 333 q 338 364 369 333 q 306 444 306 394 q 338 525 306 494 q 417 556 369 556 q 497 525 465 556 q 528 444 528 494 q 497 364 528 394 q 417 333 465 333 z "},"1":{"ha":833,"x_min":100,"x_max":758,"o":"m 100 0 l 100 192 l 331 192 l 331 647 l 136 647 l 136 794 q 243 815 199 804 q 323 842 288 826 q 394 881 358 858 l 569 881 l 569 192 l 758 192 l 758 0 l 100 0 z "},"2":{"ha":833,"x_min":61,"x_max":750,"o":"m 72 0 l 72 136 q 282 314 190 232 q 426 465 374 396 q 479 594 479 535 q 444 683 479 654 q 351 711 410 711 q 263 685 303 711 q 188 628 224 660 l 61 756 q 207 863 133 829 q 385 897 281 897 q 551 862 479 897 q 665 761 624 826 q 706 608 706 696 q 663 464 706 538 q 553 320 619 390 q 414 189 486 250 q 495 197 450 193 q 572 200 540 200 l 750 200 l 750 0 l 72 0 z "},"3":{"ha":833,"x_min":50,"x_max":744,"o":"m 383 -17 q 187 17 271 -17 q 50 108 103 50 l 158 258 q 256 198 203 221 q 358 175 308 175 q 465 196 424 175 q 506 258 506 217 q 485 315 506 292 q 413 351 465 339 q 261 364 360 364 l 261 531 q 429 558 381 531 q 478 631 478 585 q 449 691 478 671 q 367 711 419 711 q 278 693 319 711 q 192 639 238 675 l 72 783 q 217 867 140 838 q 378 897 293 897 q 624 833 531 897 q 717 649 717 768 q 675 538 717 585 q 556 458 633 490 l 556 453 q 691 378 638 431 q 744 242 744 325 q 694 101 744 158 q 561 13 643 43 q 383 -17 479 -17 z "},"4":{"ha":833,"x_min":46,"x_max":782,"o":"m 271 378 l 458 378 l 458 478 q 462 582 458 522 q 467 686 465 642 l 461 686 q 413 608 439 647 q 363 528 386 568 l 271 378 m 458 0 l 458 197 l 46 197 l 46 364 l 386 881 l 681 881 l 681 378 l 782 378 l 782 197 l 681 197 l 681 0 l 458 0 z "},"5":{"ha":833,"x_min":58,"x_max":744,"o":"m 392 -17 q 197 19 278 -17 q 58 108 115 54 l 164 258 q 256 199 207 224 q 356 175 304 175 q 465 203 425 175 q 506 289 506 231 q 465 374 506 346 q 367 403 425 403 q 301 394 328 403 q 231 361 275 386 l 128 428 l 150 881 l 706 881 l 706 681 l 356 681 l 344 553 q 394 564 372 561 q 442 567 415 567 q 591 538 522 567 q 702 448 660 508 q 744 294 744 388 q 695 126 744 196 q 565 20 646 57 q 392 -17 485 -17 z "},"6":{"ha":833,"x_min":75,"x_max":764,"o":"m 439 389 q 369 372 404 389 q 300 314 335 354 q 335 219 313 251 q 383 174 357 186 q 433 161 410 161 q 512 188 476 161 q 547 283 547 214 q 516 365 547 342 q 439 389 485 389 m 439 -17 q 308 8 372 -17 q 190 85 243 32 q 106 222 138 138 q 75 425 75 306 q 107 633 75 544 q 193 781 139 722 q 316 868 247 839 q 458 897 385 897 q 632 864 557 897 q 753 786 707 831 l 628 644 q 563 687 603 668 q 481 706 522 706 q 392 683 433 706 q 325 608 351 660 q 293 465 299 556 q 393 533 338 510 q 492 556 449 556 q 628 527 567 556 q 727 438 690 499 q 764 283 764 378 q 719 122 764 189 q 600 19 674 54 q 439 -17 526 -17 z "},"7":{"ha":833,"x_min":82,"x_max":753,"o":"m 250 0 q 284 250 260 139 q 359 465 308 361 q 499 681 410 568 l 82 681 l 82 881 l 753 881 l 753 733 q 622 566 671 644 q 546 406 572 488 q 508 227 519 325 q 489 0 496 129 l 250 0 z "},"8":{"ha":833,"x_min":81,"x_max":756,"o":"m 414 -17 q 170 50 260 -17 q 81 225 81 117 q 126 351 81 303 q 238 433 171 400 l 238 439 q 147 529 182 479 q 111 647 111 579 q 151 781 111 725 q 260 867 190 838 q 422 897 331 897 q 635 831 554 897 q 717 653 717 765 q 680 546 717 593 q 593 468 643 499 l 593 463 q 709 373 663 428 q 756 231 756 318 q 667 54 756 125 q 414 -17 579 -17 m 472 525 q 522 636 522 579 q 494 708 522 682 q 417 733 467 733 q 349 713 378 733 q 319 647 319 693 q 361 577 319 604 q 472 525 403 550 m 419 147 q 501 168 468 147 q 533 239 533 189 q 483 313 533 288 q 346 372 432 339 q 303 318 319 350 q 286 253 286 286 q 326 174 286 201 q 419 147 365 147 z "},"9":{"ha":833,"x_min":67,"x_max":756,"o":"m 283 597 q 315 515 283 539 q 392 492 346 492 q 461 509 426 492 q 531 567 496 526 q 497 663 519 629 q 447 708 474 696 q 397 719 421 719 q 319 693 354 719 q 283 597 283 667 m 372 -17 q 199 17 274 -17 q 78 94 124 51 l 203 236 q 268 194 228 214 q 350 175 308 175 q 438 198 397 175 q 506 274 479 221 q 538 415 533 326 q 438 349 493 372 q 339 325 382 325 q 202 353 264 325 q 103 442 140 382 q 67 597 67 503 q 112 759 67 692 q 231 862 157 826 q 392 897 306 897 q 523 873 458 897 q 640 796 588 849 q 724 659 693 743 q 756 456 756 575 q 724 247 756 336 q 638 100 692 158 q 515 13 583 42 q 372 -17 446 -17 z "}," ":{"ha":833,"x_min":0,"x_max":0,"o":""},"A":{"ha":833,"x_min":0,"x_max":833,"o":"m 346 439 l 332 376 l 493 376 l 479 439 q 447 581 465 504 q 414 725 429 657 l 408 725 q 378 581 394 657 q 346 439 361 504 m 0 0 l 272 903 l 561 903 l 833 0 l 581 0 l 536 192 l 289 192 l 244 0 l 0 0 z "},"B":{"ha":833,"x_min":89,"x_max":789,"o":"m 89 0 l 89 903 l 411 903 q 583 883 506 903 q 705 815 660 864 q 750 678 750 767 q 713 562 750 619 q 597 483 676 504 l 597 478 q 741 408 693 460 q 789 267 789 357 q 742 115 789 174 q 615 28 694 56 q 439 0 536 0 l 89 0 m 328 547 l 406 547 q 490 574 464 547 q 517 642 517 600 q 490 701 517 683 q 406 719 464 719 l 328 719 l 328 547 m 328 183 l 422 183 q 524 210 493 183 q 556 286 556 236 q 524 358 556 336 q 422 381 493 381 l 328 381 l 328 183 z "},"C":{"ha":833,"x_min":69,"x_max":800,"o":"m 497 -17 q 335 12 413 -17 q 199 98 258 40 q 104 242 139 156 q 69 444 69 329 q 129 702 69 596 q 289 864 189 808 q 511 919 389 919 q 670 884 599 919 q 789 803 742 849 l 658 656 q 592 699 628 683 q 511 714 557 714 q 371 645 428 714 q 314 453 314 576 q 372 258 314 326 q 522 189 431 189 q 603 210 567 189 q 669 261 640 231 l 800 117 q 667 17 744 50 q 497 -17 589 -17 z "},"D":{"ha":833,"x_min":89,"x_max":789,"o":"m 89 0 l 89 903 l 349 903 q 577 858 478 903 q 733 714 676 813 q 789 456 789 615 q 733 195 789 296 q 581 47 678 94 q 363 0 485 0 l 89 0 m 328 192 l 336 192 q 442 214 394 192 q 517 293 489 236 q 544 456 544 350 q 517 616 544 561 q 442 691 489 671 q 336 711 394 711 l 328 711 l 328 192 z "},"E":{"ha":833,"x_min":117,"x_max":744,"o":"m 117 0 l 117 903 l 731 903 l 731 703 l 356 703 l 356 561 l 675 561 l 675 361 l 356 361 l 356 200 l 744 200 l 744 0 l 117 0 z "},"F":{"ha":833,"x_min":131,"x_max":749,"o":"m 131 0 l 131 903 l 749 903 l 749 703 l 369 703 l 369 531 l 694 531 l 694 331 l 369 331 l 369 0 l 131 0 z "},"G":{"ha":833,"x_min":56,"x_max":767,"o":"m 479 -17 q 267 34 364 -17 q 113 188 171 85 q 56 444 56 290 q 113 703 56 597 q 267 865 171 810 q 481 919 364 919 q 639 884 572 919 q 750 803 706 849 l 619 656 q 560 699 592 683 q 481 714 529 714 q 354 645 407 714 q 301 453 301 576 q 349 258 301 326 q 493 189 396 189 q 527 193 510 189 q 554 206 544 197 l 554 331 l 442 331 l 442 525 l 767 525 l 767 94 q 643 18 721 53 q 479 -17 565 -17 z "},"H":{"ha":833,"x_min":81,"x_max":753,"o":"m 81 0 l 81 903 l 319 903 l 319 567 l 514 567 l 514 903 l 753 903 l 753 0 l 514 0 l 514 358 l 319 358 l 319 0 l 81 0 z "},"I":{"ha":833,"x_min":92,"x_max":742,"o":"m 92 0 l 92 200 l 297 200 l 297 703 l 92 703 l 92 903 l 742 903 l 742 703 l 536 703 l 536 200 l 742 200 l 742 0 l 92 0 z "},"J":{"ha":833,"x_min":71,"x_max":729,"o":"m 378 -17 q 219 15 303 -17 q 71 132 135 47 l 206 281 q 286 213 244 238 q 369 189 328 189 q 459 219 428 189 q 490 333 490 249 l 490 703 l 147 703 l 147 903 l 729 903 l 729 314 q 695 149 729 224 q 585 28 661 74 q 378 -17 508 -17 z "},"K":{"ha":833,"x_min":78,"x_max":833,"o":"m 78 0 l 78 903 l 319 903 l 319 567 l 325 567 l 547 903 l 811 903 l 544 538 l 833 0 l 569 0 l 404 347 l 319 231 l 319 0 l 78 0 z "},"L":{"ha":833,"x_min":133,"x_max":757,"o":"m 133 0 l 133 903 l 372 903 l 372 200 l 757 200 l 757 0 l 133 0 z "},"M":{"ha":833,"x_min":72,"x_max":761,"o":"m 72 0 l 72 903 l 315 903 l 389 608 l 414 492 l 419 492 l 444 608 l 518 903 l 761 903 l 761 0 l 564 0 l 564 213 q 567 314 564 253 q 575 442 571 375 q 585 571 579 510 q 594 671 590 632 l 590 671 l 514 403 l 467 239 l 361 239 l 311 403 l 242 671 l 236 671 q 246 571 240 632 q 256 442 251 510 q 263 314 260 375 q 267 213 267 253 l 267 0 l 72 0 z "},"N":{"ha":833,"x_min":83,"x_max":750,"o":"m 83 0 l 83 903 l 325 903 l 476 500 l 550 297 l 556 297 q 535 465 547 371 q 522 642 522 558 l 522 903 l 750 903 l 750 0 l 508 0 l 357 404 l 283 606 l 278 606 q 299 437 286 529 q 311 261 311 344 l 311 0 l 83 0 z "},"O":{"ha":833,"x_min":47,"x_max":786,"o":"m 417 -17 q 224 36 307 -17 q 94 194 140 89 q 47 456 47 299 q 94 712 47 608 q 224 867 140 815 q 417 919 307 919 q 610 867 526 919 q 740 712 693 815 q 786 456 786 608 q 740 194 786 299 q 610 36 693 89 q 417 -17 526 -17 m 417 189 q 508 255 475 189 q 542 456 542 321 q 508 649 542 585 q 417 714 475 714 q 325 649 358 714 q 292 456 292 585 q 325 255 292 321 q 417 189 358 189 z "},"P":{"ha":833,"x_min":89,"x_max":789,"o":"m 89 0 l 89 903 l 428 903 q 607 875 525 903 q 739 782 689 847 q 789 603 789 717 q 738 423 789 493 q 605 319 688 353 q 428 286 522 286 l 328 286 l 328 0 l 89 0 m 328 475 l 417 475 q 522 509 488 475 q 556 603 556 543 q 519 689 556 664 q 417 714 483 714 l 328 714 l 328 475 z "},"Q":{"ha":833,"x_min":47,"x_max":825,"o":"m 417 178 q 508 243 475 178 q 542 456 542 308 q 508 649 542 585 q 417 714 475 714 q 325 649 358 714 q 292 456 292 585 q 325 243 292 308 q 417 178 358 178 m 681 -256 q 447 -185 543 -256 q 307 -1 351 -114 q 118 148 189 33 q 47 456 47 263 q 94 712 47 608 q 224 867 140 815 q 417 919 307 919 q 610 867 526 919 q 740 712 693 815 q 786 456 786 608 q 724 163 786 275 q 556 8 663 50 q 624 -51 579 -36 q 708 -67 668 -67 q 749 -60 729 -67 q 783 -47 769 -54 l 825 -222 q 766 -246 803 -236 q 681 -256 729 -256 z "},"R":{"ha":833,"x_min":81,"x_max":828,"o":"m 81 0 l 81 903 l 417 903 q 596 877 514 903 q 728 788 678 851 q 778 611 778 724 q 738 450 778 514 q 632 350 697 386 l 828 0 l 561 0 l 406 303 l 319 303 l 319 0 l 81 0 m 319 492 l 400 492 q 544 611 544 492 q 508 692 544 669 q 400 714 471 714 l 319 714 l 319 492 z "},"S":{"ha":833,"x_min":61,"x_max":772,"o":"m 411 -17 q 230 15 322 -17 q 61 113 138 47 l 197 276 q 308 213 249 238 q 428 189 367 189 q 505 204 482 189 q 528 242 528 219 q 494 298 528 282 q 397 340 460 314 l 285 388 q 151 479 207 417 q 94 639 94 542 q 138 780 94 717 q 258 881 181 843 q 439 919 336 919 q 601 890 519 919 q 747 799 682 860 l 628 649 q 535 697 579 681 q 425 714 490 714 q 361 699 386 714 q 336 653 336 685 q 373 605 336 622 q 478 563 410 588 l 582 519 q 722 426 672 486 q 772 272 772 367 q 731 130 772 196 q 608 24 689 64 q 411 -17 528 -17 z "},"T":{"ha":833,"x_min":38,"x_max":796,"o":"m 297 0 l 297 703 l 38 703 l 38 903 l 796 903 l 796 703 l 536 703 l 536 0 l 297 0 z "},"U":{"ha":833,"x_min":81,"x_max":753,"o":"m 419 -17 q 162 83 243 -17 q 81 350 81 182 l 81 903 l 319 903 l 319 322 q 341 226 319 264 q 419 189 363 189 q 499 226 476 189 q 522 322 522 264 l 522 903 l 753 903 l 753 350 q 675 83 753 182 q 419 -17 597 -17 z "},"V":{"ha":833,"x_min":6,"x_max":828,"o":"m 272 0 l 6 903 l 258 903 l 353 508 q 387 366 372 436 q 419 222 401 296 l 425 222 q 459 366 444 296 q 492 508 474 436 l 583 903 l 828 903 l 561 0 l 272 0 z "},"W":{"ha":833,"x_min":3,"x_max":832,"o":"m 115 0 l 3 903 l 247 903 l 258 456 l 258 222 l 264 222 q 285 340 272 281 q 308 456 299 399 l 358 675 l 497 675 l 543 456 q 565 342 553 400 q 588 222 578 283 l 593 222 l 593 456 l 604 903 l 832 903 l 728 0 l 481 0 l 440 247 q 427 338 433 292 q 419 424 421 383 l 415 424 q 407 338 413 383 q 394 247 401 292 l 357 0 l 115 0 z "},"X":{"ha":833,"x_min":6,"x_max":828,"o":"m 6 0 l 267 464 l 21 903 l 288 903 l 360 756 q 392 688 375 725 q 428 606 408 650 l 433 606 q 464 688 449 650 q 493 756 479 725 l 557 903 l 813 903 l 567 453 l 828 0 l 561 0 l 478 161 q 443 233 460 197 q 408 311 426 269 l 403 311 q 372 233 388 269 q 339 161 356 197 l 261 0 l 6 0 z "},"Y":{"ha":833,"x_min":11,"x_max":822,"o":"m 297 0 l 297 299 l 11 903 l 267 903 l 342 706 q 378 604 360 654 q 415 500 397 554 l 421 500 q 460 604 440 554 q 497 706 479 654 l 572 903 l 822 903 l 536 299 l 536 0 l 297 0 z "},"Z":{"ha":833,"x_min":74,"x_max":764,"o":"m 74 0 l 74 144 l 464 703 l 111 703 l 111 903 l 760 903 l 760 758 l 369 200 l 764 200 l 764 0 l 74 0 z "},"a":{"ha":833,"x_min":75,"x_max":753,"o":"m 300 -17 q 178 13 228 -17 q 101 92 128 43 q 75 197 75 140 q 176 376 75 314 q 514 450 276 438 q 474 505 508 488 q 381 522 439 522 q 290 508 338 522 q 181 464 243 493 l 97 619 q 258 688 176 664 q 428 711 340 711 q 665 634 576 711 q 753 386 753 557 l 753 0 l 558 0 l 542 72 l 536 72 q 425 9 485 35 q 300 -17 365 -17 m 378 167 q 453 183 419 167 q 514 219 486 199 l 514 308 q 383 293 429 306 q 320 260 338 281 q 303 217 303 240 q 378 167 303 167 z "},"b":{"ha":833,"x_min":89,"x_max":775,"o":"m 479 -17 q 300 75 382 -17 l 294 75 l 275 0 l 89 0 l 89 967 l 328 967 l 328 742 l 319 642 l 325 642 q 406 693 361 675 q 499 711 451 711 q 645 667 583 711 q 741 545 707 624 q 775 360 775 467 q 733 156 775 240 q 623 27 690 71 q 479 -17 556 -17 m 422 178 q 499 217 467 178 q 531 356 531 256 q 505 479 531 442 q 428 517 479 517 q 376 506 400 517 q 328 467 353 494 l 328 211 q 374 185 350 193 q 422 178 399 178 z "},"c":{"ha":833,"x_min":86,"x_max":764,"o":"m 475 -17 q 277 26 365 -17 q 138 151 189 69 q 86 347 86 232 q 143 544 86 463 q 293 668 200 625 q 493 711 386 711 q 644 686 575 711 q 756 619 713 661 l 647 472 q 574 509 608 499 q 507 519 540 519 q 380 473 429 519 q 331 347 331 426 q 378 222 331 268 q 499 175 426 175 q 592 193 550 175 q 669 233 635 211 l 764 83 q 622 7 700 31 q 475 -17 544 -17 z "},"d":{"ha":833,"x_min":58,"x_max":744,"o":"m 349 -17 q 138 81 217 -17 q 58 347 58 179 q 101 542 58 461 q 210 667 143 624 q 349 711 276 711 q 442 693 404 711 q 511 642 481 675 l 517 642 l 506 742 l 506 967 l 744 967 l 744 0 l 550 0 l 533 64 l 528 64 q 444 6 492 29 q 349 -17 396 -17 m 411 178 q 463 188 440 178 q 506 228 486 199 l 506 483 q 462 510 485 503 q 414 517 439 517 q 337 479 371 517 q 303 350 303 442 q 331 217 303 257 q 411 178 360 178 z "},"e":{"ha":833,"x_min":69,"x_max":764,"o":"m 442 531 q 310 431 339 531 l 553 431 q 442 531 538 531 m 458 -17 q 260 26 349 -17 q 121 151 172 69 q 69 347 69 232 q 122 542 69 461 q 257 667 174 624 q 433 711 340 711 q 617 666 543 711 q 727 544 690 621 q 764 375 764 468 q 760 316 764 344 q 754 275 757 288 l 308 275 q 369 190 324 217 q 492 164 415 164 q 573 174 533 164 q 658 206 613 185 l 736 64 q 599 4 674 25 q 458 -17 524 -17 z "},"f":{"ha":833,"x_min":103,"x_max":817,"o":"m 281 0 l 281 508 l 103 508 l 103 686 l 281 694 l 281 697 q 314 840 281 775 q 418 944 347 906 q 603 983 489 983 q 720 972 665 983 q 817 947 775 960 l 772 772 q 707 790 743 783 q 633 797 671 797 q 549 775 578 797 q 519 697 519 753 l 519 694 l 739 694 l 739 508 l 519 508 l 519 0 l 281 0 z "},"g":{"ha":833,"x_min":61,"x_max":799,"o":"m 374 -286 q 217 -269 288 -286 q 103 -214 146 -251 q 61 -114 61 -176 q 167 19 61 -31 l 167 25 q 117 73 138 44 q 97 144 97 101 q 121 215 97 181 q 181 275 144 250 l 181 281 q 114 352 142 306 q 86 458 86 399 q 129 601 86 544 q 242 684 172 657 q 393 711 313 711 q 511 694 460 711 l 792 694 l 792 522 l 667 522 q 680 490 674 510 q 686 450 686 471 q 647 317 686 368 q 542 243 608 267 q 393 219 476 219 q 353 222 375 219 q 306 229 331 224 q 288 212 293 219 q 283 189 283 204 q 308 157 283 167 q 392 147 333 147 l 510 147 q 723 105 647 147 q 799 -33 799 63 q 747 -165 799 -108 q 599 -254 694 -222 q 374 -286 504 -286 m 393 361 q 453 385 428 361 q 478 458 478 408 q 453 530 478 507 q 393 553 428 553 q 334 530 358 553 q 310 458 310 507 q 334 385 310 408 q 393 361 358 361 m 411 -139 q 526 -122 481 -139 q 572 -75 572 -104 q 544 -40 572 -47 q 464 -33 517 -33 l 394 -33 q 331 -31 354 -33 q 289 -25 307 -29 q 254 -75 254 -50 q 298 -124 254 -108 q 411 -139 342 -139 z "},"h":{"ha":833,"x_min":89,"x_max":758,"o":"m 89 0 l 89 967 l 328 967 l 328 742 l 314 619 l 319 619 q 408 682 353 653 q 539 711 463 711 q 706 634 654 711 q 758 428 758 557 l 758 0 l 519 0 l 519 397 q 502 482 519 456 q 439 508 485 508 q 381 494 406 508 q 328 456 356 481 l 328 0 l 89 0 z "},"i":{"ha":833,"x_min":103,"x_max":631,"o":"m 367 0 l 367 508 l 103 508 l 103 694 l 606 694 l 606 0 l 367 0 m 478 789 q 368 827 411 789 q 325 928 325 865 q 368 1030 325 990 q 478 1069 411 1069 q 588 1030 544 1069 q 631 928 631 990 q 588 827 631 865 q 478 789 544 789 z "},"j":{"ha":833,"x_min":51,"x_max":631,"o":"m 271 -261 q 150 -248 203 -261 q 51 -214 97 -235 l 119 -44 q 196 -69 164 -62 q 254 -75 228 -75 q 342 -45 318 -75 q 367 56 367 -15 l 367 508 l 103 508 l 103 694 l 606 694 l 606 64 q 590 -58 606 0 q 536 -162 574 -117 q 434 -235 499 -208 q 271 -261 369 -261 m 478 789 q 368 827 411 789 q 325 928 325 865 q 368 1030 325 990 q 478 1069 411 1069 q 588 1030 544 1069 q 631 928 631 990 q 588 827 631 865 q 478 789 544 789 z "},"k":{"ha":833,"x_min":89,"x_max":819,"o":"m 89 0 l 89 967 l 328 967 l 328 447 l 333 447 l 544 694 l 803 694 l 544 408 l 819 0 l 561 0 l 408 258 l 328 169 l 328 0 l 89 0 z "},"l":{"ha":833,"x_min":56,"x_max":758,"o":"m 543 -17 q 334 67 404 -17 q 264 286 264 151 l 264 781 l 56 781 l 56 967 l 503 967 l 503 278 q 537 197 503 218 q 607 175 571 175 q 707 194 650 175 l 758 19 q 657 -7 703 3 q 543 -17 611 -17 z "},"m":{"ha":833,"x_min":36,"x_max":806,"o":"m 36 0 l 36 694 l 214 694 l 231 611 l 236 611 q 288 681 253 651 q 383 711 324 711 q 458 683 426 711 q 500 600 489 654 q 553 678 515 644 q 650 711 590 711 q 765 649 725 711 q 806 483 806 588 l 806 0 l 581 0 l 581 467 q 557 508 581 508 q 511 456 529 508 l 511 0 l 331 0 l 331 467 q 303 508 331 508 q 261 456 279 508 l 261 0 l 36 0 z "},"n":{"ha":833,"x_min":89,"x_max":758,"o":"m 89 0 l 89 694 l 283 694 l 300 611 l 306 611 q 404 681 347 651 q 538 711 461 711 q 706 634 653 711 q 758 428 758 557 l 758 0 l 519 0 l 519 397 q 502 482 519 456 q 439 508 485 508 q 381 494 406 508 q 328 456 356 481 l 328 0 l 89 0 z "},"o":{"ha":833,"x_min":58,"x_max":775,"o":"m 417 -17 q 243 26 325 -17 q 110 151 161 69 q 58 347 58 232 q 110 544 58 463 q 243 668 161 625 q 417 711 325 711 q 590 668 508 711 q 724 544 672 625 q 775 347 775 463 q 724 151 775 232 q 590 26 672 69 q 417 -17 508 -17 m 417 175 q 504 222 478 175 q 531 347 531 268 q 504 473 531 426 q 417 519 478 519 q 330 473 357 519 q 303 347 303 426 q 330 222 303 268 q 417 175 357 175 z "},"p":{"ha":833,"x_min":89,"x_max":775,"o":"m 89 -244 l 89 694 l 283 694 l 300 631 l 306 631 q 397 689 346 667 q 500 711 447 711 q 646 667 585 711 q 741 544 707 624 q 775 358 775 465 q 733 155 775 239 q 623 27 690 71 q 479 -17 556 -17 q 395 1 435 -17 q 322 53 356 19 l 317 53 l 328 -53 l 328 -244 l 89 -244 m 422 178 q 499 217 467 178 q 531 356 531 256 q 505 479 531 442 q 428 517 479 517 q 376 506 400 517 q 328 467 353 494 l 328 211 q 374 185 350 193 q 422 178 399 178 z "},"q":{"ha":833,"x_min":58,"x_max":744,"o":"m 506 -244 l 506 -53 l 517 53 l 511 53 q 436 3 481 22 q 347 -17 392 -17 q 138 81 217 -17 q 58 347 58 179 q 101 542 58 461 q 210 667 143 624 q 349 711 276 711 q 449 691 406 711 q 533 625 493 671 l 539 625 l 558 694 l 744 694 l 744 -244 l 506 -244 m 411 178 q 463 188 440 178 q 506 228 486 199 l 506 483 q 462 510 485 503 q 414 517 439 517 q 337 479 371 517 q 303 350 303 442 q 331 217 303 257 q 411 178 360 178 z "},"r":{"ha":833,"x_min":144,"x_max":767,"o":"m 144 0 l 144 694 l 340 694 l 358 547 l 364 547 q 485 672 414 633 q 635 711 557 711 q 710 703 683 711 q 767 683 738 696 l 719 483 q 663 498 689 493 q 599 503 636 503 q 481 467 539 503 q 383 344 422 432 l 383 0 l 144 0 z "},"s":{"ha":833,"x_min":64,"x_max":758,"o":"m 403 -17 q 222 15 314 -17 q 64 89 131 46 l 164 236 q 299 178 229 197 q 436 158 369 158 q 502 170 482 158 q 522 200 522 182 q 490 235 522 225 q 369 264 457 246 q 167 351 226 296 q 108 486 108 406 q 198 650 108 589 q 439 711 288 711 q 615 680 538 711 q 747 614 692 649 l 642 472 q 529 520 588 504 q 417 536 471 536 q 364 526 383 536 q 344 497 344 517 q 376 467 344 475 q 489 439 408 458 q 652 385 593 415 q 735 313 711 354 q 758 214 758 272 q 667 50 758 117 q 403 -17 576 -17 z "},"t":{"ha":833,"x_min":58,"x_max":767,"o":"m 536 -17 q 354 22 422 -17 q 256 131 286 61 q 225 294 225 201 l 225 508 l 58 508 l 58 686 l 236 694 l 267 903 l 464 903 l 464 694 l 739 694 l 739 508 l 464 508 l 464 299 q 498 197 464 225 q 599 169 532 169 q 666 176 635 169 q 725 192 697 182 l 767 19 q 664 -5 721 7 q 536 -17 607 -17 z "},"u":{"ha":833,"x_min":78,"x_max":739,"o":"m 297 -17 q 129 60 181 -17 q 78 267 78 138 l 78 694 l 317 694 l 317 297 q 333 213 317 239 q 396 186 349 186 q 450 198 426 186 q 500 247 474 210 l 500 694 l 739 694 l 739 0 l 544 0 l 528 92 l 522 92 q 425 13 479 42 q 297 -17 371 -17 z "},"v":{"ha":833,"x_min":33,"x_max":800,"o":"m 283 0 l 33 694 l 272 694 l 363 392 q 392 286 378 340 q 419 175 406 232 l 425 175 q 453 286 440 232 q 482 392 467 340 l 572 694 l 800 694 l 558 0 l 283 0 z "},"w":{"ha":833,"x_min":3,"x_max":831,"o":"m 103 0 l 3 694 l 233 694 l 261 403 q 271 299 267 351 q 281 192 275 246 l 285 192 q 297 299 290 246 q 314 403 304 353 l 342 583 l 503 583 l 533 403 q 551 299 543 351 q 565 192 558 246 l 571 192 q 580 299 578 246 q 586 403 582 351 l 608 694 l 831 694 l 739 0 l 464 0 l 442 186 q 431 285 436 235 q 419 392 425 335 l 414 392 q 407 310 411 357 q 394 186 403 263 l 372 0 l 103 0 z "},"x":{"ha":833,"x_min":38,"x_max":794,"o":"m 38 0 l 269 361 l 51 694 l 307 694 l 364 597 q 398 538 379 568 q 432 478 417 507 l 438 478 q 463 538 449 507 q 488 597 476 568 l 533 694 l 782 694 l 563 333 l 794 0 l 539 0 l 475 97 q 438 157 457 126 q 400 217 418 188 l 394 217 q 366 158 381 188 q 338 97 351 128 l 286 0 l 38 0 z "},"y":{"ha":833,"x_min":33,"x_max":803,"o":"m 204 -261 q 144 -257 172 -261 q 93 -247 117 -253 l 135 -67 q 185 -75 163 -75 q 270 -56 240 -75 q 314 -6 300 -36 l 325 25 l 33 694 l 269 694 l 367 428 q 400 326 385 378 q 429 217 415 274 l 435 217 q 463 323 447 269 q 494 428 479 376 l 578 694 l 803 694 l 542 11 q 462 -142 506 -82 q 357 -232 418 -203 q 204 -261 296 -261 z "},"z":{"ha":833,"x_min":97,"x_max":756,"o":"m 97 0 l 97 128 l 417 508 l 136 508 l 136 694 l 747 694 l 747 567 l 425 186 l 756 186 l 756 0 l 97 0 z "},"À":{"ha":833,"x_min":0,"x_max":833,"o":"m 346 439 l 332 376 l 493 376 l 479 439 q 447 581 465 504 q 414 725 429 657 l 408 725 q 378 581 394 657 q 346 439 361 504 m 0 0 l 272 903 l 561 903 l 833 0 l 581 0 l 536 192 l 289 192 l 244 0 l 0 0 m 472 936 l 200 1103 l 325 1256 l 578 1056 l 472 936 z "},"Á":{"ha":833,"x_min":0,"x_max":833,"o":"m 346 439 l 332 376 l 493 376 l 479 439 q 447 581 465 504 q 414 725 429 657 l 408 725 q 378 581 394 657 q 346 439 361 504 m 0 0 l 272 903 l 561 903 l 833 0 l 581 0 l 536 192 l 289 192 l 244 0 l 0 0 m 361 936 l 256 1056 l 508 1256 l 633 1103 l 361 936 z "},"Â":{"ha":833,"x_min":0,"x_max":833,"o":"m 346 439 l 332 376 l 493 376 l 479 439 q 447 581 465 504 q 414 725 429 657 l 408 725 q 378 581 394 657 q 346 439 361 504 m 0 0 l 272 903 l 561 903 l 833 0 l 581 0 l 536 192 l 289 192 l 244 0 l 0 0 m 272 944 l 169 1006 l 286 1158 l 547 1158 l 664 1006 l 561 944 l 419 1056 l 414 1056 l 272 944 z "},"Ã":{"ha":833,"x_min":0,"x_max":833,"o":"m 346 439 l 332 376 l 493 376 l 479 439 q 447 581 465 504 q 414 725 429 657 l 408 725 q 378 581 394 657 q 346 439 361 504 m 0 0 l 272 903 l 561 903 l 833 0 l 581 0 l 536 192 l 289 192 l 244 0 l 0 0 m 514 953 q 431 971 465 953 q 372 1007 397 989 q 328 1025 347 1025 q 299 1014 311 1025 q 283 967 288 1003 l 131 978 q 190 1141 138 1093 q 319 1189 243 1189 q 403 1171 368 1189 q 462 1135 438 1153 q 506 1117 486 1117 q 534 1128 522 1117 q 550 1175 546 1140 l 703 1164 q 644 1001 697 1050 q 514 953 590 953 z "},"Ä":{"ha":833,"x_min":0,"x_max":833,"o":"m 346 439 l 332 376 l 493 376 l 479 439 q 447 581 465 504 q 414 725 429 657 l 408 725 q 378 581 394 657 q 346 439 361 504 m 0 0 l 272 903 l 561 903 l 833 0 l 581 0 l 536 192 l 289 192 l 244 0 l 0 0 m 253 964 q 171 997 203 964 q 139 1078 139 1031 q 171 1159 139 1126 q 253 1192 203 1192 q 335 1159 303 1192 q 367 1078 367 1126 q 335 997 367 1031 q 253 964 303 964 m 581 964 q 499 997 531 964 q 467 1078 467 1031 q 499 1159 467 1126 q 581 1192 531 1192 q 663 1159 631 1192 q 694 1078 694 1126 q 663 997 694 1031 q 581 964 631 964 z "},"Ā":{"ha":833,"x_min":0,"x_max":833,"o":"m 346 439 l 332 376 l 493 376 l 479 439 q 447 581 465 504 q 414 725 429 657 l 408 725 q 378 581 394 657 q 346 439 361 504 m 0 0 l 272 903 l 561 903 l 833 0 l 581 0 l 536 192 l 289 192 l 244 0 l 0 0 m 197 994 l 197 1144 l 636 1144 l 636 994 l 197 994 z "},"Ă":{"ha":833,"x_min":0,"x_max":833,"o":"m 346 439 l 332 376 l 493 376 l 479 439 q 447 581 465 504 q 414 725 429 657 l 408 725 q 378 581 394 657 q 346 439 361 504 m 0 0 l 272 903 l 561 903 l 833 0 l 581 0 l 536 192 l 289 192 l 244 0 l 0 0 m 417 964 q 251 1011 311 964 q 181 1158 192 1058 l 308 1181 q 347 1120 318 1140 q 417 1100 375 1100 q 487 1120 458 1100 q 525 1181 515 1140 l 653 1158 q 583 1011 643 1058 q 417 964 524 964 z "},"Å":{"ha":833,"x_min":0,"x_max":833,"o":"m 346 439 l 332 376 l 493 376 l 479 439 q 447 581 465 504 q 414 725 429 657 l 408 725 q 378 581 394 657 q 346 439 361 504 m 0 0 l 272 903 l 561 903 l 833 0 l 581 0 l 536 192 l 289 192 l 244 0 l 0 0 m 417 967 q 296 1006 342 967 q 250 1108 250 1044 q 296 1212 250 1174 q 417 1250 342 1250 q 538 1212 492 1250 q 583 1108 583 1174 q 538 1006 583 1044 q 417 967 492 967 m 417 1053 q 454 1068 439 1053 q 469 1108 469 1083 q 454 1149 469 1133 q 417 1164 439 1164 q 379 1149 394 1164 q 364 1108 364 1133 q 379 1068 364 1083 q 417 1053 394 1053 z "},"Ǻ":{"ha":833,"x_min":0,"x_max":833,"o":"m 417 967 q 296 1006 342 967 q 250 1108 250 1044 q 307 1219 250 1181 l 522 1419 l 617 1289 l 499 1235 q 561 1185 539 1218 q 583 1108 583 1153 q 538 1006 583 1044 q 417 967 492 967 m 346 439 l 332 376 l 493 376 l 479 439 q 447 581 465 504 q 414 725 429 657 l 408 725 q 378 581 394 657 q 346 439 361 504 m 0 0 l 272 903 l 561 903 l 833 0 l 581 0 l 536 192 l 289 192 l 244 0 l 0 0 m 417 1053 q 454 1068 439 1053 q 469 1108 469 1083 q 454 1149 469 1133 q 417 1164 439 1164 q 379 1149 394 1164 q 364 1108 364 1133 q 379 1068 364 1083 q 417 1053 394 1053 z "},"Ǎ":{"ha":833,"x_min":0,"x_max":833,"o":"m 346 439 l 332 376 l 493 376 l 479 439 q 447 581 465 504 q 414 725 429 657 l 408 725 q 378 581 394 657 q 346 439 361 504 m 0 0 l 272 903 l 561 903 l 833 0 l 581 0 l 536 192 l 289 192 l 244 0 l 0 0 m 286 972 l 169 1125 l 272 1186 l 414 1075 l 419 1075 l 561 1186 l 664 1125 l 547 972 l 286 972 z "},"Ą":{"ha":833,"x_min":0,"x_max":858,"o":"m 346 439 l 332 376 l 493 376 l 479 439 q 447 581 464 504 q 414 725 429 657 l 408 725 q 378 581 394 657 q 346 439 361 504 m 700 -317 q 580 -281 629 -317 q 531 -181 531 -244 q 551 -99 531 -135 q 598 -37 571 -62 q 647 0 625 -11 l 581 0 l 536 192 l 289 192 l 244 0 l 0 0 l 272 903 l 561 903 l 833 0 q 738 -37 774 0 q 703 -117 703 -75 q 717 -151 703 -139 q 753 -164 732 -164 q 782 -158 768 -164 q 806 -144 796 -151 l 858 -264 q 785 -301 829 -286 q 700 -317 740 -317 z "},"Ạ":{"ha":833,"x_min":0,"x_max":833,"o":"m 346 439 l 332 376 l 493 376 l 479 439 q 447 581 465 504 q 414 725 429 657 l 408 725 q 378 581 394 657 q 346 439 361 504 m 0 0 l 272 903 l 561 903 l 833 0 l 581 0 l 536 192 l 289 192 l 244 0 l 0 0 z "},"Ả":{"ha":833,"x_min":0,"x_max":833,"o":"m 346 439 l 332 376 l 493 376 l 479 439 q 447 581 465 504 q 414 725 429 657 l 408 725 q 378 581 394 657 q 346 439 361 504 m 0 0 l 272 903 l 561 903 l 833 0 l 581 0 l 536 192 l 289 192 l 244 0 l 0 0 m 350 956 l 333 1047 q 373 1057 357 1050 q 389 1081 389 1064 q 365 1108 389 1097 q 281 1122 342 1118 l 308 1239 q 459 1219 404 1236 q 536 1172 514 1201 q 558 1106 558 1143 q 530 1024 558 1056 q 454 975 501 992 q 350 956 407 958 z "},"Ấ":{"ha":833,"x_min":0,"x_max":833,"o":"m 346 439 l 332 376 l 493 376 l 479 439 q 447 581 465 504 q 414 725 429 657 l 408 725 q 378 581 394 657 q 346 439 361 504 m 0 0 l 272 903 l 561 903 l 833 0 l 581 0 l 536 192 l 289 192 l 244 0 l 0 0 m 286 944 l 192 1006 l 314 1150 l 519 1150 l 642 1006 l 547 944 l 419 1044 l 414 1044 l 286 944 m 644 1053 l 575 1131 l 717 1247 l 792 1153 l 644 1053 z "},"Ầ":{"ha":833,"x_min":0,"x_max":833,"o":"m 346 439 l 332 376 l 493 376 l 479 439 q 447 581 465 504 q 414 725 429 657 l 408 725 q 378 581 394 657 q 346 439 361 504 m 0 0 l 272 903 l 561 903 l 833 0 l 581 0 l 536 192 l 289 192 l 244 0 l 0 0 m 286 944 l 192 1006 l 314 1150 l 519 1150 l 642 1006 l 547 944 l 419 1044 l 414 1044 l 286 944 m 189 1053 l 42 1153 l 117 1247 l 258 1131 l 189 1053 z "},"Ẩ":{"ha":833,"x_min":0,"x_max":833,"o":"m 346 439 l 332 376 l 493 376 l 479 439 q 447 581 465 504 q 414 725 429 657 l 408 725 q 378 581 394 657 q 346 439 361 504 m 0 0 l 272 903 l 561 903 l 833 0 l 581 0 l 536 192 l 289 192 l 244 0 l 0 0 m 286 944 l 192 1006 l 314 1150 l 519 1150 l 642 1006 l 547 944 l 419 1044 l 414 1044 l 286 944 m 619 1039 l 603 1111 q 631 1121 619 1114 q 642 1144 642 1128 q 624 1172 642 1161 q 553 1186 606 1182 l 575 1281 q 707 1262 660 1278 q 773 1220 754 1246 q 792 1164 792 1194 q 742 1072 792 1100 q 619 1039 693 1043 z "},"Ẫ":{"ha":833,"x_min":0,"x_max":833,"o":"m 346 439 l 332 376 l 493 376 l 479 439 q 447 581 465 504 q 414 725 429 657 l 408 725 q 378 581 394 657 q 346 439 361 504 m 0 0 l 272 903 l 561 903 l 833 0 l 581 0 l 536 192 l 289 192 l 244 0 l 0 0 m 286 944 l 192 1006 l 314 1136 l 519 1136 l 642 1006 l 547 944 l 419 1031 l 414 1031 l 286 944 m 497 1164 q 435 1178 461 1164 q 388 1208 408 1193 q 353 1222 368 1222 q 311 1172 319 1222 l 200 1186 q 241 1313 204 1275 q 336 1350 278 1350 q 399 1335 372 1350 q 446 1306 426 1321 q 481 1292 465 1292 q 522 1342 514 1292 l 633 1328 q 592 1201 629 1239 q 497 1164 556 1164 z "},"Ậ":{"ha":833,"x_min":0,"x_max":833,"o":"m 346 439 l 332 376 l 493 376 l 479 439 q 447 581 465 504 q 414 725 429 657 l 408 725 q 378 581 394 657 q 346 439 361 504 m 0 0 l 272 903 l 561 903 l 833 0 l 581 0 l 536 192 l 289 192 l 244 0 l 0 0 m 272 944 l 169 1006 l 286 1158 l 547 1158 l 664 1006 l 561 944 l 419 1056 l 414 1056 l 272 944 z "},"Ắ":{"ha":833,"x_min":0,"x_max":833,"o":"m 346 439 l 332 376 l 493 376 l 479 439 q 447 581 465 504 q 414 725 429 657 l 408 725 q 378 581 394 657 q 346 439 361 504 m 0 0 l 272 903 l 561 903 l 833 0 l 581 0 l 536 192 l 289 192 l 244 0 l 0 0 m 417 964 q 251 1011 311 964 q 181 1158 192 1058 l 294 1181 q 338 1110 306 1133 q 417 1086 369 1086 q 496 1110 464 1086 q 539 1181 528 1133 l 653 1158 q 583 1011 643 1058 q 417 964 524 964 m 447 1119 l 331 1194 l 464 1394 l 611 1306 l 447 1119 z "},"Ằ":{"ha":833,"x_min":0,"x_max":833,"o":"m 346 439 l 332 376 l 493 376 l 479 439 q 447 581 465 504 q 414 725 429 657 l 408 725 q 378 581 394 657 q 346 439 361 504 m 0 0 l 272 903 l 561 903 l 833 0 l 581 0 l 536 192 l 289 192 l 244 0 l 0 0 m 417 964 q 251 1011 311 964 q 181 1158 192 1058 l 294 1181 q 338 1110 306 1133 q 417 1086 369 1086 q 496 1110 464 1086 q 539 1181 528 1133 l 653 1158 q 583 1011 643 1058 q 417 964 524 964 m 386 1119 l 222 1306 l 369 1394 l 503 1194 l 386 1119 z "},"Ẳ":{"ha":833,"x_min":0,"x_max":833,"o":"m 346 439 l 332 376 l 493 376 l 479 439 q 447 581 465 504 q 414 725 429 657 l 408 725 q 378 581 394 657 q 346 439 361 504 m 0 0 l 272 903 l 561 903 l 833 0 l 581 0 l 536 192 l 289 192 l 244 0 l 0 0 m 417 964 q 251 1011 311 964 q 181 1158 192 1058 l 294 1181 q 338 1110 306 1133 q 417 1086 369 1086 q 496 1110 464 1086 q 539 1181 528 1133 l 653 1158 q 583 1011 643 1058 q 417 964 524 964 m 367 1122 l 350 1194 q 378 1204 367 1197 q 389 1228 389 1211 q 371 1255 389 1244 q 300 1269 353 1265 l 322 1364 q 454 1345 407 1361 q 520 1303 501 1329 q 539 1247 539 1278 q 490 1155 539 1183 q 367 1122 440 1126 z "},"Ẵ":{"ha":833,"x_min":0,"x_max":833,"o":"m 346 439 l 332 376 l 493 376 l 479 439 q 447 581 465 504 q 414 725 429 657 l 408 725 q 378 581 394 657 q 346 439 361 504 m 0 0 l 272 903 l 561 903 l 833 0 l 581 0 l 536 192 l 289 192 l 244 0 l 0 0 m 417 972 q 256 1014 311 972 q 192 1131 200 1056 l 303 1150 q 338 1103 313 1124 q 417 1083 363 1083 q 496 1103 471 1083 q 531 1150 521 1124 l 642 1131 q 578 1014 633 1056 q 417 972 524 972 m 497 1178 q 435 1192 461 1178 q 388 1222 408 1207 q 353 1236 368 1236 q 311 1186 319 1236 l 200 1200 q 241 1326 204 1289 q 336 1364 278 1364 q 399 1349 372 1364 q 446 1320 426 1335 q 481 1306 465 1306 q 522 1356 514 1306 l 633 1342 q 592 1215 629 1253 q 497 1178 556 1178 z "},"Ặ":{"ha":833,"x_min":0,"x_max":833,"o":"m 346 439 l 332 376 l 493 376 l 479 439 q 447 581 465 504 q 414 725 429 657 l 408 725 q 378 581 394 657 q 346 439 361 504 m 0 0 l 272 903 l 561 903 l 833 0 l 581 0 l 536 192 l 289 192 l 244 0 l 0 0 m 417 964 q 251 1011 311 964 q 181 1158 192 1058 l 308 1181 q 347 1120 318 1140 q 417 1100 375 1100 q 487 1120 458 1100 q 525 1181 515 1140 l 653 1158 q 583 1011 643 1058 q 417 964 524 964 z "},"Æ":{"ha":833,"x_min":-6,"x_max":828,"o":"m 367 483 l 336 368 l 429 368 l 429 725 l 425 725 q 395 599 411 661 q 367 483 379 538 m -6 0 l 272 903 l 817 903 l 817 703 l 639 703 l 639 564 l 788 564 l 788 364 l 639 364 l 639 200 l 828 200 l 828 0 l 429 0 l 429 183 l 288 183 l 239 0 l -6 0 z "},"Ǽ":{"ha":833,"x_min":-6,"x_max":828,"o":"m 367 483 l 336 368 l 429 368 l 429 725 l 425 725 q 395 599 411 661 q 367 483 379 538 m -6 0 l 272 903 l 817 903 l 817 703 l 639 703 l 639 564 l 788 564 l 788 364 l 639 364 l 639 200 l 828 200 l 828 0 l 429 0 l 429 183 l 288 183 l 239 0 l -6 0 m 472 936 l 367 1056 l 619 1256 l 744 1103 l 472 936 z "},"Ǣ":{"ha":833,"x_min":-6,"x_max":828,"o":"m 367 483 l 336 368 l 429 368 l 429 725 l 425 725 q 395 599 411 661 q 367 483 379 538 m -6 0 l 272 903 l 817 903 l 817 703 l 639 703 l 639 564 l 788 564 l 788 364 l 639 364 l 639 200 l 828 200 l 828 0 l 429 0 l 429 183 l 288 183 l 239 0 l -6 0 m 308 994 l 308 1144 l 747 1144 l 747 994 l 308 994 z "},"Ƀ":{"ha":833,"x_min":3,"x_max":789,"o":"m 106 0 l 106 242 l 3 242 l 3 344 l 106 353 l 106 903 l 411 903 q 582 883 506 903 q 703 817 658 864 q 747 686 747 769 q 712 581 747 632 q 597 511 676 531 l 597 506 q 741 431 693 486 q 789 281 789 376 q 742 121 789 183 q 615 29 694 58 q 439 0 536 0 l 106 0 m 344 169 l 422 169 q 522 203 492 169 q 553 300 553 238 q 523 394 553 365 q 422 422 493 422 l 344 422 l 344 353 l 472 353 l 472 242 l 344 242 l 344 169 m 344 561 l 406 561 q 519 656 519 561 q 492 715 519 697 q 406 733 464 733 l 344 733 l 344 561 z "},"Ḇ":{"ha":833,"x_min":89,"x_max":789,"o":"m 89 0 l 89 903 l 411 903 q 583 883 506 903 q 705 815 660 864 q 750 678 750 767 q 713 562 750 619 q 597 483 676 504 l 597 478 q 741 408 693 460 q 789 267 789 357 q 742 115 789 174 q 615 28 694 56 q 439 0 536 0 l 89 0 m 328 547 l 406 547 q 490 574 464 547 q 517 642 517 600 q 490 701 517 683 q 406 719 464 719 l 328 719 l 328 547 m 328 183 l 422 183 q 524 210 493 183 q 556 286 556 236 q 524 358 556 336 q 422 381 493 381 l 328 381 l 328 183 z "},"Ç":{"ha":833,"x_min":69,"x_max":800,"o":"m 497 -17 q 335 12 413 -17 q 199 98 258 40 q 104 242 139 156 q 69 444 69 329 q 129 702 69 596 q 289 864 189 808 q 511 919 389 919 q 670 884 599 919 q 789 803 742 849 l 658 656 q 592 699 628 683 q 511 714 557 714 q 371 645 428 714 q 314 453 314 576 q 372 258 314 326 q 522 189 431 189 q 603 210 567 189 q 669 261 640 231 l 800 117 q 667 17 744 50 q 497 -17 589 -17 m 322 -339 l 306 -247 q 415 -231 385 -243 q 444 -189 444 -218 q 424 -156 444 -169 q 339 -133 404 -142 l 414 17 l 550 17 l 506 -83 q 587 -120 560 -96 q 614 -189 614 -144 q 537 -299 614 -264 q 322 -339 460 -335 z "},"Ć":{"ha":833,"x_min":69,"x_max":800,"o":"m 497 -17 q 335 12 413 -17 q 199 98 258 40 q 104 242 139 156 q 69 444 69 329 q 129 702 69 596 q 289 864 189 808 q 511 919 389 919 q 670 884 599 919 q 789 803 742 849 l 658 656 q 592 699 628 683 q 511 714 557 714 q 371 645 428 714 q 314 453 314 576 q 372 258 314 326 q 522 189 431 189 q 603 210 567 189 q 669 261 640 231 l 800 117 q 667 17 744 50 q 497 -17 589 -17 m 439 936 l 333 1056 l 586 1256 l 711 1103 l 439 936 z "},"Ĉ":{"ha":833,"x_min":69,"x_max":800,"o":"m 497 -17 q 335 12 413 -17 q 199 98 258 40 q 104 242 139 156 q 69 444 69 329 q 129 702 69 596 q 289 864 189 808 q 511 919 389 919 q 670 884 599 919 q 789 803 742 849 l 658 656 q 592 699 628 683 q 511 714 557 714 q 371 645 428 714 q 314 453 314 576 q 372 258 314 326 q 522 189 431 189 q 603 210 567 189 q 669 261 640 231 l 800 117 q 667 17 744 50 q 497 -17 589 -17 m 350 944 l 247 1006 l 364 1158 l 625 1158 l 742 1006 l 639 944 l 497 1056 l 492 1056 l 350 944 z "},"Č":{"ha":833,"x_min":69,"x_max":800,"o":"m 497 -17 q 335 12 413 -17 q 199 98 258 40 q 104 242 139 156 q 69 444 69 329 q 129 702 69 596 q 289 864 189 808 q 511 919 389 919 q 670 884 599 919 q 789 803 742 849 l 658 656 q 592 699 628 683 q 511 714 557 714 q 371 645 428 714 q 314 453 314 576 q 372 258 314 326 q 522 189 431 189 q 603 210 567 189 q 669 261 640 231 l 800 117 q 667 17 744 50 q 497 -17 589 -17 m 364 972 l 247 1125 l 350 1186 l 492 1075 l 497 1075 l 639 1186 l 742 1125 l 625 972 l 364 972 z "},"Ċ":{"ha":833,"x_min":69,"x_max":800,"o":"m 497 -17 q 335 12 413 -17 q 199 98 258 40 q 104 242 139 156 q 69 444 69 329 q 129 702 69 596 q 289 864 189 808 q 511 919 389 919 q 670 884 599 919 q 789 803 742 849 l 658 656 q 592 699 628 683 q 511 714 557 714 q 371 645 428 714 q 314 453 314 576 q 372 258 314 326 q 522 189 431 189 q 603 210 567 189 q 669 261 640 231 l 800 117 q 667 17 744 50 q 497 -17 589 -17 m 494 967 q 392 1003 432 967 q 353 1097 353 1039 q 392 1192 353 1156 q 494 1228 432 1228 q 597 1192 557 1228 q 636 1097 636 1156 q 597 1003 636 1039 q 494 967 557 967 z "},"Ď":{"ha":833,"x_min":89,"x_max":789,"o":"m 89 0 l 89 903 l 349 903 q 577 858 478 903 q 733 714 676 813 q 789 456 789 615 q 733 195 789 296 q 581 47 678 94 q 363 0 485 0 l 89 0 m 328 192 l 336 192 q 442 214 394 192 q 517 293 489 236 q 544 456 544 350 q 517 616 544 561 q 442 691 489 671 q 336 711 394 711 l 328 711 l 328 192 m 286 972 l 169 1125 l 272 1186 l 414 1075 l 419 1075 l 561 1186 l 664 1125 l 547 972 l 286 972 z "},"Ḍ":{"ha":833,"x_min":89,"x_max":789,"o":"m 89 0 l 89 903 l 349 903 q 577 858 478 903 q 733 714 676 813 q 789 456 789 615 q 733 195 789 296 q 581 47 678 94 q 363 0 485 0 l 89 0 m 328 192 l 336 192 q 442 214 394 192 q 517 293 489 236 q 544 456 544 350 q 517 616 544 561 q 442 691 489 671 q 336 711 394 711 l 328 711 l 328 192 z "},"Ḏ":{"ha":833,"x_min":89,"x_max":789,"o":"m 89 0 l 89 903 l 349 903 q 577 858 478 903 q 733 714 676 813 q 789 456 789 615 q 733 195 789 296 q 581 47 678 94 q 363 0 485 0 l 89 0 m 328 192 l 336 192 q 442 214 394 192 q 517 293 489 236 q 544 456 544 350 q 517 616 544 561 q 442 691 489 671 q 336 711 394 711 l 328 711 l 328 192 z "},"Ḑ":{"ha":833,"x_min":89,"x_max":789,"o":"m 89 0 l 89 903 l 349 903 q 577 858 478 903 q 733 714 676 813 q 789 456 789 615 q 733 195 789 296 q 581 47 678 94 q 363 0 485 0 l 89 0 m 328 192 l 336 192 q 442 214 394 192 q 517 293 489 236 q 544 456 544 350 q 517 616 544 561 q 442 691 489 671 q 336 711 394 711 l 328 711 l 328 192 m 239 -339 l 222 -247 q 331 -231 301 -243 q 361 -189 361 -218 q 341 -156 361 -169 q 256 -133 321 -142 l 331 17 l 467 17 l 422 -83 q 503 -120 476 -96 q 531 -189 531 -144 q 453 -299 531 -264 q 239 -339 376 -335 z "},"Đ":{"ha":833,"x_min":-6,"x_max":789,"o":"m 89 0 l 89 406 l -6 406 l -6 508 l 89 517 l 89 903 l 350 903 q 577 858 478 903 q 733 714 676 813 q 789 456 789 615 q 733 195 789 296 q 581 47 676 94 q 364 0 485 0 l 89 0 m 328 192 l 336 192 q 440 214 393 192 q 516 293 488 236 q 544 456 544 350 q 516 616 544 561 q 440 691 488 671 q 336 711 393 711 l 328 711 l 328 517 l 458 517 l 458 406 l 328 406 l 328 192 z "},"Ɗ":{"ha":833,"x_min":-3,"x_max":814,"o":"m 250 0 l 250 717 q 190 673 207 703 q 172 606 172 643 q 188 541 172 567 q 233 497 203 515 l 150 347 q 38 441 78 383 q -3 592 -3 499 q 38 761 -3 688 q 165 877 78 835 q 394 919 253 919 q 702 812 590 919 q 814 464 814 704 q 765 198 814 300 q 632 48 717 96 q 439 0 547 0 l 250 0 m 461 192 l 475 192 q 537 214 510 192 q 581 295 564 236 q 597 464 597 354 q 581 615 597 560 q 535 697 565 671 q 461 726 504 722 l 461 192 z "},"È":{"ha":833,"x_min":117,"x_max":744,"o":"m 117 0 l 117 903 l 731 903 l 731 703 l 356 703 l 356 561 l 675 561 l 675 361 l 356 361 l 356 200 l 744 200 l 744 0 l 117 0 m 500 936 l 228 1103 l 353 1256 l 606 1056 l 500 936 z "},"É":{"ha":833,"x_min":117,"x_max":744,"o":"m 117 0 l 117 903 l 731 903 l 731 703 l 356 703 l 356 561 l 675 561 l 675 361 l 356 361 l 356 200 l 744 200 l 744 0 l 117 0 m 389 936 l 283 1056 l 536 1256 l 661 1103 l 389 936 z "},"Ê":{"ha":833,"x_min":117,"x_max":744,"o":"m 117 0 l 117 903 l 731 903 l 731 703 l 356 703 l 356 561 l 675 561 l 675 361 l 356 361 l 356 200 l 744 200 l 744 0 l 117 0 m 300 944 l 197 1006 l 314 1158 l 575 1158 l 692 1006 l 589 944 l 447 1056 l 442 1056 l 300 944 z "},"Ě":{"ha":833,"x_min":117,"x_max":744,"o":"m 117 0 l 117 903 l 731 903 l 731 703 l 356 703 l 356 561 l 675 561 l 675 361 l 356 361 l 356 200 l 744 200 l 744 0 l 117 0 m 314 972 l 197 1125 l 300 1186 l 442 1075 l 447 1075 l 589 1186 l 692 1125 l 575 972 l 314 972 z "},"Ë":{"ha":833,"x_min":117,"x_max":744,"o":"m 117 0 l 117 903 l 731 903 l 731 703 l 356 703 l 356 561 l 675 561 l 675 361 l 356 361 l 356 200 l 744 200 l 744 0 l 117 0 m 281 964 q 199 997 231 964 q 167 1078 167 1031 q 199 1159 167 1126 q 281 1192 231 1192 q 363 1159 331 1192 q 394 1078 394 1126 q 363 997 394 1031 q 281 964 331 964 m 608 964 q 526 997 558 964 q 494 1078 494 1031 q 526 1159 494 1126 q 608 1192 558 1192 q 690 1159 658 1192 q 722 1078 722 1126 q 690 997 722 1031 q 608 964 658 964 z "},"Ē":{"ha":833,"x_min":117,"x_max":744,"o":"m 117 0 l 117 903 l 731 903 l 731 703 l 356 703 l 356 561 l 675 561 l 675 361 l 356 361 l 356 200 l 744 200 l 744 0 l 117 0 m 225 994 l 225 1144 l 664 1144 l 664 994 l 225 994 z "},"Ĕ":{"ha":833,"x_min":117,"x_max":744,"o":"m 117 0 l 117 903 l 731 903 l 731 703 l 356 703 l 356 561 l 675 561 l 675 361 l 356 361 l 356 200 l 744 200 l 744 0 l 117 0 m 444 964 q 279 1011 339 964 q 208 1158 219 1058 l 336 1181 q 374 1120 346 1140 q 444 1100 403 1100 q 515 1120 486 1100 q 553 1181 543 1140 l 681 1158 q 611 1011 671 1058 q 444 964 551 964 z "},"Ė":{"ha":833,"x_min":117,"x_max":744,"o":"m 117 0 l 117 903 l 731 903 l 731 703 l 356 703 l 356 561 l 675 561 l 675 361 l 356 361 l 356 200 l 744 200 l 744 0 l 117 0 m 444 967 q 342 1003 382 967 q 303 1097 303 1039 q 342 1192 303 1156 q 444 1228 382 1228 q 547 1192 507 1228 q 586 1097 586 1156 q 547 1003 586 1039 q 444 967 507 967 z "},"Ę":{"ha":833,"x_min":119,"x_max":775,"o":"m 617 -317 q 497 -281 546 -317 q 447 -181 447 -244 q 465 -101 447 -136 q 510 -40 483 -65 q 558 0 536 -14 l 119 0 l 119 903 l 731 903 l 731 703 l 358 703 l 358 561 l 675 561 l 675 361 l 358 361 l 358 200 l 744 200 l 744 0 l 736 0 q 678 -17 704 0 q 635 -61 651 -35 q 619 -117 619 -87 q 637 -153 619 -142 q 675 -164 654 -164 q 700 -157 688 -164 q 722 -144 713 -150 l 775 -264 q 701 -301 746 -286 q 617 -317 657 -317 z "},"Ẹ":{"ha":833,"x_min":117,"x_max":744,"o":"m 117 0 l 117 903 l 731 903 l 731 703 l 356 703 l 356 561 l 675 561 l 675 361 l 356 361 l 356 200 l 744 200 l 744 0 l 117 0 z "},"Ẻ":{"ha":833,"x_min":117,"x_max":744,"o":"m 117 0 l 117 903 l 731 903 l 731 703 l 356 703 l 356 561 l 675 561 l 675 361 l 356 361 l 356 200 l 744 200 l 744 0 l 117 0 m 378 956 l 361 1047 q 401 1057 385 1050 q 417 1081 417 1064 q 393 1108 417 1097 q 308 1122 369 1118 l 336 1239 q 487 1219 432 1236 q 564 1172 542 1201 q 586 1106 586 1143 q 558 1024 586 1056 q 482 975 529 992 q 378 956 435 958 z "},"Ẽ":{"ha":833,"x_min":117,"x_max":744,"o":"m 117 0 l 117 903 l 731 903 l 731 703 l 356 703 l 356 561 l 675 561 l 675 361 l 356 361 l 356 200 l 744 200 l 744 0 l 117 0 m 542 953 q 459 971 493 953 q 400 1007 425 989 q 356 1025 375 1025 q 327 1014 339 1025 q 311 967 315 1003 l 158 978 q 218 1141 165 1093 q 347 1189 271 1189 q 431 1171 396 1189 q 490 1135 465 1153 q 533 1117 514 1117 q 562 1128 550 1117 q 578 1175 574 1140 l 731 1164 q 672 1001 725 1050 q 542 953 618 953 z "},"Ế":{"ha":833,"x_min":117,"x_max":819,"o":"m 117 0 l 117 903 l 731 903 l 731 703 l 356 703 l 356 561 l 675 561 l 675 361 l 356 361 l 356 200 l 744 200 l 744 0 l 117 0 m 314 944 l 219 1006 l 342 1150 l 547 1150 l 669 1006 l 575 944 l 447 1044 l 442 1044 l 314 944 m 672 1053 l 603 1131 l 744 1247 l 819 1153 l 672 1053 z "},"Ề":{"ha":833,"x_min":69,"x_max":744,"o":"m 117 0 l 117 903 l 731 903 l 731 703 l 356 703 l 356 561 l 675 561 l 675 361 l 356 361 l 356 200 l 744 200 l 744 0 l 117 0 m 314 944 l 219 1006 l 342 1150 l 547 1150 l 669 1006 l 575 944 l 447 1044 l 442 1044 l 314 944 m 217 1053 l 69 1153 l 144 1247 l 286 1131 l 217 1053 z "},"Ể":{"ha":833,"x_min":117,"x_max":819,"o":"m 117 0 l 117 903 l 731 903 l 731 703 l 356 703 l 356 561 l 675 561 l 675 361 l 356 361 l 356 200 l 744 200 l 744 0 l 117 0 m 314 944 l 219 1006 l 342 1150 l 547 1150 l 669 1006 l 575 944 l 447 1044 l 442 1044 l 314 944 m 647 1039 l 631 1111 q 658 1121 647 1114 q 669 1144 669 1128 q 651 1172 669 1161 q 581 1186 633 1182 l 603 1281 q 735 1262 688 1278 q 801 1220 782 1246 q 819 1164 819 1194 q 770 1072 819 1100 q 647 1039 721 1043 z "},"Ễ":{"ha":833,"x_min":117,"x_max":744,"o":"m 117 0 l 117 903 l 731 903 l 731 703 l 356 703 l 356 561 l 675 561 l 675 361 l 356 361 l 356 200 l 744 200 l 744 0 l 117 0 m 314 944 l 219 1006 l 342 1136 l 547 1136 l 669 1006 l 575 944 l 447 1031 l 442 1031 l 314 944 m 525 1164 q 463 1178 489 1164 q 416 1208 436 1193 q 381 1222 396 1222 q 339 1172 347 1222 l 228 1186 q 269 1313 232 1275 q 364 1350 306 1350 q 427 1335 400 1350 q 474 1306 454 1321 q 508 1292 493 1292 q 550 1342 542 1292 l 661 1328 q 620 1201 657 1239 q 525 1164 583 1164 z "},"Ệ":{"ha":833,"x_min":117,"x_max":744,"o":"m 117 0 l 117 903 l 731 903 l 731 703 l 356 703 l 356 561 l 675 561 l 675 361 l 356 361 l 356 200 l 744 200 l 744 0 l 117 0 m 300 944 l 197 1006 l 314 1158 l 575 1158 l 692 1006 l 589 944 l 447 1056 l 442 1056 l 300 944 z "},"Ḗ":{"ha":833,"x_min":117,"x_max":744,"o":"m 117 0 l 117 903 l 731 903 l 731 703 l 356 703 l 356 561 l 675 561 l 675 361 l 356 361 l 356 200 l 744 200 l 744 0 l 117 0 m 225 994 l 225 1144 l 664 1144 l 664 994 l 225 994 m 394 1161 l 317 1269 l 550 1419 l 644 1289 l 394 1161 z "},"Ǵ":{"ha":833,"x_min":56,"x_max":767,"o":"m 479 -17 q 267 34 364 -17 q 113 188 171 85 q 56 444 56 290 q 113 703 56 597 q 267 865 171 810 q 481 919 364 919 q 639 884 572 919 q 750 803 706 849 l 619 656 q 560 699 592 683 q 481 714 529 714 q 354 645 407 714 q 301 453 301 576 q 349 258 301 326 q 493 189 396 189 q 527 193 510 189 q 554 206 544 197 l 554 331 l 442 331 l 442 525 l 767 525 l 767 94 q 643 18 721 53 q 479 -17 565 -17 m 403 936 l 297 1056 l 550 1256 l 675 1103 l 403 936 z "},"Ĝ":{"ha":833,"x_min":56,"x_max":767,"o":"m 479 -17 q 267 34 364 -17 q 113 188 171 85 q 56 444 56 290 q 113 703 56 597 q 267 865 171 810 q 481 919 364 919 q 639 884 572 919 q 750 803 706 849 l 619 656 q 560 699 592 683 q 481 714 529 714 q 354 645 407 714 q 301 453 301 576 q 349 258 301 326 q 493 189 396 189 q 527 193 510 189 q 554 206 544 197 l 554 331 l 442 331 l 442 525 l 767 525 l 767 94 q 643 18 721 53 q 479 -17 565 -17 m 314 944 l 211 1006 l 328 1158 l 589 1158 l 706 1006 l 603 944 l 461 1056 l 456 1056 l 314 944 z "},"Ğ":{"ha":833,"x_min":56,"x_max":767,"o":"m 479 -17 q 267 34 364 -17 q 113 188 171 85 q 56 444 56 290 q 113 703 56 597 q 267 865 171 810 q 481 919 364 919 q 639 884 572 919 q 750 803 706 849 l 619 656 q 560 699 592 683 q 481 714 529 714 q 354 645 407 714 q 301 453 301 576 q 349 258 301 326 q 493 189 396 189 q 527 193 510 189 q 554 206 544 197 l 554 331 l 442 331 l 442 525 l 767 525 l 767 94 q 643 18 721 53 q 479 -17 565 -17 m 458 964 q 293 1011 353 964 q 222 1158 233 1058 l 350 1181 q 388 1120 360 1140 q 458 1100 417 1100 q 528 1120 500 1100 q 567 1181 557 1140 l 694 1158 q 625 1011 685 1058 q 458 964 565 964 z "},"Ġ":{"ha":833,"x_min":56,"x_max":767,"o":"m 479 -17 q 267 34 364 -17 q 113 188 171 85 q 56 444 56 290 q 113 703 56 597 q 267 865 171 810 q 481 919 364 919 q 639 884 572 919 q 750 803 706 849 l 619 656 q 560 699 592 683 q 481 714 529 714 q 354 645 407 714 q 301 453 301 576 q 349 258 301 326 q 493 189 396 189 q 527 193 510 189 q 554 206 544 197 l 554 331 l 442 331 l 442 525 l 767 525 l 767 94 q 643 18 721 53 q 479 -17 565 -17 m 458 967 q 356 1003 396 967 q 317 1097 317 1039 q 356 1192 317 1156 q 458 1228 396 1228 q 560 1192 521 1228 q 600 1097 600 1156 q 560 1003 600 1039 q 458 967 521 967 z "},"Ģ":{"ha":833,"x_min":56,"x_max":767,"o":"m 479 -17 q 267 34 364 -17 q 113 188 171 85 q 56 444 56 290 q 113 703 56 597 q 267 865 171 810 q 481 919 364 919 q 639 884 572 919 q 750 803 706 849 l 619 656 q 560 699 592 683 q 481 714 529 714 q 354 645 407 714 q 301 453 301 576 q 349 258 301 326 q 493 189 396 189 q 527 193 510 189 q 554 206 544 197 l 554 331 l 442 331 l 442 525 l 767 525 l 767 94 q 643 18 721 53 q 479 -17 565 -17 m 294 -339 l 278 -247 q 387 -231 357 -243 q 417 -197 417 -219 q 398 -169 417 -181 q 333 -153 379 -157 l 378 -69 q 542 -107 497 -78 q 586 -189 586 -136 q 509 -299 586 -264 q 294 -339 432 -335 z "},"Ǧ":{"ha":833,"x_min":56,"x_max":767,"o":"m 479 -17 q 267 34 364 -17 q 113 188 171 85 q 56 444 56 290 q 113 703 56 597 q 267 865 171 810 q 481 919 364 919 q 639 884 572 919 q 750 803 706 849 l 619 656 q 560 699 592 683 q 481 714 529 714 q 354 645 407 714 q 301 453 301 576 q 349 258 301 326 q 493 189 396 189 q 527 193 510 189 q 554 206 544 197 l 554 331 l 442 331 l 442 525 l 767 525 l 767 94 q 643 18 721 53 q 479 -17 565 -17 m 328 972 l 211 1125 l 314 1186 l 456 1075 l 461 1075 l 603 1186 l 706 1125 l 589 972 l 328 972 z "},"Ḡ":{"ha":833,"x_min":56,"x_max":767,"o":"m 479 -17 q 267 34 364 -17 q 113 188 171 85 q 56 444 56 290 q 113 703 56 597 q 267 865 171 810 q 481 919 364 919 q 639 884 572 919 q 750 803 706 849 l 619 656 q 560 699 592 683 q 481 714 529 714 q 354 645 407 714 q 301 453 301 576 q 349 258 301 326 q 493 189 396 189 q 527 193 510 189 q 554 206 544 197 l 554 331 l 442 331 l 442 525 l 767 525 l 767 94 q 643 18 721 53 q 479 -17 565 -17 m 239 994 l 239 1144 l 678 1144 l 678 994 l 239 994 z "},"Ɠ":{"ha":833,"x_min":56,"x_max":856,"o":"m 750 803 l 619 656 q 560 699 592 683 q 481 714 529 714 q 354 645 407 714 q 301 453 301 576 q 349 258 301 326 q 493 189 396 189 q 527 193 510 189 q 554 206 544 197 l 554 331 l 442 331 l 442 525 l 767 525 l 767 94 q 643 18 721 53 q 479 -17 565 -17 q 267 34 364 -17 q 113 188 171 85 q 56 444 56 290 q 113 703 56 597 q 267 865 171 810 q 481 919 364 919 q 499 919 490 919 q 515 918 507 919 q 515 932 515 925 q 514 944 514 939 q 539 1044 514 999 q 611 1117 564 1089 q 725 1144 658 1144 q 803 1138 774 1144 q 856 1125 833 1132 l 814 950 q 797 956 804 954 q 778 958 789 958 q 728 943 749 958 q 708 894 708 928 q 722 842 708 864 q 750 803 736 819 z "},"Ĥ":{"ha":833,"x_min":81,"x_max":753,"o":"m 81 0 l 81 903 l 319 903 l 319 567 l 514 567 l 514 903 l 753 903 l 753 0 l 514 0 l 514 358 l 319 358 l 319 0 l 81 0 m 272 944 l 169 1006 l 286 1158 l 547 1158 l 664 1006 l 561 944 l 419 1056 l 414 1056 l 272 944 z "},"Ḧ":{"ha":833,"x_min":81,"x_max":753,"o":"m 81 0 l 81 903 l 319 903 l 319 567 l 514 567 l 514 903 l 753 903 l 753 0 l 514 0 l 514 358 l 319 358 l 319 0 l 81 0 m 253 964 q 171 997 203 964 q 139 1078 139 1031 q 171 1159 139 1126 q 253 1192 203 1192 q 335 1159 303 1192 q 367 1078 367 1126 q 335 997 367 1031 q 253 964 303 964 m 581 964 q 499 997 531 964 q 467 1078 467 1031 q 499 1159 467 1126 q 581 1192 531 1192 q 663 1159 631 1192 q 694 1078 694 1126 q 663 997 694 1031 q 581 964 631 964 z "},"Ḥ":{"ha":833,"x_min":81,"x_max":753,"o":"m 81 0 l 81 903 l 319 903 l 319 567 l 514 567 l 514 903 l 753 903 l 753 0 l 514 0 l 514 358 l 319 358 l 319 0 l 81 0 z "},"Ḩ":{"ha":833,"x_min":36,"x_max":753,"o":"m 81 0 l 81 903 l 319 903 l 319 567 l 514 567 l 514 903 l 753 903 l 753 0 l 514 0 l 514 358 l 319 358 l 319 0 l 81 0 m 53 -339 l 36 -247 q 145 -231 115 -243 q 175 -189 175 -218 q 155 -156 175 -169 q 69 -133 135 -142 l 144 17 l 281 17 l 236 -83 q 317 -120 290 -96 q 344 -189 344 -144 q 267 -299 344 -264 q 53 -339 190 -335 z "},"Ḫ":{"ha":833,"x_min":81,"x_max":753,"o":"m 81 0 l 81 903 l 319 903 l 319 567 l 514 567 l 514 903 l 753 903 l 753 0 l 514 0 l 514 358 l 319 358 l 319 0 l 81 0 z "},"Ħ":{"ha":833,"x_min":0,"x_max":833,"o":"m 81 0 l 81 672 l 0 672 l 0 775 l 81 782 l 81 903 l 319 903 l 319 783 l 514 783 l 514 903 l 753 903 l 753 783 l 833 783 l 833 672 l 753 672 l 753 0 l 514 0 l 514 358 l 319 358 l 319 0 l 81 0 m 319 567 l 514 567 l 514 672 l 319 672 l 319 567 z "},"Ì":{"ha":833,"x_min":92,"x_max":742,"o":"m 92 0 l 92 200 l 297 200 l 297 703 l 92 703 l 92 903 l 742 903 l 742 703 l 536 703 l 536 200 l 742 200 l 742 0 l 92 0 m 472 936 l 200 1103 l 325 1256 l 578 1056 l 472 936 z "},"Í":{"ha":833,"x_min":92,"x_max":742,"o":"m 92 0 l 92 200 l 297 200 l 297 703 l 92 703 l 92 903 l 742 903 l 742 703 l 536 703 l 536 200 l 742 200 l 742 0 l 92 0 m 361 936 l 256 1056 l 508 1256 l 633 1103 l 361 936 z "},"Î":{"ha":833,"x_min":92,"x_max":742,"o":"m 92 0 l 92 200 l 297 200 l 297 703 l 92 703 l 92 903 l 742 903 l 742 703 l 536 703 l 536 200 l 742 200 l 742 0 l 92 0 m 272 944 l 169 1006 l 286 1158 l 547 1158 l 664 1006 l 561 944 l 419 1056 l 414 1056 l 272 944 z "},"Ĩ":{"ha":833,"x_min":92,"x_max":742,"o":"m 92 0 l 92 200 l 297 200 l 297 703 l 92 703 l 92 903 l 742 903 l 742 703 l 536 703 l 536 200 l 742 200 l 742 0 l 92 0 m 514 953 q 431 971 465 953 q 372 1007 397 989 q 328 1025 347 1025 q 299 1014 311 1025 q 283 967 288 1003 l 131 978 q 190 1141 138 1093 q 319 1189 243 1189 q 403 1171 368 1189 q 462 1135 438 1153 q 506 1117 486 1117 q 534 1128 522 1117 q 550 1175 546 1140 l 703 1164 q 644 1001 697 1050 q 514 953 590 953 z "},"Ï":{"ha":833,"x_min":92,"x_max":742,"o":"m 92 0 l 92 200 l 297 200 l 297 703 l 92 703 l 92 903 l 742 903 l 742 703 l 536 703 l 536 200 l 742 200 l 742 0 l 92 0 m 253 964 q 171 997 203 964 q 139 1078 139 1031 q 171 1159 139 1126 q 253 1192 203 1192 q 335 1159 303 1192 q 367 1078 367 1126 q 335 997 367 1031 q 253 964 303 964 m 581 964 q 499 997 531 964 q 467 1078 467 1031 q 499 1159 467 1126 q 581 1192 531 1192 q 663 1159 631 1192 q 694 1078 694 1126 q 663 997 694 1031 q 581 964 631 964 z "},"Ī":{"ha":833,"x_min":92,"x_max":742,"o":"m 92 0 l 92 200 l 297 200 l 297 703 l 92 703 l 92 903 l 742 903 l 742 703 l 536 703 l 536 200 l 742 200 l 742 0 l 92 0 m 197 994 l 197 1144 l 636 1144 l 636 994 l 197 994 z "},"İ":{"ha":833,"x_min":92,"x_max":742,"o":"m 92 0 l 92 200 l 297 200 l 297 703 l 92 703 l 92 903 l 742 903 l 742 703 l 536 703 l 536 200 l 742 200 l 742 0 l 92 0 m 417 967 q 315 1003 354 967 q 275 1097 275 1039 q 315 1192 275 1156 q 417 1228 354 1228 q 519 1192 479 1228 q 558 1097 558 1156 q 519 1003 558 1039 q 417 967 479 967 z "},"Ǐ":{"ha":833,"x_min":92,"x_max":742,"o":"m 92 0 l 92 200 l 297 200 l 297 703 l 92 703 l 92 903 l 742 903 l 742 703 l 536 703 l 536 200 l 742 200 l 742 0 l 92 0 m 286 972 l 169 1125 l 272 1186 l 414 1075 l 419 1075 l 561 1186 l 664 1125 l 547 972 l 286 972 z "},"Į":{"ha":833,"x_min":92,"x_max":742,"o":"m 425 -317 q 305 -281 354 -317 q 256 -181 256 -244 q 274 -99 256 -135 q 318 -37 293 -62 q 363 0 343 -12 l 92 0 l 92 200 l 297 200 l 297 703 l 92 703 l 92 903 l 742 903 l 742 703 l 536 703 l 536 200 l 742 200 l 742 0 l 536 0 q 452 -51 476 -18 q 428 -117 428 -83 q 445 -153 428 -142 q 482 -164 463 -164 q 509 -157 496 -164 q 531 -144 522 -150 l 583 -264 q 510 -301 554 -286 q 425 -317 465 -317 z "},"Ỉ":{"ha":833,"x_min":92,"x_max":742,"o":"m 92 0 l 92 200 l 297 200 l 297 703 l 92 703 l 92 903 l 742 903 l 742 703 l 536 703 l 536 200 l 742 200 l 742 0 l 92 0 m 350 956 l 333 1047 q 373 1057 357 1050 q 389 1081 389 1064 q 365 1108 389 1097 q 281 1122 342 1118 l 308 1239 q 459 1219 404 1236 q 536 1172 514 1201 q 558 1106 558 1143 q 530 1024 558 1056 q 454 975 501 992 q 350 956 407 958 z "},"Ị":{"ha":833,"x_min":92,"x_max":742,"o":"m 92 0 l 92 200 l 297 200 l 297 703 l 92 703 l 92 903 l 742 903 l 742 703 l 536 703 l 536 200 l 742 200 l 742 0 l 92 0 z "},"Ĭ":{"ha":833,"x_min":92,"x_max":742,"o":"m 92 0 l 92 200 l 297 200 l 297 703 l 92 703 l 92 903 l 742 903 l 742 703 l 536 703 l 536 200 l 742 200 l 742 0 l 92 0 m 417 964 q 251 1011 311 964 q 181 1158 192 1058 l 308 1181 q 347 1120 318 1140 q 417 1100 375 1100 q 487 1120 458 1100 q 525 1181 515 1140 l 653 1158 q 583 1011 643 1058 q 417 964 524 964 z "},"Ĵ":{"ha":833,"x_min":71,"x_max":729,"o":"m 378 -17 q 219 15 303 -17 q 71 132 135 47 l 206 281 q 286 213 244 238 q 369 189 328 189 q 459 219 428 189 q 490 333 490 249 l 490 703 l 147 703 l 147 903 l 729 903 l 729 314 q 695 149 729 224 q 585 28 661 74 q 378 -17 508 -17 m 314 944 l 211 1006 l 328 1158 l 589 1158 l 706 1006 l 603 944 l 461 1056 l 456 1056 l 314 944 z "},"Ķ":{"ha":833,"x_min":78,"x_max":833,"o":"m 78 0 l 78 903 l 319 903 l 319 567 l 325 567 l 547 903 l 811 903 l 544 538 l 833 0 l 569 0 l 404 347 l 319 231 l 319 0 l 78 0 m 294 -339 l 278 -247 q 387 -231 357 -243 q 417 -197 417 -219 q 398 -169 417 -181 q 333 -153 379 -157 l 378 -69 q 542 -107 497 -78 q 586 -189 586 -136 q 509 -299 586 -264 q 294 -339 432 -335 z "},"Ḳ":{"ha":833,"x_min":78,"x_max":833,"o":"m 78 0 l 78 903 l 319 903 l 319 567 l 325 567 l 547 903 l 811 903 l 544 538 l 833 0 l 569 0 l 404 347 l 319 231 l 319 0 l 78 0 z "},"Ḵ":{"ha":833,"x_min":78,"x_max":833,"o":"m 78 0 l 78 903 l 319 903 l 319 567 l 325 567 l 547 903 l 811 903 l 544 538 l 833 0 l 569 0 l 404 347 l 319 231 l 319 0 l 78 0 z "},"Ĺ":{"ha":833,"x_min":108,"x_max":757,"o":"m 133 0 l 133 903 l 372 903 l 372 200 l 757 200 l 757 0 l 133 0 m 214 936 l 108 1056 l 361 1256 l 486 1103 l 214 936 z "},"Ľ":{"ha":833,"x_min":133,"x_max":757,"o":"m 133 0 l 133 903 l 372 903 l 372 200 l 757 200 l 757 0 l 133 0 m 506 706 l 497 1089 l 708 1089 l 706 944 l 667 706 l 506 706 z "},"Ļ":{"ha":833,"x_min":133,"x_max":757,"o":"m 133 0 l 133 903 l 372 903 l 372 200 l 757 200 l 757 0 l 133 0 m 308 -339 l 292 -247 q 401 -231 371 -243 q 431 -197 431 -219 q 412 -169 431 -181 q 347 -153 393 -157 l 392 -69 q 556 -107 511 -78 q 600 -189 600 -136 q 523 -299 600 -264 q 308 -339 446 -335 z "},"Ḷ":{"ha":833,"x_min":133,"x_max":757,"o":"m 133 0 l 133 903 l 372 903 l 372 200 l 757 200 l 757 0 l 133 0 z "},"Ḹ":{"ha":833,"x_min":50,"x_max":757,"o":"m 133 0 l 133 903 l 372 903 l 372 200 l 757 200 l 757 0 l 133 0 m 50 994 l 50 1144 l 489 1144 l 489 994 l 50 994 z "},"Ḻ":{"ha":833,"x_min":133,"x_max":757,"o":"m 133 0 l 133 903 l 372 903 l 372 200 l 757 200 l 757 0 l 133 0 z "},"Ł":{"ha":833,"x_min":-19,"x_max":757,"o":"m 133 0 l 133 275 l 61 231 l -19 372 l 133 460 l 133 903 l 372 903 l 372 569 l 606 700 l 686 558 l 372 385 l 372 200 l 757 200 l 757 0 l 133 0 z "},"Ŀ":{"ha":833,"x_min":133,"x_max":817,"o":"m 133 0 l 133 903 l 372 903 l 372 200 l 757 200 l 757 0 l 133 0 m 664 364 q 554 402 597 364 q 511 503 511 440 q 554 605 511 565 q 664 644 597 644 q 774 605 731 644 q 817 503 817 565 q 774 402 817 440 q 664 364 731 364 z "},"Ḿ":{"ha":833,"x_min":72,"x_max":761,"o":"m 72 0 l 72 903 l 315 903 l 389 608 l 414 492 l 419 492 l 444 608 l 518 903 l 761 903 l 761 0 l 564 0 l 564 213 q 567 314 564 253 q 575 442 571 375 q 585 571 579 510 q 594 671 590 632 l 590 671 l 514 403 l 467 239 l 361 239 l 311 403 l 242 671 l 236 671 q 246 571 240 632 q 256 442 251 510 q 263 314 260 375 q 267 213 267 253 l 267 0 l 72 0 m 361 936 l 256 1056 l 508 1256 l 633 1103 l 361 936 z "},"Ṁ":{"ha":833,"x_min":72,"x_max":761,"o":"m 72 0 l 72 903 l 315 903 l 389 608 l 414 492 l 419 492 l 444 608 l 518 903 l 761 903 l 761 0 l 564 0 l 564 213 q 567 314 564 253 q 575 442 571 375 q 585 571 579 510 q 594 671 590 632 l 590 671 l 514 403 l 467 239 l 361 239 l 311 403 l 242 671 l 236 671 q 246 571 240 632 q 256 442 251 510 q 263 314 260 375 q 267 213 267 253 l 267 0 l 72 0 m 417 967 q 315 1003 354 967 q 275 1097 275 1039 q 315 1192 275 1156 q 417 1228 354 1228 q 519 1192 479 1228 q 558 1097 558 1156 q 519 1003 558 1039 q 417 967 479 967 z "},"Ṃ":{"ha":833,"x_min":72,"x_max":761,"o":"m 72 0 l 72 903 l 315 903 l 389 608 l 414 492 l 419 492 l 444 608 l 518 903 l 761 903 l 761 0 l 564 0 l 564 213 q 567 314 564 253 q 575 442 571 375 q 585 571 579 510 q 594 671 590 632 l 590 671 l 514 403 l 467 239 l 361 239 l 311 403 l 242 671 l 236 671 q 246 571 240 632 q 256 442 251 510 q 263 314 260 375 q 267 213 267 253 l 267 0 l 72 0 z "},"Ń":{"ha":833,"x_min":83,"x_max":750,"o":"m 83 0 l 83 903 l 325 903 l 476 500 l 550 297 l 556 297 q 535 465 547 371 q 522 642 522 558 l 522 903 l 750 903 l 750 0 l 508 0 l 357 404 l 283 606 l 278 606 q 299 437 286 529 q 311 261 311 344 l 311 0 l 83 0 m 375 936 l 269 1056 l 522 1256 l 647 1103 l 375 936 z "},"Ǹ":{"ha":833,"x_min":83,"x_max":750,"o":"m 83 0 l 83 903 l 325 903 l 476 500 l 550 297 l 556 297 q 535 465 547 371 q 522 642 522 558 l 522 903 l 750 903 l 750 0 l 508 0 l 357 404 l 283 606 l 278 606 q 299 437 286 529 q 311 261 311 344 l 311 0 l 83 0 m 486 936 l 214 1103 l 339 1256 l 592 1056 l 486 936 z "},"Ň":{"ha":833,"x_min":83,"x_max":750,"o":"m 83 0 l 83 903 l 325 903 l 476 500 l 550 297 l 556 297 q 535 465 547 371 q 522 642 522 558 l 522 903 l 750 903 l 750 0 l 508 0 l 357 404 l 283 606 l 278 606 q 299 437 286 529 q 311 261 311 344 l 311 0 l 83 0 m 300 972 l 183 1125 l 286 1186 l 428 1075 l 433 1075 l 575 1186 l 678 1125 l 561 972 l 300 972 z "},"Ñ":{"ha":833,"x_min":83,"x_max":750,"o":"m 83 0 l 83 903 l 325 903 l 476 500 l 550 297 l 556 297 q 535 465 547 371 q 522 642 522 558 l 522 903 l 750 903 l 750 0 l 508 0 l 357 404 l 283 606 l 278 606 q 299 437 286 529 q 311 261 311 344 l 311 0 l 83 0 m 528 953 q 445 971 479 953 q 386 1007 411 989 q 342 1025 361 1025 q 313 1014 325 1025 q 297 967 301 1003 l 144 978 q 204 1141 151 1093 q 333 1189 257 1189 q 417 1171 382 1189 q 476 1135 451 1153 q 519 1117 500 1117 q 548 1128 536 1117 q 564 1175 560 1140 l 717 1164 q 658 1001 711 1050 q 528 953 604 953 z "},"Ņ":{"ha":833,"x_min":83,"x_max":750,"o":"m 83 0 l 83 903 l 325 903 l 476 500 l 550 297 l 556 297 q 535 465 547 371 q 522 642 522 558 l 522 903 l 750 903 l 750 0 l 508 0 l 357 404 l 283 606 l 278 606 q 299 437 286 529 q 311 261 311 344 l 311 0 l 83 0 m 267 -339 l 250 -247 q 359 -231 329 -243 q 389 -197 389 -219 q 370 -169 389 -181 q 306 -153 351 -157 l 350 -69 q 514 -107 469 -78 q 558 -189 558 -136 q 481 -299 558 -264 q 267 -339 404 -335 z "},"Ṅ":{"ha":833,"x_min":83,"x_max":750,"o":"m 83 0 l 83 903 l 325 903 l 476 500 l 550 297 l 556 297 q 535 465 547 371 q 522 642 522 558 l 522 903 l 750 903 l 750 0 l 508 0 l 357 404 l 283 606 l 278 606 q 299 437 286 529 q 311 261 311 344 l 311 0 l 83 0 m 431 967 q 328 1003 368 967 q 289 1097 289 1039 q 328 1192 289 1156 q 431 1228 368 1228 q 533 1192 493 1228 q 572 1097 572 1156 q 533 1003 572 1039 q 431 967 493 967 z "},"Ṇ":{"ha":833,"x_min":83,"x_max":750,"o":"m 83 0 l 83 903 l 325 903 l 476 500 l 550 297 l 556 297 q 535 465 547 371 q 522 642 522 558 l 522 903 l 750 903 l 750 0 l 508 0 l 357 404 l 283 606 l 278 606 q 299 437 286 529 q 311 261 311 344 l 311 0 l 83 0 z "},"Ṉ":{"ha":833,"x_min":83,"x_max":750,"o":"m 83 0 l 83 903 l 325 903 l 476 500 l 550 297 l 556 297 q 535 465 547 371 q 522 642 522 558 l 522 903 l 750 903 l 750 0 l 508 0 l 357 404 l 283 606 l 278 606 q 299 437 286 529 q 311 261 311 344 l 311 0 l 83 0 z "},"Ò":{"ha":833,"x_min":47,"x_max":786,"o":"m 417 -17 q 224 36 307 -17 q 94 194 140 89 q 47 456 47 299 q 94 712 47 608 q 224 867 140 815 q 417 919 307 919 q 610 867 526 919 q 740 712 693 815 q 786 456 786 608 q 740 194 786 299 q 610 36 693 89 q 417 -17 526 -17 m 417 189 q 508 255 475 189 q 542 456 542 321 q 508 649 542 585 q 417 714 475 714 q 325 649 358 714 q 292 456 292 585 q 325 255 292 321 q 417 189 358 189 m 472 936 l 200 1103 l 325 1256 l 578 1056 l 472 936 z "},"Ó":{"ha":833,"x_min":47,"x_max":786,"o":"m 417 -17 q 224 36 307 -17 q 94 194 140 89 q 47 456 47 299 q 94 712 47 608 q 224 867 140 815 q 417 919 307 919 q 610 867 526 919 q 740 712 693 815 q 786 456 786 608 q 740 194 786 299 q 610 36 693 89 q 417 -17 526 -17 m 417 189 q 508 255 475 189 q 542 456 542 321 q 508 649 542 585 q 417 714 475 714 q 325 649 358 714 q 292 456 292 585 q 325 255 292 321 q 417 189 358 189 m 361 936 l 256 1056 l 508 1256 l 633 1103 l 361 936 z "},"Ô":{"ha":833,"x_min":47,"x_max":786,"o":"m 417 -17 q 224 36 307 -17 q 94 194 140 89 q 47 456 47 299 q 94 712 47 608 q 224 867 140 815 q 417 919 307 919 q 610 867 526 919 q 740 712 693 815 q 786 456 786 608 q 740 194 786 299 q 610 36 693 89 q 417 -17 526 -17 m 417 189 q 508 255 475 189 q 542 456 542 321 q 508 649 542 585 q 417 714 475 714 q 325 649 358 714 q 292 456 292 585 q 325 255 292 321 q 417 189 358 189 m 272 944 l 169 1006 l 286 1158 l 547 1158 l 664 1006 l 561 944 l 419 1056 l 414 1056 l 272 944 z "},"Õ":{"ha":833,"x_min":47,"x_max":786,"o":"m 417 -17 q 224 36 307 -17 q 94 194 140 89 q 47 456 47 299 q 94 712 47 608 q 224 867 140 815 q 417 919 307 919 q 610 867 526 919 q 740 712 693 815 q 786 456 786 608 q 740 194 786 299 q 610 36 693 89 q 417 -17 526 -17 m 417 189 q 508 255 475 189 q 542 456 542 321 q 508 649 542 585 q 417 714 475 714 q 325 649 358 714 q 292 456 292 585 q 325 255 292 321 q 417 189 358 189 m 514 953 q 431 971 465 953 q 372 1007 397 989 q 328 1025 347 1025 q 299 1014 311 1025 q 283 967 288 1003 l 131 978 q 190 1141 138 1093 q 319 1189 243 1189 q 403 1171 368 1189 q 462 1135 438 1153 q 506 1117 486 1117 q 534 1128 522 1117 q 550 1175 546 1140 l 703 1164 q 644 1001 697 1050 q 514 953 590 953 z "},"Ö":{"ha":833,"x_min":47,"x_max":786,"o":"m 417 -17 q 224 36 307 -17 q 94 194 140 89 q 47 456 47 299 q 94 712 47 608 q 224 867 140 815 q 417 919 307 919 q 610 867 526 919 q 740 712 693 815 q 786 456 786 608 q 740 194 786 299 q 610 36 693 89 q 417 -17 526 -17 m 417 189 q 508 255 475 189 q 542 456 542 321 q 508 649 542 585 q 417 714 475 714 q 325 649 358 714 q 292 456 292 585 q 325 255 292 321 q 417 189 358 189 m 253 964 q 171 997 203 964 q 139 1078 139 1031 q 171 1159 139 1126 q 253 1192 203 1192 q 335 1159 303 1192 q 367 1078 367 1126 q 335 997 367 1031 q 253 964 303 964 m 581 964 q 499 997 531 964 q 467 1078 467 1031 q 499 1159 467 1126 q 581 1192 531 1192 q 663 1159 631 1192 q 694 1078 694 1126 q 663 997 694 1031 q 581 964 631 964 z "},"Ō":{"ha":833,"x_min":47,"x_max":786,"o":"m 417 -17 q 224 36 307 -17 q 94 194 140 89 q 47 456 47 299 q 94 712 47 608 q 224 867 140 815 q 417 919 307 919 q 610 867 526 919 q 740 712 693 815 q 786 456 786 608 q 740 194 786 299 q 610 36 693 89 q 417 -17 526 -17 m 417 189 q 508 255 475 189 q 542 456 542 321 q 508 649 542 585 q 417 714 475 714 q 325 649 358 714 q 292 456 292 585 q 325 255 292 321 q 417 189 358 189 m 197 994 l 197 1144 l 636 1144 l 636 994 l 197 994 z "},"Ő":{"ha":833,"x_min":47,"x_max":786,"o":"m 417 -17 q 224 36 307 -17 q 94 194 140 89 q 47 456 47 299 q 94 712 47 608 q 224 867 140 815 q 417 919 307 919 q 610 867 526 919 q 740 712 693 815 q 786 456 786 608 q 740 194 786 299 q 610 36 693 89 q 417 -17 526 -17 m 417 189 q 508 255 475 189 q 542 456 542 321 q 508 649 542 585 q 417 714 475 714 q 325 649 358 714 q 292 456 292 585 q 325 255 292 321 q 417 189 358 189 m 328 958 l 211 1014 l 356 1242 l 506 1158 l 328 958 m 603 958 l 486 1014 l 631 1242 l 781 1158 l 603 958 z "},"Ŏ":{"ha":833,"x_min":47,"x_max":786,"o":"m 417 -17 q 224 36 307 -17 q 94 194 140 89 q 47 456 47 299 q 94 712 47 608 q 224 867 140 815 q 417 919 307 919 q 610 867 526 919 q 740 712 693 815 q 786 456 786 608 q 740 194 786 299 q 610 36 693 89 q 417 -17 526 -17 m 417 189 q 508 255 475 189 q 542 456 542 321 q 508 649 542 585 q 417 714 475 714 q 325 649 358 714 q 292 456 292 585 q 325 255 292 321 q 417 189 358 189 m 417 964 q 251 1011 311 964 q 181 1158 192 1058 l 308 1181 q 347 1120 318 1140 q 417 1100 375 1100 q 487 1120 458 1100 q 525 1181 515 1140 l 653 1158 q 583 1011 643 1058 q 417 964 524 964 z "},"Ǒ":{"ha":833,"x_min":47,"x_max":786,"o":"m 417 -17 q 224 36 307 -17 q 94 194 140 89 q 47 456 47 299 q 94 712 47 608 q 224 867 140 815 q 417 919 307 919 q 610 867 526 919 q 740 712 693 815 q 786 456 786 608 q 740 194 786 299 q 610 36 693 89 q 417 -17 526 -17 m 417 189 q 508 255 475 189 q 542 456 542 321 q 508 649 542 585 q 417 714 475 714 q 325 649 358 714 q 292 456 292 585 q 325 255 292 321 q 417 189 358 189 m 286 972 l 169 1125 l 272 1186 l 414 1075 l 419 1075 l 561 1186 l 664 1125 l 547 972 l 286 972 z "},"Ǫ":{"ha":833,"x_min":47,"x_max":786,"o":"m 450 -317 q 330 -281 379 -317 q 281 -181 281 -244 q 310 -81 281 -124 q 369 -14 340 -39 q 188 68 260 1 q 82 235 117 135 q 47 456 47 336 q 94 708 47 604 q 224 865 140 811 q 417 919 307 919 q 610 865 526 919 q 740 708 693 811 q 786 456 786 604 q 719 163 786 271 q 544 6 653 54 q 473 -51 493 -17 q 453 -117 453 -86 q 470 -153 453 -142 q 508 -164 488 -164 q 533 -157 521 -164 q 556 -144 546 -150 l 608 -264 q 535 -301 579 -286 q 450 -317 490 -317 m 417 183 q 508 247 475 183 q 542 456 542 310 q 508 649 542 585 q 417 714 475 714 q 325 649 358 714 q 292 456 292 585 q 325 247 292 310 q 417 183 358 183 z "},"Ọ":{"ha":833,"x_min":47,"x_max":786,"o":"m 417 -17 q 224 36 307 -17 q 94 194 140 89 q 47 456 47 299 q 94 712 47 608 q 224 867 140 815 q 417 919 307 919 q 610 867 526 919 q 740 712 693 815 q 786 456 786 608 q 740 194 786 299 q 610 36 693 89 q 417 -17 526 -17 m 417 189 q 508 255 475 189 q 542 456 542 321 q 508 649 542 585 q 417 714 475 714 q 325 649 358 714 q 292 456 292 585 q 325 255 292 321 q 417 189 358 189 z "},"Ỏ":{"ha":833,"x_min":47,"x_max":786,"o":"m 417 -17 q 224 36 307 -17 q 94 194 140 89 q 47 456 47 299 q 94 712 47 608 q 224 867 140 815 q 417 919 307 919 q 610 867 526 919 q 740 712 693 815 q 786 456 786 608 q 740 194 786 299 q 610 36 693 89 q 417 -17 526 -17 m 417 189 q 508 255 475 189 q 542 456 542 321 q 508 649 542 585 q 417 714 475 714 q 325 649 358 714 q 292 456 292 585 q 325 255 292 321 q 417 189 358 189 m 350 956 l 333 1047 q 373 1057 357 1050 q 389 1081 389 1064 q 365 1108 389 1097 q 281 1122 342 1118 l 308 1239 q 459 1219 404 1236 q 536 1172 514 1201 q 558 1106 558 1143 q 530 1024 558 1056 q 454 975 501 992 q 350 956 407 958 z "},"Ố":{"ha":833,"x_min":47,"x_max":792,"o":"m 417 -17 q 224 36 307 -17 q 94 194 140 89 q 47 456 47 299 q 94 712 47 608 q 224 867 140 815 q 417 919 307 919 q 610 867 526 919 q 740 712 693 815 q 786 456 786 608 q 740 194 786 299 q 610 36 693 89 q 417 -17 526 -17 m 417 189 q 508 255 475 189 q 542 456 542 321 q 508 649 542 585 q 417 714 475 714 q 325 649 358 714 q 292 456 292 585 q 325 255 292 321 q 417 189 358 189 m 286 944 l 192 1006 l 314 1150 l 519 1150 l 642 1006 l 547 944 l 419 1044 l 414 1044 l 286 944 m 644 1053 l 575 1131 l 717 1247 l 792 1153 l 644 1053 z "},"Ồ":{"ha":833,"x_min":42,"x_max":786,"o":"m 417 -17 q 224 36 307 -17 q 94 194 140 89 q 47 456 47 299 q 94 712 47 608 q 224 867 140 815 q 417 919 307 919 q 610 867 526 919 q 740 712 693 815 q 786 456 786 608 q 740 194 786 299 q 610 36 693 89 q 417 -17 526 -17 m 417 189 q 508 255 475 189 q 542 456 542 321 q 508 649 542 585 q 417 714 475 714 q 325 649 358 714 q 292 456 292 585 q 325 255 292 321 q 417 189 358 189 m 286 944 l 192 1006 l 314 1150 l 519 1150 l 642 1006 l 547 944 l 419 1044 l 414 1044 l 286 944 m 189 1053 l 42 1153 l 117 1247 l 258 1131 l 189 1053 z "},"Ổ":{"ha":833,"x_min":47,"x_max":792,"o":"m 417 -17 q 224 36 307 -17 q 94 194 140 89 q 47 456 47 299 q 94 712 47 608 q 224 867 140 815 q 417 919 307 919 q 610 867 526 919 q 740 712 693 815 q 786 456 786 608 q 740 194 786 299 q 610 36 693 89 q 417 -17 526 -17 m 417 189 q 508 255 475 189 q 542 456 542 321 q 508 649 542 585 q 417 714 475 714 q 325 649 358 714 q 292 456 292 585 q 325 255 292 321 q 417 189 358 189 m 286 944 l 192 1006 l 314 1150 l 519 1150 l 642 1006 l 547 944 l 419 1044 l 414 1044 l 286 944 m 619 1039 l 603 1111 q 631 1121 619 1114 q 642 1144 642 1128 q 624 1172 642 1161 q 553 1186 606 1182 l 575 1281 q 707 1262 660 1278 q 773 1220 754 1246 q 792 1164 792 1194 q 742 1072 792 1100 q 619 1039 693 1043 z "},"Ỗ":{"ha":833,"x_min":47,"x_max":786,"o":"m 417 -17 q 224 36 307 -17 q 94 194 140 89 q 47 456 47 299 q 94 712 47 608 q 224 867 140 815 q 417 919 307 919 q 610 867 526 919 q 740 712 693 815 q 786 456 786 608 q 740 194 786 299 q 610 36 693 89 q 417 -17 526 -17 m 417 189 q 508 255 475 189 q 542 456 542 321 q 508 649 542 585 q 417 714 475 714 q 325 649 358 714 q 292 456 292 585 q 325 255 292 321 q 417 189 358 189 m 286 944 l 192 1006 l 314 1136 l 519 1136 l 642 1006 l 547 944 l 419 1031 l 414 1031 l 286 944 m 497 1164 q 435 1178 461 1164 q 388 1208 408 1193 q 353 1222 368 1222 q 311 1172 319 1222 l 200 1186 q 241 1313 204 1275 q 336 1350 278 1350 q 399 1335 372 1350 q 446 1306 426 1321 q 481 1292 465 1292 q 522 1342 514 1292 l 633 1328 q 592 1201 629 1239 q 497 1164 556 1164 z "},"Ộ":{"ha":833,"x_min":47,"x_max":786,"o":"m 417 -17 q 224 36 307 -17 q 94 194 140 89 q 47 456 47 299 q 94 712 47 608 q 224 867 140 815 q 417 919 307 919 q 610 867 526 919 q 740 712 693 815 q 786 456 786 608 q 740 194 786 299 q 610 36 693 89 q 417 -17 526 -17 m 417 189 q 508 255 475 189 q 542 456 542 321 q 508 649 542 585 q 417 714 475 714 q 325 649 358 714 q 292 456 292 585 q 325 255 292 321 q 417 189 358 189 m 272 944 l 169 1006 l 286 1158 l 547 1158 l 664 1006 l 561 944 l 419 1056 l 414 1056 l 272 944 z "},"Ơ":{"ha":833,"x_min":47,"x_max":844,"o":"m 678 808 q 758 662 729 750 q 786 456 786 574 q 740 194 786 299 q 610 36 693 89 q 417 -17 526 -17 q 224 36 307 -17 q 94 194 140 89 q 47 456 47 299 q 94 712 47 608 q 224 867 140 815 q 417 919 307 919 q 578 885 508 919 q 630 924 613 899 q 647 1000 647 950 q 640 1054 647 1029 q 625 1094 632 1079 l 800 1164 q 831 1102 817 1142 q 844 1017 844 1063 q 805 884 844 936 q 678 808 765 832 m 417 189 q 508 255 475 189 q 542 456 542 321 q 508 649 542 585 q 417 714 475 714 q 325 649 358 714 q 292 456 292 585 q 325 255 292 321 q 417 189 358 189 z "},"Ớ":{"ha":833,"x_min":47,"x_max":844,"o":"m 678 808 q 758 662 729 750 q 786 456 786 574 q 740 194 786 299 q 610 36 693 89 q 417 -17 526 -17 q 224 36 307 -17 q 94 194 140 89 q 47 456 47 299 q 94 712 47 608 q 224 867 140 815 q 417 919 307 919 q 578 885 508 919 q 630 924 613 899 q 647 1000 647 950 q 640 1054 647 1029 q 625 1094 632 1079 l 800 1164 q 831 1102 817 1142 q 844 1017 844 1063 q 805 884 844 936 q 678 808 765 832 m 417 189 q 508 255 475 189 q 542 456 542 321 q 508 649 542 585 q 417 714 475 714 q 325 649 358 714 q 292 456 292 585 q 325 255 292 321 q 417 189 358 189 m 361 936 l 256 1056 l 508 1256 l 633 1103 l 361 936 z "},"Ờ":{"ha":833,"x_min":47,"x_max":844,"o":"m 678 808 q 758 662 729 750 q 786 456 786 574 q 740 194 786 299 q 610 36 693 89 q 417 -17 526 -17 q 224 36 307 -17 q 94 194 140 89 q 47 456 47 299 q 94 712 47 608 q 224 867 140 815 q 417 919 307 919 q 578 885 508 919 q 630 924 613 899 q 647 1000 647 950 q 640 1054 647 1029 q 625 1094 632 1079 l 800 1164 q 831 1102 817 1142 q 844 1017 844 1063 q 805 884 844 936 q 678 808 765 832 m 417 189 q 508 255 475 189 q 542 456 542 321 q 508 649 542 585 q 417 714 475 714 q 325 649 358 714 q 292 456 292 585 q 325 255 292 321 q 417 189 358 189 m 472 936 l 200 1103 l 325 1256 l 578 1056 l 472 936 z "},"Ở":{"ha":833,"x_min":47,"x_max":844,"o":"m 678 808 q 758 662 729 750 q 786 456 786 574 q 740 194 786 299 q 610 36 693 89 q 417 -17 526 -17 q 224 36 307 -17 q 94 194 140 89 q 47 456 47 299 q 94 712 47 608 q 224 867 140 815 q 417 919 307 919 q 578 885 508 919 q 630 924 613 899 q 647 1000 647 950 q 640 1054 647 1029 q 625 1094 632 1079 l 800 1164 q 831 1102 817 1142 q 844 1017 844 1063 q 805 884 844 936 q 678 808 765 832 m 417 189 q 508 255 475 189 q 542 456 542 321 q 508 649 542 585 q 417 714 475 714 q 325 649 358 714 q 292 456 292 585 q 325 255 292 321 q 417 189 358 189 m 350 956 l 333 1047 q 373 1057 357 1050 q 389 1081 389 1064 q 365 1108 389 1097 q 281 1122 342 1118 l 308 1239 q 459 1219 404 1236 q 536 1172 514 1201 q 558 1106 558 1143 q 530 1024 558 1056 q 454 975 501 992 q 350 956 407 958 z "},"Ỡ":{"ha":833,"x_min":47,"x_max":844,"o":"m 678 808 q 758 662 729 750 q 786 456 786 574 q 740 194 786 299 q 610 36 693 89 q 417 -17 526 -17 q 224 36 307 -17 q 94 194 140 89 q 47 456 47 299 q 94 712 47 608 q 224 867 140 815 q 417 919 307 919 q 578 885 508 919 q 630 924 613 899 q 647 1000 647 950 q 640 1054 647 1029 q 625 1094 632 1079 l 800 1164 q 831 1102 817 1142 q 844 1017 844 1063 q 805 884 844 936 q 678 808 765 832 m 417 189 q 508 255 475 189 q 542 456 542 321 q 508 649 542 585 q 417 714 475 714 q 325 649 358 714 q 292 456 292 585 q 325 255 292 321 q 417 189 358 189 m 486 953 q 403 971 438 953 q 344 1007 369 989 q 300 1025 319 1025 q 272 1014 283 1025 q 256 967 260 1003 l 103 978 q 163 1141 110 1093 q 292 1189 215 1189 q 375 1171 340 1189 q 434 1135 410 1153 q 478 1117 458 1117 q 506 1128 494 1117 q 522 1175 518 1140 l 675 1164 q 616 1001 669 1050 q 486 953 563 953 z "},"Ợ":{"ha":833,"x_min":47,"x_max":844,"o":"m 678 808 q 758 662 729 750 q 786 456 786 574 q 740 194 786 299 q 610 36 693 89 q 417 -17 526 -17 q 224 36 307 -17 q 94 194 140 89 q 47 456 47 299 q 94 712 47 608 q 224 867 140 815 q 417 919 307 919 q 578 885 508 919 q 630 924 613 899 q 647 1000 647 950 q 640 1054 647 1029 q 625 1094 632 1079 l 800 1164 q 831 1102 817 1142 q 844 1017 844 1063 q 805 884 844 936 q 678 808 765 832 m 417 189 q 508 255 475 189 q 542 456 542 321 q 508 649 542 585 q 417 714 475 714 q 325 649 358 714 q 292 456 292 585 q 325 255 292 321 q 417 189 358 189 z "},"Ṓ":{"ha":833,"x_min":47,"x_max":786,"o":"m 417 -17 q 224 36 307 -17 q 94 194 140 89 q 47 456 47 299 q 94 712 47 608 q 224 867 140 815 q 417 919 307 919 q 610 867 526 919 q 740 712 693 815 q 786 456 786 608 q 740 194 786 299 q 610 36 693 89 q 417 -17 526 -17 m 417 189 q 508 255 475 189 q 542 456 542 321 q 508 649 542 585 q 417 714 475 714 q 325 649 358 714 q 292 456 292 585 q 325 255 292 321 q 417 189 358 189 m 197 994 l 197 1144 l 636 1144 l 636 994 l 197 994 m 367 1161 l 289 1269 l 522 1419 l 617 1289 l 367 1161 z "},"Ø":{"ha":833,"x_min":17,"x_max":817,"o":"m 17 17 l 114 154 q 65 287 82 211 q 47 456 47 363 q 94 712 47 608 q 224 867 140 815 q 417 919 307 919 q 618 863 532 919 l 692 967 l 817 886 l 719 750 q 769 621 751 694 q 786 456 786 547 q 740 194 786 299 q 610 36 693 89 q 417 -17 526 -17 q 217 40 301 -17 l 142 -64 l 17 17 m 292 456 q 292 429 292 442 q 293 406 292 417 l 488 681 q 417 714 461 714 q 325 649 358 714 q 292 456 292 585 m 417 189 q 508 255 475 189 q 542 456 542 321 q 542 477 542 467 q 540 497 542 488 l 346 222 q 417 189 375 189 z "},"Ǿ":{"ha":833,"x_min":17,"x_max":817,"o":"m 17 17 l 114 154 q 65 287 82 211 q 47 456 47 363 q 94 712 47 608 q 224 867 140 815 q 417 919 307 919 q 618 863 532 919 l 692 967 l 817 886 l 719 750 q 769 621 751 694 q 786 456 786 547 q 740 194 786 299 q 610 36 693 89 q 417 -17 526 -17 q 217 40 301 -17 l 142 -64 l 17 17 m 292 456 q 292 429 292 442 q 293 406 292 417 l 488 681 q 417 714 461 714 q 325 649 358 714 q 292 456 292 585 m 417 189 q 508 255 475 189 q 542 456 542 321 q 542 477 542 467 q 540 497 542 488 l 346 222 q 417 189 375 189 m 361 936 l 256 1056 l 508 1256 l 633 1103 l 361 936 z "},"Œ":{"ha":833,"x_min":19,"x_max":828,"o":"m 394 0 q 205 47 290 0 q 69 195 119 94 q 19 456 19 296 q 72 714 19 615 q 212 858 124 813 q 408 903 300 903 l 814 903 l 814 703 l 611 703 l 611 561 l 764 561 l 764 361 l 611 361 l 611 200 l 828 200 l 828 0 l 394 0 m 381 192 l 400 192 l 400 711 l 381 711 q 321 692 347 711 q 279 617 294 672 q 264 456 264 563 q 279 292 264 349 q 321 213 294 235 q 381 192 347 192 z "},"Ŕ":{"ha":833,"x_min":81,"x_max":828,"o":"m 81 0 l 81 903 l 417 903 q 596 877 514 903 q 728 788 678 851 q 778 611 778 724 q 738 450 778 514 q 632 350 697 386 l 828 0 l 561 0 l 406 303 l 319 303 l 319 0 l 81 0 m 319 492 l 400 492 q 544 611 544 492 q 508 692 544 669 q 400 714 471 714 l 319 714 l 319 492 m 361 936 l 256 1056 l 508 1256 l 633 1103 l 361 936 z "},"Ř":{"ha":833,"x_min":81,"x_max":828,"o":"m 81 0 l 81 903 l 417 903 q 596 877 514 903 q 728 788 678 851 q 778 611 778 724 q 738 450 778 514 q 632 350 697 386 l 828 0 l 561 0 l 406 303 l 319 303 l 319 0 l 81 0 m 319 492 l 400 492 q 544 611 544 492 q 508 692 544 669 q 400 714 471 714 l 319 714 l 319 492 m 286 972 l 169 1125 l 272 1186 l 414 1075 l 419 1075 l 561 1186 l 664 1125 l 547 972 l 286 972 z "},"Ṙ":{"ha":833,"x_min":81,"x_max":828,"o":"m 81 0 l 81 903 l 417 903 q 596 877 514 903 q 728 788 678 851 q 778 611 778 724 q 738 450 778 514 q 632 350 697 386 l 828 0 l 561 0 l 406 303 l 319 303 l 319 0 l 81 0 m 319 492 l 400 492 q 544 611 544 492 q 508 692 544 669 q 400 714 471 714 l 319 714 l 319 492 m 417 967 q 315 1003 354 967 q 275 1097 275 1039 q 315 1192 275 1156 q 417 1228 354 1228 q 519 1192 479 1228 q 558 1097 558 1156 q 519 1003 558 1039 q 417 967 479 967 z "},"Ŗ":{"ha":833,"x_min":81,"x_max":828,"o":"m 81 0 l 81 903 l 417 903 q 596 877 514 903 q 728 788 678 851 q 778 611 778 724 q 738 450 778 514 q 632 350 697 386 l 828 0 l 561 0 l 406 303 l 319 303 l 319 0 l 81 0 m 319 492 l 400 492 q 544 611 544 492 q 508 692 544 669 q 400 714 471 714 l 319 714 l 319 492 m 294 -339 l 278 -247 q 387 -231 357 -243 q 417 -197 417 -219 q 398 -169 417 -181 q 333 -153 379 -157 l 378 -69 q 542 -107 497 -78 q 586 -189 586 -136 q 509 -299 586 -264 q 294 -339 432 -335 z "},"Ṛ":{"ha":833,"x_min":81,"x_max":828,"o":"m 81 0 l 81 903 l 417 903 q 596 877 514 903 q 728 788 678 851 q 778 611 778 724 q 738 450 778 514 q 632 350 697 386 l 828 0 l 561 0 l 406 303 l 319 303 l 319 0 l 81 0 m 319 492 l 400 492 q 544 611 544 492 q 508 692 544 669 q 400 714 471 714 l 319 714 l 319 492 z "},"Ṝ":{"ha":833,"x_min":81,"x_max":828,"o":"m 81 0 l 81 903 l 417 903 q 596 877 514 903 q 728 788 678 851 q 778 611 778 724 q 738 450 778 514 q 632 350 697 386 l 828 0 l 561 0 l 406 303 l 319 303 l 319 0 l 81 0 m 319 492 l 400 492 q 544 611 544 492 q 508 692 544 669 q 400 714 471 714 l 319 714 l 319 492 m 197 994 l 197 1144 l 636 1144 l 636 994 l 197 994 z "},"Ṟ":{"ha":833,"x_min":81,"x_max":828,"o":"m 81 0 l 81 903 l 417 903 q 596 877 514 903 q 728 788 678 851 q 778 611 778 724 q 738 450 778 514 q 632 350 697 386 l 828 0 l 561 0 l 406 303 l 319 303 l 319 0 l 81 0 m 319 492 l 400 492 q 544 611 544 492 q 508 692 544 669 q 400 714 471 714 l 319 714 l 319 492 z "},"Ś":{"ha":833,"x_min":61,"x_max":772,"o":"m 411 -17 q 230 15 322 -17 q 61 113 138 47 l 197 276 q 308 213 249 238 q 428 189 367 189 q 505 204 482 189 q 528 242 528 219 q 494 298 528 282 q 397 340 460 314 l 285 388 q 151 479 207 417 q 94 639 94 542 q 138 780 94 717 q 258 881 181 843 q 439 919 336 919 q 601 890 519 919 q 747 799 682 860 l 628 649 q 535 697 579 681 q 425 714 490 714 q 361 699 386 714 q 336 653 336 685 q 373 605 336 622 q 478 563 410 588 l 582 519 q 722 426 672 486 q 772 272 772 367 q 731 130 772 196 q 608 24 689 64 q 411 -17 528 -17 m 389 936 l 283 1056 l 536 1256 l 661 1103 l 389 936 z "},"Ŝ":{"ha":833,"x_min":61,"x_max":772,"o":"m 411 -17 q 230 15 322 -17 q 61 113 138 47 l 197 276 q 308 213 249 238 q 428 189 367 189 q 505 204 482 189 q 528 242 528 219 q 494 298 528 282 q 397 340 460 314 l 285 388 q 151 479 207 417 q 94 639 94 542 q 138 780 94 717 q 258 881 181 843 q 439 919 336 919 q 601 890 519 919 q 747 799 682 860 l 628 649 q 535 697 579 681 q 425 714 490 714 q 361 699 386 714 q 336 653 336 685 q 373 605 336 622 q 478 563 410 588 l 582 519 q 722 426 672 486 q 772 272 772 367 q 731 130 772 196 q 608 24 689 64 q 411 -17 528 -17 m 300 944 l 197 1006 l 314 1158 l 575 1158 l 692 1006 l 589 944 l 447 1056 l 442 1056 l 300 944 z "},"Š":{"ha":833,"x_min":61,"x_max":772,"o":"m 411 -17 q 230 15 322 -17 q 61 113 138 47 l 197 276 q 308 213 249 238 q 428 189 367 189 q 505 204 482 189 q 528 242 528 219 q 494 298 528 282 q 397 340 460 314 l 285 388 q 151 479 207 417 q 94 639 94 542 q 138 780 94 717 q 258 881 181 843 q 439 919 336 919 q 601 890 519 919 q 747 799 682 860 l 628 649 q 535 697 579 681 q 425 714 490 714 q 361 699 386 714 q 336 653 336 685 q 373 605 336 622 q 478 563 410 588 l 582 519 q 722 426 672 486 q 772 272 772 367 q 731 130 772 196 q 608 24 689 64 q 411 -17 528 -17 m 314 972 l 197 1125 l 300 1186 l 442 1075 l 447 1075 l 589 1186 l 692 1125 l 575 972 l 314 972 z "},"Ṧ":{"ha":833,"x_min":61,"x_max":772,"o":"m 411 -17 q 230 15 322 -17 q 61 113 138 47 l 197 276 q 308 213 249 238 q 428 189 367 189 q 505 204 482 189 q 528 242 528 219 q 494 298 528 282 q 397 340 460 314 l 285 388 q 151 479 207 417 q 94 639 94 542 q 138 780 94 717 q 258 881 181 843 q 439 919 336 919 q 601 890 519 919 q 747 799 682 860 l 628 649 q 535 697 579 681 q 425 714 490 714 q 361 699 386 714 q 336 653 336 685 q 373 605 336 622 q 478 563 410 588 l 582 519 q 722 426 672 486 q 772 272 772 367 q 731 130 772 196 q 608 24 689 64 q 411 -17 528 -17 m 444 1133 q 361 1164 394 1133 q 328 1244 328 1194 q 361 1326 328 1294 q 444 1358 394 1358 q 528 1326 494 1358 q 561 1244 561 1294 q 528 1164 561 1194 q 444 1133 494 1133 m 314 972 l 183 1111 l 258 1186 l 442 1075 l 447 1075 l 631 1186 l 706 1111 l 575 972 l 314 972 z "},"Ş":{"ha":833,"x_min":61,"x_max":772,"o":"m 411 -17 q 230 15 322 -17 q 61 113 138 47 l 197 276 q 308 213 249 238 q 428 189 367 189 q 505 204 482 189 q 528 242 528 219 q 494 298 528 282 q 397 340 460 314 l 285 388 q 151 479 207 417 q 94 639 94 542 q 138 780 94 717 q 258 881 181 843 q 439 919 336 919 q 601 890 519 919 q 747 799 682 860 l 628 649 q 535 697 579 681 q 425 714 490 714 q 361 699 386 714 q 336 653 336 685 q 373 605 336 622 q 478 563 410 588 l 582 519 q 722 426 672 486 q 772 272 772 367 q 731 130 772 196 q 608 24 689 64 q 411 -17 528 -17 m 267 -339 l 250 -247 q 359 -231 329 -243 q 389 -189 389 -218 q 369 -156 389 -169 q 283 -133 349 -142 l 358 17 l 494 17 l 450 -83 q 531 -120 504 -96 q 558 -189 558 -144 q 481 -299 558 -264 q 267 -339 404 -335 z "},"Ș":{"ha":833,"x_min":61,"x_max":772,"o":"m 411 -17 q 230 15 322 -17 q 61 113 138 47 l 197 276 q 308 213 249 238 q 428 189 367 189 q 505 204 482 189 q 528 242 528 219 q 494 298 528 282 q 397 340 460 314 l 285 388 q 151 479 207 417 q 94 639 94 542 q 138 780 94 717 q 258 881 181 843 q 439 919 336 919 q 601 890 519 919 q 747 799 682 860 l 628 649 q 535 697 579 681 q 425 714 490 714 q 361 699 386 714 q 336 653 336 685 q 373 605 336 622 q 478 563 410 588 l 582 519 q 722 426 672 486 q 772 272 772 367 q 731 130 772 196 q 608 24 689 64 q 411 -17 528 -17 m 267 -339 l 250 -247 q 359 -231 329 -243 q 389 -197 389 -219 q 370 -169 389 -181 q 306 -153 351 -157 l 350 -69 q 514 -107 469 -78 q 558 -189 558 -136 q 481 -299 558 -264 q 267 -339 404 -335 z "},"Ṡ":{"ha":833,"x_min":61,"x_max":772,"o":"m 411 -17 q 230 15 322 -17 q 61 113 138 47 l 197 276 q 308 213 249 238 q 428 189 367 189 q 505 204 482 189 q 528 242 528 219 q 494 298 528 282 q 397 340 460 314 l 285 388 q 151 479 207 417 q 94 639 94 542 q 138 780 94 717 q 258 881 181 843 q 439 919 336 919 q 601 890 519 919 q 747 799 682 860 l 628 649 q 535 697 579 681 q 425 714 490 714 q 361 699 386 714 q 336 653 336 685 q 373 605 336 622 q 478 563 410 588 l 582 519 q 722 426 672 486 q 772 272 772 367 q 731 130 772 196 q 608 24 689 64 q 411 -17 528 -17 m 444 967 q 342 1003 382 967 q 303 1097 303 1039 q 342 1192 303 1156 q 444 1228 382 1228 q 547 1192 507 1228 q 586 1097 586 1156 q 547 1003 586 1039 q 444 967 507 967 z "},"Ṣ":{"ha":833,"x_min":61,"x_max":772,"o":"m 411 -17 q 230 15 322 -17 q 61 113 138 47 l 197 276 q 308 213 249 238 q 428 189 367 189 q 505 204 482 189 q 528 242 528 219 q 494 298 528 282 q 397 340 460 314 l 285 388 q 151 479 207 417 q 94 639 94 542 q 138 780 94 717 q 258 881 181 843 q 439 919 336 919 q 601 890 519 919 q 747 799 682 860 l 628 649 q 535 697 579 681 q 425 714 490 714 q 361 699 386 714 q 336 653 336 685 q 373 605 336 622 q 478 563 410 588 l 582 519 q 722 426 672 486 q 772 272 772 367 q 731 130 772 196 q 608 24 689 64 q 411 -17 528 -17 z "},"ẞ":{"ha":833,"x_min":81,"x_max":811,"o":"m 547 -17 q 425 8 479 -17 q 339 67 371 32 l 433 211 q 514 175 469 175 q 549 192 533 175 q 564 239 564 210 q 531 310 564 276 q 428 364 497 343 l 411 500 l 510 657 q 476 713 501 697 q 419 728 450 728 q 319 575 319 728 l 319 0 l 81 0 l 81 606 q 115 765 81 694 q 223 878 149 836 q 417 919 297 919 q 634 845 549 919 q 744 650 719 771 l 651 499 q 773 383 735 443 q 811 236 811 324 q 784 108 811 165 q 699 17 757 51 q 547 -17 640 -17 z "},"Ť":{"ha":833,"x_min":38,"x_max":796,"o":"m 297 0 l 297 703 l 38 703 l 38 903 l 796 903 l 796 703 l 536 703 l 536 0 l 297 0 m 286 972 l 169 1125 l 272 1186 l 414 1075 l 419 1075 l 561 1186 l 664 1125 l 547 972 l 286 972 z "},"Ţ":{"ha":833,"x_min":38,"x_max":796,"o":"m 297 0 l 297 703 l 38 703 l 38 903 l 796 903 l 796 703 l 536 703 l 536 0 l 297 0 m 267 -339 l 250 -247 q 359 -231 329 -243 q 389 -189 389 -218 q 369 -156 389 -169 q 283 -133 349 -142 l 358 17 l 494 17 l 450 -83 q 531 -120 504 -96 q 558 -189 558 -144 q 481 -299 558 -264 q 267 -339 404 -335 z "},"Ț":{"ha":833,"x_min":38,"x_max":796,"o":"m 297 0 l 297 703 l 38 703 l 38 903 l 796 903 l 796 703 l 536 703 l 536 0 l 297 0 m 267 -339 l 250 -247 q 359 -231 329 -243 q 389 -197 389 -219 q 370 -169 389 -181 q 306 -153 351 -157 l 350 -69 q 514 -107 469 -78 q 558 -189 558 -136 q 481 -299 558 -264 q 267 -339 404 -335 z "},"Ṭ":{"ha":833,"x_min":38,"x_max":796,"o":"m 297 0 l 297 703 l 38 703 l 38 903 l 796 903 l 796 703 l 536 703 l 536 0 l 297 0 z "},"Ṯ":{"ha":833,"x_min":38,"x_max":796,"o":"m 297 0 l 297 703 l 38 703 l 38 903 l 796 903 l 796 703 l 536 703 l 536 0 l 297 0 z "},"Ŧ":{"ha":833,"x_min":38,"x_max":796,"o":"m 297 0 l 297 381 l 117 381 l 117 483 l 250 492 l 297 492 l 297 703 l 38 703 l 38 903 l 796 903 l 796 703 l 536 703 l 536 492 l 717 492 l 717 381 l 536 381 l 536 0 l 297 0 z "},"Ù":{"ha":833,"x_min":81,"x_max":753,"o":"m 419 -17 q 162 83 243 -17 q 81 350 81 182 l 81 903 l 319 903 l 319 322 q 341 226 319 264 q 419 189 363 189 q 499 226 476 189 q 522 322 522 264 l 522 903 l 753 903 l 753 350 q 675 83 753 182 q 419 -17 597 -17 m 472 936 l 200 1103 l 325 1256 l 578 1056 l 472 936 z "},"Ú":{"ha":833,"x_min":81,"x_max":753,"o":"m 419 -17 q 162 83 243 -17 q 81 350 81 182 l 81 903 l 319 903 l 319 322 q 341 226 319 264 q 419 189 363 189 q 499 226 476 189 q 522 322 522 264 l 522 903 l 753 903 l 753 350 q 675 83 753 182 q 419 -17 597 -17 m 361 936 l 256 1056 l 508 1256 l 633 1103 l 361 936 z "},"Û":{"ha":833,"x_min":81,"x_max":753,"o":"m 419 -17 q 162 83 243 -17 q 81 350 81 182 l 81 903 l 319 903 l 319 322 q 341 226 319 264 q 419 189 363 189 q 499 226 476 189 q 522 322 522 264 l 522 903 l 753 903 l 753 350 q 675 83 753 182 q 419 -17 597 -17 m 272 944 l 169 1006 l 286 1158 l 547 1158 l 664 1006 l 561 944 l 419 1056 l 414 1056 l 272 944 z "},"Ũ":{"ha":833,"x_min":81,"x_max":753,"o":"m 419 -17 q 162 83 243 -17 q 81 350 81 182 l 81 903 l 319 903 l 319 322 q 341 226 319 264 q 419 189 363 189 q 499 226 476 189 q 522 322 522 264 l 522 903 l 753 903 l 753 350 q 675 83 753 182 q 419 -17 597 -17 m 514 953 q 431 971 465 953 q 372 1007 397 989 q 328 1025 347 1025 q 299 1014 311 1025 q 283 967 288 1003 l 131 978 q 190 1141 138 1093 q 319 1189 243 1189 q 403 1171 368 1189 q 462 1135 438 1153 q 506 1117 486 1117 q 534 1128 522 1117 q 550 1175 546 1140 l 703 1164 q 644 1001 697 1050 q 514 953 590 953 z "},"Ü":{"ha":833,"x_min":81,"x_max":753,"o":"m 419 -17 q 162 83 243 -17 q 81 350 81 182 l 81 903 l 319 903 l 319 322 q 341 226 319 264 q 419 189 363 189 q 499 226 476 189 q 522 322 522 264 l 522 903 l 753 903 l 753 350 q 675 83 753 182 q 419 -17 597 -17 m 253 964 q 171 997 203 964 q 139 1078 139 1031 q 171 1159 139 1126 q 253 1192 203 1192 q 335 1159 303 1192 q 367 1078 367 1126 q 335 997 367 1031 q 253 964 303 964 m 581 964 q 499 997 531 964 q 467 1078 467 1031 q 499 1159 467 1126 q 581 1192 531 1192 q 663 1159 631 1192 q 694 1078 694 1126 q 663 997 694 1031 q 581 964 631 964 z "},"Ū":{"ha":833,"x_min":81,"x_max":753,"o":"m 419 -17 q 162 83 243 -17 q 81 350 81 182 l 81 903 l 319 903 l 319 322 q 341 226 319 264 q 419 189 363 189 q 499 226 476 189 q 522 322 522 264 l 522 903 l 753 903 l 753 350 q 675 83 753 182 q 419 -17 597 -17 m 197 994 l 197 1144 l 636 1144 l 636 994 l 197 994 z "},"Ŭ":{"ha":833,"x_min":81,"x_max":753,"o":"m 419 -17 q 162 83 243 -17 q 81 350 81 182 l 81 903 l 319 903 l 319 322 q 341 226 319 264 q 419 189 363 189 q 499 226 476 189 q 522 322 522 264 l 522 903 l 753 903 l 753 350 q 675 83 753 182 q 419 -17 597 -17 m 417 964 q 251 1011 311 964 q 181 1158 192 1058 l 308 1181 q 347 1120 318 1140 q 417 1100 375 1100 q 487 1120 458 1100 q 525 1181 515 1140 l 653 1158 q 583 1011 643 1058 q 417 964 524 964 z "},"Ů":{"ha":833,"x_min":81,"x_max":753,"o":"m 419 -17 q 162 83 243 -17 q 81 350 81 182 l 81 903 l 319 903 l 319 322 q 341 226 319 264 q 419 189 363 189 q 499 226 476 189 q 522 322 522 264 l 522 903 l 753 903 l 753 350 q 675 83 753 182 q 419 -17 597 -17 m 417 967 q 296 1006 342 967 q 250 1108 250 1044 q 296 1212 250 1174 q 417 1250 342 1250 q 538 1212 492 1250 q 583 1108 583 1174 q 538 1006 583 1044 q 417 967 492 967 m 417 1053 q 454 1068 439 1053 q 469 1108 469 1083 q 454 1149 469 1133 q 417 1164 439 1164 q 379 1149 394 1164 q 364 1108 364 1133 q 379 1068 364 1083 q 417 1053 394 1053 z "},"Ű":{"ha":833,"x_min":81,"x_max":781,"o":"m 419 -17 q 162 83 243 -17 q 81 350 81 182 l 81 903 l 319 903 l 319 322 q 341 226 319 264 q 419 189 363 189 q 499 226 476 189 q 522 322 522 264 l 522 903 l 753 903 l 753 350 q 675 83 753 182 q 419 -17 597 -17 m 328 958 l 211 1014 l 356 1242 l 506 1158 l 328 958 m 603 958 l 486 1014 l 631 1242 l 781 1158 l 603 958 z "},"Ǔ":{"ha":833,"x_min":81,"x_max":753,"o":"m 419 -17 q 162 83 243 -17 q 81 350 81 182 l 81 903 l 319 903 l 319 322 q 341 226 319 264 q 419 189 363 189 q 499 226 476 189 q 522 322 522 264 l 522 903 l 753 903 l 753 350 q 675 83 753 182 q 419 -17 597 -17 m 286 972 l 169 1125 l 272 1186 l 414 1075 l 419 1075 l 561 1186 l 664 1125 l 547 972 l 286 972 z "},"Ų":{"ha":833,"x_min":81,"x_max":753,"o":"m 450 -317 q 330 -281 379 -317 q 281 -181 281 -244 q 299 -102 281 -136 q 338 -45 317 -68 q 369 -14 360 -22 q 152 94 224 -1 q 81 350 81 190 l 81 903 l 319 903 l 319 322 q 341 226 319 264 q 419 189 363 189 q 499 226 476 189 q 522 322 522 264 l 522 903 l 753 903 l 753 350 q 711 142 753 226 q 581 14 669 57 q 498 -35 525 -12 q 462 -78 471 -58 q 453 -117 453 -99 q 470 -153 453 -142 q 508 -164 488 -164 q 533 -157 521 -164 q 556 -144 546 -150 l 608 -264 q 535 -301 579 -286 q 450 -317 490 -317 z "},"Ǖ":{"ha":833,"x_min":81,"x_max":753,"o":"m 419 -17 q 162 83 243 -17 q 81 350 81 182 l 81 903 l 319 903 l 319 322 q 341 226 319 264 q 419 189 363 189 q 499 226 476 189 q 522 322 522 264 l 522 903 l 753 903 l 753 350 q 675 83 753 182 q 419 -17 597 -17 m 258 964 q 190 992 217 964 q 164 1058 164 1019 q 190 1126 164 1099 q 258 1153 217 1153 q 326 1126 300 1153 q 353 1058 353 1099 q 326 992 353 1019 q 258 964 300 964 m 575 964 q 507 992 533 964 q 481 1058 481 1019 q 507 1126 481 1099 q 575 1153 533 1153 q 643 1126 617 1153 q 669 1058 669 1099 q 643 992 669 1019 q 575 964 617 964 m 197 1217 l 197 1325 l 636 1325 l 636 1217 l 197 1217 z "},"Ǘ":{"ha":833,"x_min":81,"x_max":753,"o":"m 419 -17 q 162 83 243 -17 q 81 350 81 182 l 81 903 l 319 903 l 319 322 q 341 226 319 264 q 419 189 363 189 q 499 226 476 189 q 522 322 522 264 l 522 903 l 753 903 l 753 350 q 675 83 753 182 q 419 -17 597 -17 m 258 964 q 190 992 217 964 q 164 1058 164 1019 q 190 1126 164 1099 q 258 1153 217 1153 q 326 1126 300 1153 q 353 1058 353 1099 q 326 992 353 1019 q 258 964 300 964 m 575 964 q 507 992 533 964 q 481 1058 481 1019 q 507 1126 481 1099 q 575 1153 533 1153 q 643 1126 617 1153 q 669 1058 669 1099 q 643 992 669 1019 q 575 964 617 964 m 433 1147 l 331 1208 l 464 1422 l 611 1333 l 433 1147 z "},"Ǚ":{"ha":833,"x_min":81,"x_max":753,"o":"m 419 -17 q 162 83 243 -17 q 81 350 81 182 l 81 903 l 319 903 l 319 322 q 341 226 319 264 q 419 189 363 189 q 499 226 476 189 q 522 322 522 264 l 522 903 l 753 903 l 753 350 q 675 83 753 182 q 419 -17 597 -17 m 258 964 q 190 992 217 964 q 164 1058 164 1019 q 190 1126 164 1099 q 258 1153 217 1153 q 326 1126 300 1153 q 353 1058 353 1099 q 326 992 353 1019 q 258 964 300 964 m 575 964 q 507 992 533 964 q 481 1058 481 1019 q 507 1126 481 1099 q 575 1153 533 1153 q 643 1126 617 1153 q 669 1058 669 1099 q 643 992 669 1019 q 575 964 617 964 m 314 1194 l 192 1339 l 286 1400 l 414 1300 l 419 1300 l 547 1400 l 642 1339 l 519 1194 l 314 1194 z "},"Ǜ":{"ha":833,"x_min":81,"x_max":753,"o":"m 419 -17 q 162 83 243 -17 q 81 350 81 182 l 81 903 l 319 903 l 319 322 q 341 226 319 264 q 419 189 363 189 q 499 226 476 189 q 522 322 522 264 l 522 903 l 753 903 l 753 350 q 675 83 753 182 q 419 -17 597 -17 m 258 964 q 190 992 217 964 q 164 1058 164 1019 q 190 1126 164 1099 q 258 1153 217 1153 q 326 1126 300 1153 q 353 1058 353 1099 q 326 992 353 1019 q 258 964 300 964 m 575 964 q 507 992 533 964 q 481 1058 481 1019 q 507 1126 481 1099 q 575 1153 533 1153 q 643 1126 617 1153 q 669 1058 669 1099 q 643 992 669 1019 q 575 964 617 964 m 400 1147 l 222 1333 l 369 1422 l 503 1208 l 400 1147 z "},"Ụ":{"ha":833,"x_min":81,"x_max":753,"o":"m 419 -17 q 162 83 243 -17 q 81 350 81 182 l 81 903 l 319 903 l 319 322 q 341 226 319 264 q 419 189 363 189 q 499 226 476 189 q 522 322 522 264 l 522 903 l 753 903 l 753 350 q 675 83 753 182 q 419 -17 597 -17 z "},"Ủ":{"ha":833,"x_min":81,"x_max":753,"o":"m 419 -17 q 162 83 243 -17 q 81 350 81 182 l 81 903 l 319 903 l 319 322 q 341 226 319 264 q 419 189 363 189 q 499 226 476 189 q 522 322 522 264 l 522 903 l 753 903 l 753 350 q 675 83 753 182 q 419 -17 597 -17 m 350 956 l 333 1047 q 373 1057 357 1050 q 389 1081 389 1064 q 365 1108 389 1097 q 281 1122 342 1118 l 308 1239 q 459 1219 404 1236 q 536 1172 514 1201 q 558 1106 558 1143 q 530 1024 558 1056 q 454 975 501 992 q 350 956 407 958 z "},"Ư":{"ha":833,"x_min":81,"x_max":933,"o":"m 753 818 l 753 350 q 675 83 753 182 q 419 -17 597 -17 q 162 83 243 -17 q 81 350 81 182 l 81 903 l 319 903 l 319 322 q 341 226 319 264 q 419 189 363 189 q 499 226 476 189 q 522 322 522 264 l 522 903 l 639 903 q 683 909 661 903 q 721 936 706 915 q 736 1000 736 957 q 728 1054 736 1029 q 714 1094 721 1079 l 889 1164 q 919 1102 906 1142 q 933 1017 933 1063 q 887 881 933 929 q 753 818 840 833 z "},"Ứ":{"ha":833,"x_min":81,"x_max":933,"o":"m 753 818 l 753 350 q 675 83 753 182 q 419 -17 597 -17 q 162 83 243 -17 q 81 350 81 182 l 81 903 l 319 903 l 319 322 q 341 226 319 264 q 419 189 363 189 q 499 226 476 189 q 522 322 522 264 l 522 903 l 639 903 q 683 909 661 903 q 721 936 706 915 q 736 1000 736 957 q 728 1054 736 1029 q 714 1094 721 1079 l 889 1164 q 919 1102 906 1142 q 933 1017 933 1063 q 887 881 933 929 q 753 818 840 833 m 361 936 l 256 1056 l 508 1256 l 633 1103 l 361 936 z "},"Ừ":{"ha":833,"x_min":81,"x_max":933,"o":"m 753 818 l 753 350 q 675 83 753 182 q 419 -17 597 -17 q 162 83 243 -17 q 81 350 81 182 l 81 903 l 319 903 l 319 322 q 341 226 319 264 q 419 189 363 189 q 499 226 476 189 q 522 322 522 264 l 522 903 l 639 903 q 683 909 661 903 q 721 936 706 915 q 736 1000 736 957 q 728 1054 736 1029 q 714 1094 721 1079 l 889 1164 q 919 1102 906 1142 q 933 1017 933 1063 q 887 881 933 929 q 753 818 840 833 m 472 936 l 200 1103 l 325 1256 l 578 1056 l 472 936 z "},"Ử":{"ha":833,"x_min":81,"x_max":933,"o":"m 753 818 l 753 350 q 675 83 753 182 q 419 -17 597 -17 q 162 83 243 -17 q 81 350 81 182 l 81 903 l 319 903 l 319 322 q 341 226 319 264 q 419 189 363 189 q 499 226 476 189 q 522 322 522 264 l 522 903 l 639 903 q 683 909 661 903 q 721 936 706 915 q 736 1000 736 957 q 728 1054 736 1029 q 714 1094 721 1079 l 889 1164 q 919 1102 906 1142 q 933 1017 933 1063 q 887 881 933 929 q 753 818 840 833 m 350 956 l 333 1047 q 373 1057 357 1050 q 389 1081 389 1064 q 365 1108 389 1097 q 281 1122 342 1118 l 308 1239 q 459 1219 404 1236 q 536 1172 514 1201 q 558 1106 558 1143 q 530 1024 558 1056 q 454 975 501 992 q 350 956 407 958 z "},"Ữ":{"ha":833,"x_min":81,"x_max":933,"o":"m 753 818 l 753 350 q 675 83 753 182 q 419 -17 597 -17 q 162 83 243 -17 q 81 350 81 182 l 81 903 l 319 903 l 319 322 q 341 226 319 264 q 419 189 363 189 q 499 226 476 189 q 522 322 522 264 l 522 903 l 639 903 q 683 909 661 903 q 721 936 706 915 q 736 1000 736 957 q 728 1054 736 1029 q 714 1094 721 1079 l 889 1164 q 919 1102 906 1142 q 933 1017 933 1063 q 887 881 933 929 q 753 818 840 833 m 514 953 q 431 971 465 953 q 372 1007 397 989 q 328 1025 347 1025 q 299 1014 311 1025 q 283 967 288 1003 l 131 978 q 190 1141 138 1093 q 319 1189 243 1189 q 403 1171 368 1189 q 462 1135 438 1153 q 506 1117 486 1117 q 534 1128 522 1117 q 550 1175 546 1140 l 703 1164 q 644 1001 697 1050 q 514 953 590 953 z "},"Ự":{"ha":833,"x_min":81,"x_max":933,"o":"m 753 818 l 753 350 q 675 83 753 182 q 419 -17 597 -17 q 162 83 243 -17 q 81 350 81 182 l 81 903 l 319 903 l 319 322 q 341 226 319 264 q 419 189 363 189 q 499 226 476 189 q 522 322 522 264 l 522 903 l 639 903 q 683 909 661 903 q 721 936 706 915 q 736 1000 736 957 q 728 1054 736 1029 q 714 1094 721 1079 l 889 1164 q 919 1102 906 1142 q 933 1017 933 1063 q 887 881 933 929 q 753 818 840 833 z "},"Ṿ":{"ha":833,"x_min":6,"x_max":828,"o":"m 272 0 l 6 903 l 258 903 l 353 508 q 387 366 372 436 q 419 222 401 296 l 425 222 q 459 366 444 296 q 492 508 474 436 l 583 903 l 828 903 l 561 0 l 272 0 z "},"Ẁ":{"ha":833,"x_min":3,"x_max":832,"o":"m 115 0 l 3 903 l 247 903 l 258 456 l 258 222 l 264 222 q 285 340 272 281 q 308 456 299 399 l 358 675 l 497 675 l 543 456 q 565 342 553 400 q 588 222 578 283 l 593 222 l 593 456 l 604 903 l 832 903 l 728 0 l 481 0 l 440 247 q 427 338 433 292 q 419 424 421 383 l 415 424 q 407 338 413 383 q 394 247 401 292 l 357 0 l 115 0 m 472 936 l 200 1103 l 325 1256 l 578 1056 l 472 936 z "},"Ẃ":{"ha":833,"x_min":3,"x_max":832,"o":"m 115 0 l 3 903 l 247 903 l 258 456 l 258 222 l 264 222 q 285 340 272 281 q 308 456 299 399 l 358 675 l 497 675 l 543 456 q 565 342 553 400 q 588 222 578 283 l 593 222 l 593 456 l 604 903 l 832 903 l 728 0 l 481 0 l 440 247 q 427 338 433 292 q 419 424 421 383 l 415 424 q 407 338 413 383 q 394 247 401 292 l 357 0 l 115 0 m 361 936 l 256 1056 l 508 1256 l 633 1103 l 361 936 z "},"Ŵ":{"ha":833,"x_min":3,"x_max":832,"o":"m 115 0 l 3 903 l 247 903 l 258 456 l 258 222 l 264 222 q 285 340 272 281 q 308 456 299 399 l 358 675 l 497 675 l 543 456 q 565 342 553 400 q 588 222 578 283 l 593 222 l 593 456 l 604 903 l 832 903 l 728 0 l 481 0 l 440 247 q 427 338 433 292 q 419 424 421 383 l 415 424 q 407 338 413 383 q 394 247 401 292 l 357 0 l 115 0 m 272 944 l 169 1006 l 286 1158 l 547 1158 l 664 1006 l 561 944 l 419 1056 l 414 1056 l 272 944 z "},"Ẅ":{"ha":833,"x_min":3,"x_max":832,"o":"m 115 0 l 3 903 l 247 903 l 258 456 l 258 222 l 264 222 q 285 340 272 281 q 308 456 299 399 l 358 675 l 497 675 l 543 456 q 565 342 553 400 q 588 222 578 283 l 593 222 l 593 456 l 604 903 l 832 903 l 728 0 l 481 0 l 440 247 q 427 338 433 292 q 419 424 421 383 l 415 424 q 407 338 413 383 q 394 247 401 292 l 357 0 l 115 0 m 253 964 q 171 997 203 964 q 139 1078 139 1031 q 171 1159 139 1126 q 253 1192 203 1192 q 335 1159 303 1192 q 367 1078 367 1126 q 335 997 367 1031 q 253 964 303 964 m 581 964 q 499 997 531 964 q 467 1078 467 1031 q 499 1159 467 1126 q 581 1192 531 1192 q 663 1159 631 1192 q 694 1078 694 1126 q 663 997 694 1031 q 581 964 631 964 z "},"Ỳ":{"ha":833,"x_min":11,"x_max":822,"o":"m 297 0 l 297 299 l 11 903 l 267 903 l 342 706 q 378 604 360 654 q 415 500 397 554 l 421 500 q 460 604 440 554 q 497 706 479 654 l 572 903 l 822 903 l 536 299 l 536 0 l 297 0 m 472 936 l 200 1103 l 325 1256 l 578 1056 l 472 936 z "},"Ý":{"ha":833,"x_min":11,"x_max":822,"o":"m 297 0 l 297 299 l 11 903 l 267 903 l 342 706 q 378 604 360 654 q 415 500 397 554 l 421 500 q 460 604 440 554 q 497 706 479 654 l 572 903 l 822 903 l 536 299 l 536 0 l 297 0 m 361 936 l 256 1056 l 508 1256 l 633 1103 l 361 936 z "},"Ŷ":{"ha":833,"x_min":11,"x_max":822,"o":"m 297 0 l 297 299 l 11 903 l 267 903 l 342 706 q 378 604 360 654 q 415 500 397 554 l 421 500 q 460 604 440 554 q 497 706 479 654 l 572 903 l 822 903 l 536 299 l 536 0 l 297 0 m 272 944 l 169 1006 l 286 1158 l 547 1158 l 664 1006 l 561 944 l 419 1056 l 414 1056 l 272 944 z "},"Ÿ":{"ha":833,"x_min":11,"x_max":822,"o":"m 297 0 l 297 299 l 11 903 l 267 903 l 342 706 q 378 604 360 654 q 415 500 397 554 l 421 500 q 460 604 440 554 q 497 706 479 654 l 572 903 l 822 903 l 536 299 l 536 0 l 297 0 m 253 964 q 171 997 203 964 q 139 1078 139 1031 q 171 1159 139 1126 q 253 1192 203 1192 q 335 1159 303 1192 q 367 1078 367 1126 q 335 997 367 1031 q 253 964 303 964 m 581 964 q 499 997 531 964 q 467 1078 467 1031 q 499 1159 467 1126 q 581 1192 531 1192 q 663 1159 631 1192 q 694 1078 694 1126 q 663 997 694 1031 q 581 964 631 964 z "},"Ẏ":{"ha":833,"x_min":11,"x_max":822,"o":"m 297 0 l 297 299 l 11 903 l 267 903 l 342 706 q 378 604 360 654 q 415 500 397 554 l 421 500 q 460 604 440 554 q 497 706 479 654 l 572 903 l 822 903 l 536 299 l 536 0 l 297 0 m 417 967 q 315 1003 354 967 q 275 1097 275 1039 q 315 1192 275 1156 q 417 1228 354 1228 q 519 1192 479 1228 q 558 1097 558 1156 q 519 1003 558 1039 q 417 967 479 967 z "},"Ỵ":{"ha":833,"x_min":11,"x_max":822,"o":"m 297 0 l 297 299 l 11 903 l 267 903 l 342 706 q 378 604 360 654 q 415 500 397 554 l 421 500 q 460 604 440 554 q 497 706 479 654 l 572 903 l 822 903 l 536 299 l 536 0 l 297 0 z "},"Ỷ":{"ha":833,"x_min":11,"x_max":822,"o":"m 297 0 l 297 299 l 11 903 l 267 903 l 342 706 q 378 604 360 654 q 415 500 397 554 l 421 500 q 460 604 440 554 q 497 706 479 654 l 572 903 l 822 903 l 536 299 l 536 0 l 297 0 m 350 956 l 333 1047 q 373 1057 357 1050 q 389 1081 389 1064 q 365 1108 389 1097 q 281 1122 342 1118 l 308 1239 q 459 1219 404 1236 q 536 1172 514 1201 q 558 1106 558 1143 q 530 1024 558 1056 q 454 975 501 992 q 350 956 407 958 z "},"Ỹ":{"ha":833,"x_min":11,"x_max":822,"o":"m 297 0 l 297 299 l 11 903 l 267 903 l 342 706 q 378 604 360 654 q 415 500 397 554 l 421 500 q 460 604 440 554 q 497 706 479 654 l 572 903 l 822 903 l 536 299 l 536 0 l 297 0 m 514 953 q 431 971 465 953 q 372 1007 397 989 q 328 1025 347 1025 q 299 1014 311 1025 q 283 967 288 1003 l 131 978 q 190 1141 138 1093 q 319 1189 243 1189 q 403 1171 368 1189 q 462 1135 438 1153 q 506 1117 486 1117 q 534 1128 522 1117 q 550 1175 546 1140 l 703 1164 q 644 1001 697 1050 q 514 953 590 953 z "},"Ź":{"ha":833,"x_min":74,"x_max":764,"o":"m 74 0 l 74 144 l 464 703 l 111 703 l 111 903 l 760 903 l 760 758 l 369 200 l 764 200 l 764 0 l 74 0 m 389 936 l 283 1056 l 536 1256 l 661 1103 l 389 936 z "},"Ž":{"ha":833,"x_min":74,"x_max":764,"o":"m 74 0 l 74 144 l 464 703 l 111 703 l 111 903 l 760 903 l 760 758 l 369 200 l 764 200 l 764 0 l 74 0 m 314 972 l 197 1125 l 300 1186 l 442 1075 l 447 1075 l 589 1186 l 692 1125 l 575 972 l 314 972 z "},"Ż":{"ha":833,"x_min":74,"x_max":764,"o":"m 74 0 l 74 144 l 464 703 l 111 703 l 111 903 l 760 903 l 760 758 l 369 200 l 764 200 l 764 0 l 74 0 m 444 967 q 342 1003 382 967 q 303 1097 303 1039 q 342 1192 303 1156 q 444 1228 382 1228 q 547 1192 507 1228 q 586 1097 586 1156 q 547 1003 586 1039 q 444 967 507 967 z "},"Ẑ":{"ha":833,"x_min":74,"x_max":764,"o":"m 74 0 l 74 144 l 464 703 l 111 703 l 111 903 l 760 903 l 760 758 l 369 200 l 764 200 l 764 0 l 74 0 m 300 944 l 197 1006 l 314 1158 l 575 1158 l 692 1006 l 589 944 l 447 1056 l 442 1056 l 300 944 z "},"Ẓ":{"ha":833,"x_min":74,"x_max":764,"o":"m 74 0 l 74 144 l 464 703 l 111 703 l 111 903 l 760 903 l 760 758 l 369 200 l 764 200 l 764 0 l 74 0 z "},"Ẕ":{"ha":833,"x_min":74,"x_max":764,"o":"m 74 0 l 74 144 l 464 703 l 111 703 l 111 903 l 760 903 l 760 758 l 369 200 l 764 200 l 764 0 l 74 0 z "},"Ð":{"ha":833,"x_min":-6,"x_max":789,"o":"m 89 0 l 89 406 l -6 406 l -6 508 l 89 517 l 89 903 l 350 903 q 577 858 478 903 q 733 714 676 813 q 789 456 789 615 q 733 195 789 296 q 581 47 676 94 q 364 0 485 0 l 89 0 m 328 192 l 336 192 q 440 214 393 192 q 516 293 488 236 q 544 456 544 350 q 516 616 544 561 q 440 691 488 671 q 336 711 393 711 l 328 711 l 328 517 l 458 517 l 458 406 l 328 406 l 328 192 z "},"Þ":{"ha":833,"x_min":86,"x_max":797,"o":"m 86 0 l 86 903 l 325 903 l 325 772 l 436 772 q 615 744 533 772 q 747 651 697 717 q 797 472 797 586 q 747 292 797 363 q 613 189 696 222 q 436 156 531 156 l 325 156 l 325 0 l 86 0 m 325 344 l 425 344 q 530 378 496 344 q 564 472 564 413 q 528 558 564 533 q 425 583 492 583 l 325 583 l 325 344 z "},"Ə":{"ha":833,"x_min":64,"x_max":783,"o":"m 422 -17 q 238 38 319 -17 q 110 195 157 92 q 64 447 64 299 q 66 487 64 467 q 69 528 68 507 l 544 528 q 497 672 535 629 q 394 714 460 714 q 315 697 350 714 q 256 656 281 679 l 147 819 q 262 892 196 864 q 417 919 328 919 q 608 865 525 919 q 737 706 690 810 q 783 453 783 601 q 737 199 783 304 q 609 39 690 94 q 422 -17 528 -17 m 422 189 q 476 202 451 189 q 518 251 500 215 q 543 356 536 288 l 299 356 q 323 251 306 288 q 366 202 340 215 q 422 189 392 189 z "},"Ŋ":{"ha":833,"x_min":81,"x_max":775,"o":"m 492 -17 q 428 -10 463 -17 q 375 8 394 -4 l 425 214 q 442 208 432 211 q 464 206 451 206 q 503 224 489 206 q 524 297 518 243 q 531 458 531 351 q 506 654 531 594 q 436 714 482 714 q 375 692 406 714 q 319 622 344 671 l 319 0 l 81 0 l 81 903 l 311 903 l 311 825 q 499 919 389 919 q 640 874 578 919 q 739 728 703 829 q 775 458 775 626 q 749 197 775 303 q 663 37 724 90 q 492 -17 601 -17 z "},"Ĳ":{"ha":833,"x_min":83,"x_max":750,"o":"m 83 0 l 83 903 l 322 903 l 322 0 l 83 0 m 472 -261 q 388 -254 421 -261 q 331 -239 356 -247 l 372 -64 q 405 -72 390 -69 q 433 -75 419 -75 q 493 -51 475 -75 q 511 28 511 -28 l 511 903 l 750 903 l 750 36 q 726 -110 750 -42 q 641 -219 701 -178 q 472 -261 581 -261 z "},"à":{"ha":833,"x_min":75,"x_max":753,"o":"m 300 -17 q 178 13 228 -17 q 101 92 128 43 q 75 197 75 140 q 176 376 75 314 q 514 450 276 438 q 474 505 508 488 q 381 522 439 522 q 290 508 338 522 q 181 464 243 493 l 97 619 q 258 688 176 664 q 428 711 340 711 q 665 634 576 711 q 753 386 753 557 l 753 0 l 558 0 l 542 72 l 536 72 q 425 9 485 35 q 300 -17 365 -17 m 378 167 q 453 183 419 167 q 514 219 486 199 l 514 308 q 383 293 429 306 q 320 260 338 281 q 303 217 303 240 q 378 167 303 167 m 444 775 l 181 994 l 342 1153 l 561 892 l 444 775 z "},"á":{"ha":833,"x_min":75,"x_max":753,"o":"m 300 -17 q 178 13 228 -17 q 101 92 128 43 q 75 197 75 140 q 176 376 75 314 q 514 450 276 438 q 474 505 508 488 q 381 522 439 522 q 290 508 338 522 q 181 464 243 493 l 97 619 q 258 688 176 664 q 428 711 340 711 q 665 634 576 711 q 753 386 753 557 l 753 0 l 558 0 l 542 72 l 536 72 q 425 9 485 35 q 300 -17 365 -17 m 378 167 q 453 183 419 167 q 514 219 486 199 l 514 308 q 383 293 429 306 q 320 260 338 281 q 303 217 303 240 q 378 167 303 167 m 444 775 l 328 892 l 547 1153 l 708 994 l 444 775 z "},"â":{"ha":833,"x_min":75,"x_max":753,"o":"m 300 -17 q 178 13 228 -17 q 101 92 128 43 q 75 197 75 140 q 176 376 75 314 q 514 450 276 438 q 474 505 508 488 q 381 522 439 522 q 290 508 338 522 q 181 464 243 493 l 97 619 q 258 688 176 664 q 428 711 340 711 q 665 634 576 711 q 753 386 753 557 l 753 0 l 558 0 l 542 72 l 536 72 q 425 9 485 35 q 300 -17 365 -17 m 378 167 q 453 183 419 167 q 514 219 486 199 l 514 308 q 383 293 429 306 q 320 260 338 281 q 303 217 303 240 q 378 167 303 167 m 264 775 l 175 858 l 322 1036 l 567 1036 l 714 858 l 625 775 l 447 892 l 442 892 l 264 775 z "},"ã":{"ha":833,"x_min":75,"x_max":753,"o":"m 300 -17 q 178 13 228 -17 q 101 92 128 43 q 75 197 75 140 q 176 376 75 314 q 514 450 276 438 q 474 505 508 488 q 381 522 439 522 q 290 508 338 522 q 181 464 243 493 l 97 619 q 258 688 176 664 q 428 711 340 711 q 665 634 576 711 q 753 386 753 557 l 753 0 l 558 0 l 542 72 l 536 72 q 425 9 485 35 q 300 -17 365 -17 m 378 167 q 453 183 419 167 q 514 219 486 199 l 514 308 q 383 293 429 306 q 320 260 338 281 q 303 217 303 240 q 378 167 303 167 m 533 794 q 460 814 492 794 q 403 853 428 833 q 361 872 379 872 q 334 859 344 872 q 319 808 324 846 l 172 817 q 224 985 175 935 q 356 1036 272 1036 q 429 1017 397 1036 q 485 978 461 997 q 528 958 510 958 q 555 972 544 958 q 569 1022 565 985 l 717 1014 q 666 845 715 896 q 533 794 617 794 z "},"ä":{"ha":833,"x_min":75,"x_max":753,"o":"m 300 -17 q 178 13 228 -17 q 101 92 128 43 q 75 197 75 140 q 176 376 75 314 q 514 450 276 438 q 474 505 508 488 q 381 522 439 522 q 290 508 338 522 q 181 464 243 493 l 97 619 q 258 688 176 664 q 428 711 340 711 q 665 634 576 711 q 753 386 753 557 l 753 0 l 558 0 l 542 72 l 536 72 q 425 9 485 35 q 300 -17 365 -17 m 378 167 q 453 183 419 167 q 514 219 486 199 l 514 308 q 383 293 429 306 q 320 260 338 281 q 303 217 303 240 q 378 167 303 167 m 283 783 q 193 819 228 783 q 158 908 158 856 q 193 997 158 961 q 283 1033 228 1033 q 374 997 339 1033 q 408 908 408 961 q 374 819 408 856 q 283 783 339 783 m 606 783 q 515 819 550 783 q 481 908 481 856 q 515 997 481 961 q 606 1033 550 1033 q 696 997 661 1033 q 731 908 731 961 q 696 819 731 856 q 606 783 661 783 z "},"ā":{"ha":833,"x_min":75,"x_max":753,"o":"m 300 -17 q 178 13 228 -17 q 101 92 128 43 q 75 197 75 140 q 176 376 75 314 q 514 450 276 438 q 474 505 508 488 q 381 522 439 522 q 290 508 338 522 q 181 464 243 493 l 97 619 q 258 688 176 664 q 428 711 340 711 q 665 634 576 711 q 753 386 753 557 l 753 0 l 558 0 l 542 72 l 536 72 q 425 9 485 35 q 300 -17 365 -17 m 378 167 q 453 183 419 167 q 514 219 486 199 l 514 308 q 383 293 429 306 q 320 260 338 281 q 303 217 303 240 q 378 167 303 167 m 231 817 l 231 967 l 658 967 l 658 817 l 231 817 z "},"ă":{"ha":833,"x_min":75,"x_max":753,"o":"m 300 -17 q 178 13 228 -17 q 101 92 128 43 q 75 197 75 140 q 176 376 75 314 q 514 450 276 438 q 474 505 508 488 q 381 522 439 522 q 290 508 338 522 q 181 464 243 493 l 97 619 q 258 688 176 664 q 428 711 340 711 q 665 634 576 711 q 753 386 753 557 l 753 0 l 558 0 l 542 72 l 536 72 q 425 9 485 35 q 300 -17 365 -17 m 378 167 q 453 183 419 167 q 514 219 486 199 l 514 308 q 383 293 429 306 q 320 260 338 281 q 303 217 303 240 q 378 167 303 167 m 444 794 q 264 857 322 794 q 203 1017 206 919 l 336 1039 q 369 969 343 997 q 444 942 394 942 q 521 969 494 942 q 553 1039 547 997 l 686 1017 q 626 857 685 919 q 444 794 568 794 z "},"å":{"ha":833,"x_min":75,"x_max":753,"o":"m 300 -17 q 178 13 228 -17 q 101 92 128 43 q 75 197 75 140 q 176 376 75 314 q 514 450 276 438 q 474 505 508 488 q 381 522 439 522 q 290 508 338 522 q 181 464 243 493 l 97 619 q 258 688 176 664 q 428 711 340 711 q 665 634 576 711 q 753 386 753 557 l 753 0 l 558 0 l 542 72 l 536 72 q 425 9 485 35 q 300 -17 365 -17 m 378 167 q 453 183 419 167 q 514 219 486 199 l 514 308 q 383 293 429 306 q 320 260 338 281 q 303 217 303 240 q 378 167 303 167 m 444 789 q 299 833 347 789 q 250 936 250 876 q 299 1040 250 997 q 444 1083 347 1083 q 591 1040 543 1083 q 639 936 639 997 q 591 833 639 876 q 444 789 543 789 m 444 875 q 482 892 467 875 q 497 936 497 910 q 482 981 497 964 q 444 997 467 997 q 407 981 422 997 q 392 936 392 964 q 407 892 392 910 q 444 875 422 875 z "},"ǻ":{"ha":833,"x_min":75,"x_max":753,"o":"m 444 789 q 299 833 347 789 q 250 936 250 876 q 265 999 250 969 q 310 1049 279 1029 l 536 1239 l 631 1122 l 522 1074 q 610 1021 581 1058 q 639 936 639 983 q 591 833 639 876 q 444 789 543 789 m 300 -17 q 178 13 228 -17 q 101 92 128 43 q 75 197 75 140 q 176 376 75 314 q 514 450 276 438 q 474 505 508 488 q 381 522 439 522 q 290 508 338 522 q 181 464 243 493 l 97 619 q 258 688 176 664 q 428 711 340 711 q 665 634 576 711 q 753 386 753 557 l 753 0 l 558 0 l 542 72 l 536 72 q 425 9 485 35 q 300 -17 365 -17 m 378 167 q 453 183 419 167 q 514 219 486 199 l 514 308 q 383 293 429 306 q 320 260 338 281 q 303 217 303 240 q 378 167 303 167 m 444 875 q 482 892 467 875 q 497 936 497 910 q 482 981 497 964 q 444 997 467 997 q 407 981 422 997 q 392 936 392 964 q 407 892 392 910 q 444 875 422 875 z "},"ǎ":{"ha":833,"x_min":75,"x_max":753,"o":"m 300 -17 q 178 13 228 -17 q 101 92 128 43 q 75 197 75 140 q 176 376 75 314 q 514 450 276 438 q 474 505 508 488 q 381 522 439 522 q 290 508 338 522 q 181 464 243 493 l 97 619 q 258 688 176 664 q 428 711 340 711 q 665 634 576 711 q 753 386 753 557 l 753 0 l 558 0 l 542 72 l 536 72 q 425 9 485 35 q 300 -17 365 -17 m 378 167 q 453 183 419 167 q 514 219 486 199 l 514 308 q 383 293 429 306 q 320 260 338 281 q 303 217 303 240 q 378 167 303 167 m 322 803 l 175 981 l 264 1064 l 442 947 l 447 947 l 625 1064 l 714 981 l 567 803 l 322 803 z "},"ą":{"ha":833,"x_min":75,"x_max":781,"o":"m 614 -317 q 494 -281 544 -317 q 444 -175 444 -244 q 464 -97 444 -131 q 511 -41 483 -64 q 561 -6 539 -18 l 542 72 l 536 72 q 425 9 485 35 q 300 -17 365 -17 q 178 13 228 -17 q 101 92 128 43 q 75 197 75 140 q 176 376 75 314 q 514 450 276 438 q 474 505 508 488 q 381 522 439 522 q 290 508 338 522 q 181 464 243 493 l 97 619 q 258 688 176 664 q 428 711 340 711 q 665 634 576 711 q 753 386 753 557 l 753 0 q 638 -53 674 -18 q 603 -119 603 -87 q 624 -164 603 -150 q 672 -178 646 -178 q 733 -161 710 -178 l 781 -267 q 701 -303 750 -290 q 614 -317 653 -317 m 378 167 q 453 183 419 167 q 514 219 486 199 l 514 308 q 383 293 429 306 q 320 260 338 281 q 303 217 303 240 q 378 167 303 167 z "},"ạ":{"ha":833,"x_min":75,"x_max":753,"o":"m 300 -17 q 178 13 228 -17 q 101 92 128 43 q 75 197 75 140 q 176 376 75 314 q 514 450 276 438 q 474 505 508 488 q 381 522 439 522 q 290 508 338 522 q 181 464 243 493 l 97 619 q 258 688 176 664 q 428 711 340 711 q 665 634 576 711 q 753 386 753 557 l 753 0 l 558 0 l 542 72 l 536 72 q 425 9 485 35 q 300 -17 365 -17 m 378 167 q 453 183 419 167 q 514 219 486 199 l 514 308 q 383 293 429 306 q 320 260 338 281 q 303 217 303 240 q 378 167 303 167 z "},"ả":{"ha":833,"x_min":75,"x_max":753,"o":"m 300 -17 q 178 13 228 -17 q 101 92 128 43 q 75 197 75 140 q 176 376 75 314 q 514 450 276 438 q 474 505 508 488 q 381 522 439 522 q 290 508 338 522 q 181 464 243 493 l 97 619 q 258 688 176 664 q 428 711 340 711 q 665 634 576 711 q 753 386 753 557 l 753 0 l 558 0 l 542 72 l 536 72 q 425 9 485 35 q 300 -17 365 -17 m 378 167 q 453 183 419 167 q 514 219 486 199 l 514 308 q 383 293 429 306 q 320 260 338 281 q 303 217 303 240 q 378 167 303 167 m 378 786 l 361 878 q 401 890 385 881 q 417 919 417 899 q 393 957 417 943 q 308 975 369 971 l 322 1119 q 482 1092 424 1117 q 565 1028 540 1068 q 589 936 589 988 q 560 854 589 886 q 483 806 531 822 q 378 786 435 789 z "},"ấ":{"ha":833,"x_min":75,"x_max":853,"o":"m 300 -17 q 178 13 228 -17 q 101 92 128 43 q 75 197 75 140 q 176 376 75 314 q 514 450 276 438 q 474 505 508 488 q 381 522 439 522 q 290 508 338 522 q 181 464 243 493 l 97 619 q 258 688 176 664 q 428 711 340 711 q 665 634 576 711 q 753 386 753 557 l 753 0 l 558 0 l 542 72 l 536 72 q 425 9 485 35 q 300 -17 365 -17 m 378 167 q 453 183 419 167 q 514 219 486 199 l 514 308 q 383 293 429 306 q 320 260 338 281 q 303 217 303 240 q 378 167 303 167 m 300 783 l 225 867 l 350 994 l 539 994 l 664 867 l 589 783 l 447 869 l 442 869 l 300 783 m 711 886 l 622 956 l 728 1136 l 853 1056 l 711 886 z "},"ầ":{"ha":833,"x_min":36,"x_max":753,"o":"m 300 -17 q 178 13 228 -17 q 101 92 128 43 q 75 197 75 140 q 176 376 75 314 q 514 450 276 438 q 474 505 508 488 q 381 522 439 522 q 290 508 338 522 q 181 464 243 493 l 97 619 q 258 688 176 664 q 428 711 340 711 q 665 634 576 711 q 753 386 753 557 l 753 0 l 558 0 l 542 72 l 536 72 q 425 9 485 35 q 300 -17 365 -17 m 378 167 q 453 183 419 167 q 514 219 486 199 l 514 308 q 383 293 429 306 q 320 260 338 281 q 303 217 303 240 q 378 167 303 167 m 300 783 l 225 867 l 350 994 l 539 994 l 664 867 l 589 783 l 447 869 l 442 869 l 300 783 m 178 886 l 36 1056 l 161 1136 l 267 956 l 178 886 z "},"ẩ":{"ha":833,"x_min":75,"x_max":822,"o":"m 300 -17 q 178 13 228 -17 q 101 92 128 43 q 75 197 75 140 q 176 376 75 314 q 514 450 276 438 q 474 505 508 488 q 381 522 439 522 q 290 508 338 522 q 181 464 243 493 l 97 619 q 258 688 176 664 q 428 711 340 711 q 665 634 576 711 q 753 386 753 557 l 753 0 l 558 0 l 542 72 l 536 72 q 425 9 485 35 q 300 -17 365 -17 m 378 167 q 453 183 419 167 q 514 219 486 199 l 514 308 q 383 293 429 306 q 320 260 338 281 q 303 217 303 240 q 378 167 303 167 m 300 783 l 225 867 l 350 994 l 539 994 l 664 867 l 589 783 l 447 869 l 442 869 l 300 783 m 647 900 l 633 978 q 660 988 650 981 q 669 1011 669 994 q 651 1038 669 1028 q 581 1053 633 1049 l 603 1150 q 776 1115 731 1146 q 822 1036 822 1085 q 799 960 822 988 q 735 919 775 932 q 647 900 696 906 z "},"ẫ":{"ha":833,"x_min":75,"x_max":753,"o":"m 300 -17 q 178 13 228 -17 q 101 92 128 43 q 75 197 75 140 q 176 376 75 314 q 514 450 276 438 q 474 505 508 488 q 381 522 439 522 q 290 508 338 522 q 181 464 243 493 l 97 619 q 258 688 176 664 q 428 711 340 711 q 665 634 576 711 q 753 386 753 557 l 753 0 l 558 0 l 542 72 l 536 72 q 425 9 485 35 q 300 -17 365 -17 m 378 167 q 453 183 419 167 q 514 219 486 199 l 514 308 q 383 293 429 306 q 320 260 338 281 q 303 217 303 240 q 378 167 303 167 m 300 783 l 225 867 l 350 981 l 539 981 l 664 867 l 589 783 l 447 856 l 442 856 l 300 783 m 522 997 q 460 1012 485 997 q 417 1041 435 1026 q 381 1056 399 1056 q 339 1006 350 1056 l 233 1017 q 278 1145 243 1107 q 367 1183 313 1183 q 429 1169 404 1183 q 472 1140 454 1154 q 508 1125 490 1125 q 550 1175 539 1125 l 656 1164 q 611 1036 646 1075 q 522 997 576 997 z "},"ậ":{"ha":833,"x_min":75,"x_max":753,"o":"m 300 -17 q 178 13 228 -17 q 101 92 128 43 q 75 197 75 140 q 176 376 75 314 q 514 450 276 438 q 474 505 508 488 q 381 522 439 522 q 290 508 338 522 q 181 464 243 493 l 97 619 q 258 688 176 664 q 428 711 340 711 q 665 634 576 711 q 753 386 753 557 l 753 0 l 558 0 l 542 72 l 536 72 q 425 9 485 35 q 300 -17 365 -17 m 378 167 q 453 183 419 167 q 514 219 486 199 l 514 308 q 383 293 429 306 q 320 260 338 281 q 303 217 303 240 q 378 167 303 167 m 264 775 l 175 858 l 322 1036 l 567 1036 l 714 858 l 625 775 l 447 892 l 442 892 l 264 775 z "},"ắ":{"ha":833,"x_min":75,"x_max":753,"o":"m 300 -17 q 178 13 228 -17 q 101 92 128 43 q 75 197 75 140 q 176 376 75 314 q 514 450 276 438 q 474 505 508 488 q 381 522 439 522 q 290 508 338 522 q 181 464 243 493 l 97 619 q 258 688 176 664 q 428 711 340 711 q 665 634 576 711 q 753 386 753 557 l 753 0 l 558 0 l 542 72 l 536 72 q 425 9 485 35 q 300 -17 365 -17 m 378 167 q 453 183 419 167 q 514 219 486 199 l 514 308 q 383 293 429 306 q 320 260 338 281 q 303 217 303 240 q 378 167 303 167 m 444 794 q 264 857 322 794 q 203 1017 206 919 l 322 1039 q 359 960 329 992 q 444 928 389 928 q 531 960 501 928 q 567 1039 560 992 l 686 1017 q 626 857 685 919 q 444 794 568 794 m 464 981 l 361 1050 l 494 1256 l 633 1153 l 464 981 z "},"ằ":{"ha":833,"x_min":75,"x_max":753,"o":"m 300 -17 q 178 13 228 -17 q 101 92 128 43 q 75 197 75 140 q 176 376 75 314 q 514 450 276 438 q 474 505 508 488 q 381 522 439 522 q 290 508 338 522 q 181 464 243 493 l 97 619 q 258 688 176 664 q 428 711 340 711 q 665 634 576 711 q 753 386 753 557 l 753 0 l 558 0 l 542 72 l 536 72 q 425 9 485 35 q 300 -17 365 -17 m 378 167 q 453 183 419 167 q 514 219 486 199 l 514 308 q 383 293 429 306 q 320 260 338 281 q 303 217 303 240 q 378 167 303 167 m 444 794 q 264 857 322 794 q 203 1017 206 919 l 322 1039 q 359 960 329 992 q 444 928 389 928 q 531 960 501 928 q 567 1039 560 992 l 686 1017 q 626 857 685 919 q 444 794 568 794 m 425 981 l 256 1153 l 394 1256 l 528 1050 l 425 981 z "},"ẳ":{"ha":833,"x_min":75,"x_max":753,"o":"m 300 -17 q 178 13 228 -17 q 101 92 128 43 q 75 197 75 140 q 176 376 75 314 q 514 450 276 438 q 474 505 508 488 q 381 522 439 522 q 290 508 338 522 q 181 464 243 493 l 97 619 q 258 688 176 664 q 428 711 340 711 q 665 634 576 711 q 753 386 753 557 l 753 0 l 558 0 l 542 72 l 536 72 q 425 9 485 35 q 300 -17 365 -17 m 378 167 q 453 183 419 167 q 514 219 486 199 l 514 308 q 383 293 429 306 q 320 260 338 281 q 303 217 303 240 q 378 167 303 167 m 444 794 q 264 857 322 794 q 203 1017 206 919 l 322 1039 q 359 960 329 992 q 444 928 389 928 q 531 960 501 928 q 567 1039 560 992 l 686 1017 q 626 857 685 919 q 444 794 568 794 m 392 976 l 378 1054 q 404 1064 394 1057 q 414 1088 414 1071 q 396 1115 414 1104 q 325 1129 378 1125 l 347 1256 q 521 1213 475 1251 q 567 1113 567 1174 q 543 1036 567 1064 q 480 995 519 1008 q 392 976 440 982 z "},"ẵ":{"ha":833,"x_min":75,"x_max":753,"o":"m 300 -17 q 178 13 228 -17 q 101 92 128 43 q 75 197 75 140 q 176 376 75 314 q 514 450 276 438 q 474 505 508 488 q 381 522 439 522 q 290 508 338 522 q 181 464 243 493 l 97 619 q 258 688 176 664 q 428 711 340 711 q 665 634 576 711 q 753 386 753 557 l 753 0 l 558 0 l 542 72 l 536 72 q 425 9 485 35 q 300 -17 365 -17 m 378 167 q 453 183 419 167 q 514 219 486 199 l 514 308 q 383 293 429 306 q 320 260 338 281 q 303 217 303 240 q 378 167 303 167 m 444 794 q 283 842 335 794 q 225 956 232 889 l 339 975 q 369 931 346 950 q 444 911 393 911 q 520 931 497 911 q 550 975 543 950 l 664 956 q 607 842 658 889 q 444 794 556 794 m 522 994 q 460 1009 485 994 q 417 1038 435 1024 q 381 1053 399 1053 q 339 1003 350 1053 l 219 1014 q 268 1142 229 1104 q 367 1181 307 1181 q 429 1166 404 1181 q 472 1137 454 1151 q 508 1122 490 1122 q 550 1172 539 1122 l 669 1161 q 621 1033 660 1072 q 522 994 582 994 z "},"ặ":{"ha":833,"x_min":75,"x_max":753,"o":"m 300 -17 q 178 13 228 -17 q 101 92 128 43 q 75 197 75 140 q 176 376 75 314 q 514 450 276 438 q 474 505 508 488 q 381 522 439 522 q 290 508 338 522 q 181 464 243 493 l 97 619 q 258 688 176 664 q 428 711 340 711 q 665 634 576 711 q 753 386 753 557 l 753 0 l 558 0 l 542 72 l 536 72 q 425 9 485 35 q 300 -17 365 -17 m 378 167 q 453 183 419 167 q 514 219 486 199 l 514 308 q 383 293 429 306 q 320 260 338 281 q 303 217 303 240 q 378 167 303 167 m 444 794 q 264 857 322 794 q 203 1017 206 919 l 336 1039 q 369 969 343 997 q 444 942 394 942 q 521 969 494 942 q 553 1039 547 997 l 686 1017 q 626 857 685 919 q 444 794 568 794 z "},"æ":{"ha":833,"x_min":22,"x_max":821,"o":"m 578 531 q 535 506 556 531 q 504 419 514 481 l 636 419 q 619 506 633 481 q 578 531 606 531 m 614 -17 q 492 10 546 -17 q 401 79 438 36 q 303 4 350 25 q 208 -17 256 -17 q 74 41 125 -17 q 22 186 22 99 q 98 358 22 296 q 324 442 174 419 q 298 507 318 492 q 253 522 278 522 q 189 511 218 522 q 122 478 160 500 l 39 633 q 158 691 101 671 q 269 711 214 711 q 358 692 319 711 q 431 622 397 672 q 511 692 469 672 q 600 711 553 711 q 722 665 672 711 q 796 540 771 618 q 821 369 821 463 q 817 313 821 339 q 811 275 814 288 l 508 275 q 553 194 522 219 q 622 169 585 169 q 669 177 646 169 q 719 203 693 185 l 800 50 q 706 0 758 17 q 614 -17 654 -17 m 233 217 q 248 179 233 192 q 283 167 263 167 q 308 171 294 167 q 340 193 321 175 q 325 297 325 246 l 325 303 q 253 269 274 293 q 233 217 233 244 z "},"ǽ":{"ha":833,"x_min":22,"x_max":821,"o":"m 578 531 q 535 506 556 531 q 504 419 514 481 l 636 419 q 619 506 633 481 q 578 531 606 531 m 614 -17 q 492 10 546 -17 q 401 79 438 36 q 303 4 350 25 q 208 -17 256 -17 q 74 41 125 -17 q 22 186 22 99 q 98 358 22 296 q 324 442 174 419 q 298 507 318 492 q 253 522 278 522 q 189 511 218 522 q 122 478 160 500 l 39 633 q 158 691 101 671 q 269 711 214 711 q 358 692 319 711 q 431 622 397 672 q 511 692 469 672 q 600 711 553 711 q 722 665 672 711 q 796 540 771 618 q 821 369 821 463 q 817 313 821 339 q 811 275 814 288 l 508 275 q 553 194 522 219 q 622 169 585 169 q 669 177 646 169 q 719 203 693 185 l 800 50 q 706 0 758 17 q 614 -17 654 -17 m 233 217 q 248 179 233 192 q 283 167 263 167 q 308 171 294 167 q 340 193 321 175 q 325 297 325 246 l 325 303 q 253 269 274 293 q 233 217 233 244 m 428 775 l 311 892 l 531 1153 l 692 994 l 428 775 z "},"ǣ":{"ha":833,"x_min":22,"x_max":821,"o":"m 578 531 q 535 506 556 531 q 504 419 514 481 l 636 419 q 619 506 633 481 q 578 531 606 531 m 614 -17 q 492 10 546 -17 q 401 79 438 36 q 303 4 350 25 q 208 -17 256 -17 q 74 41 125 -17 q 22 186 22 99 q 98 358 22 296 q 324 442 174 419 q 298 507 318 492 q 253 522 278 522 q 189 511 218 522 q 122 478 160 500 l 39 633 q 158 691 101 671 q 269 711 214 711 q 358 692 319 711 q 431 622 397 672 q 511 692 469 672 q 600 711 553 711 q 722 665 672 711 q 796 540 771 618 q 821 369 821 463 q 817 313 821 339 q 811 275 814 288 l 508 275 q 553 194 522 219 q 622 169 585 169 q 669 177 646 169 q 719 203 693 185 l 800 50 q 706 0 758 17 q 614 -17 654 -17 m 233 217 q 248 179 233 192 q 283 167 263 167 q 308 171 294 167 q 340 193 321 175 q 325 297 325 246 l 325 303 q 253 269 274 293 q 233 217 233 244 m 214 817 l 214 967 l 642 967 l 642 817 l 214 817 z "},"ƀ":{"ha":833,"x_min":0,"x_max":775,"o":"m 479 -17 q 300 75 382 -17 l 294 75 l 275 0 l 89 0 l 89 764 l 0 764 l 0 867 l 89 874 l 89 967 l 328 967 l 326 875 l 564 875 l 564 764 l 324 764 l 322 706 l 319 614 l 325 614 q 407 665 361 647 q 499 683 453 683 q 645 642 583 683 q 741 524 707 600 q 775 346 775 449 q 733 149 775 231 q 623 26 690 68 q 479 -17 556 -17 m 422 178 q 499 213 467 178 q 531 342 531 249 q 505 454 531 419 q 428 489 479 489 q 376 478 400 489 q 328 439 353 467 l 328 211 q 374 185 350 193 q 422 178 399 178 z "},"ḇ":{"ha":833,"x_min":89,"x_max":775,"o":"m 479 -17 q 300 75 382 -17 l 294 75 l 275 0 l 89 0 l 89 967 l 328 967 l 328 742 l 319 642 l 325 642 q 406 693 361 675 q 499 711 451 711 q 645 667 583 711 q 741 545 707 624 q 775 360 775 467 q 733 156 775 240 q 623 27 690 71 q 479 -17 556 -17 m 422 178 q 499 217 467 178 q 531 356 531 256 q 505 479 531 442 q 428 517 479 517 q 376 506 400 517 q 328 467 353 494 l 328 211 q 374 185 350 193 q 422 178 399 178 z "},"ç":{"ha":833,"x_min":86,"x_max":764,"o":"m 475 -17 q 277 26 365 -17 q 138 151 189 69 q 86 347 86 232 q 143 544 86 463 q 293 668 200 625 q 493 711 386 711 q 644 686 575 711 q 756 619 713 661 l 647 472 q 574 509 608 499 q 507 519 540 519 q 380 473 429 519 q 331 347 331 426 q 378 222 331 268 q 499 175 426 175 q 592 193 550 175 q 669 233 635 211 l 764 83 q 622 7 700 31 q 475 -17 544 -17 m 322 -339 l 306 -247 q 415 -231 385 -243 q 444 -189 444 -218 q 424 -156 444 -169 q 339 -133 404 -142 l 414 17 l 550 17 l 506 -83 q 587 -120 560 -96 q 614 -189 614 -144 q 537 -299 614 -264 q 322 -339 460 -335 z "},"ć":{"ha":833,"x_min":86,"x_max":764,"o":"m 475 -17 q 277 26 365 -17 q 138 151 189 69 q 86 347 86 232 q 143 544 86 463 q 293 668 200 625 q 493 711 386 711 q 644 686 575 711 q 756 619 713 661 l 647 472 q 574 509 608 499 q 507 519 540 519 q 380 473 429 519 q 331 347 331 426 q 378 222 331 268 q 499 175 426 175 q 592 193 550 175 q 669 233 635 211 l 764 83 q 622 7 700 31 q 475 -17 544 -17 m 472 775 l 356 892 l 575 1153 l 736 994 l 472 775 z "},"ĉ":{"ha":833,"x_min":86,"x_max":764,"o":"m 475 -17 q 277 26 365 -17 q 138 151 189 69 q 86 347 86 232 q 143 544 86 463 q 293 668 200 625 q 493 711 386 711 q 644 686 575 711 q 756 619 713 661 l 647 472 q 574 509 608 499 q 507 519 540 519 q 380 473 429 519 q 331 347 331 426 q 378 222 331 268 q 499 175 426 175 q 592 193 550 175 q 669 233 635 211 l 764 83 q 622 7 700 31 q 475 -17 544 -17 m 292 775 l 203 858 l 350 1036 l 594 1036 l 742 858 l 653 775 l 475 892 l 469 892 l 292 775 z "},"č":{"ha":833,"x_min":86,"x_max":764,"o":"m 475 -17 q 277 26 365 -17 q 138 151 189 69 q 86 347 86 232 q 143 544 86 463 q 293 668 200 625 q 493 711 386 711 q 644 686 575 711 q 756 619 713 661 l 647 472 q 574 509 608 499 q 507 519 540 519 q 380 473 429 519 q 331 347 331 426 q 378 222 331 268 q 499 175 426 175 q 592 193 550 175 q 669 233 635 211 l 764 83 q 622 7 700 31 q 475 -17 544 -17 m 350 803 l 203 981 l 292 1064 l 469 947 l 475 947 l 653 1064 l 742 981 l 594 803 l 350 803 z "},"ċ":{"ha":833,"x_min":86,"x_max":764,"o":"m 475 -17 q 277 26 365 -17 q 138 151 189 69 q 86 347 86 232 q 143 544 86 463 q 293 668 200 625 q 493 711 386 711 q 644 686 575 711 q 756 619 713 661 l 647 472 q 574 509 608 499 q 507 519 540 519 q 380 473 429 519 q 331 347 331 426 q 378 222 331 268 q 499 175 426 175 q 592 193 550 175 q 669 233 635 211 l 764 83 q 622 7 700 31 q 475 -17 544 -17 m 472 789 q 363 827 406 789 q 319 928 319 865 q 363 1030 319 990 q 472 1069 406 1069 q 582 1030 539 1069 q 625 928 625 990 q 582 827 625 865 q 472 789 539 789 z "},"ď":{"ha":833,"x_min":36,"x_max":889,"o":"m 285 -17 q 103 81 171 -17 q 36 347 36 179 q 72 542 36 461 q 165 667 108 624 q 285 711 222 711 q 360 692 331 711 q 419 642 390 674 l 425 642 l 414 742 l 414 967 l 639 967 l 639 0 l 458 0 l 442 64 l 436 64 q 364 8 403 32 q 285 -17 325 -17 m 347 178 q 382 190 368 178 q 414 228 396 201 l 414 483 q 382 508 396 499 q 350 517 368 517 q 292 479 318 517 q 267 350 267 442 q 288 217 267 257 q 347 178 310 178 m 686 761 l 678 1144 l 889 1144 l 886 1000 l 847 761 l 686 761 z "},"ḍ":{"ha":833,"x_min":58,"x_max":744,"o":"m 349 -17 q 138 81 217 -17 q 58 347 58 179 q 101 542 58 461 q 210 667 143 624 q 349 711 276 711 q 442 693 404 711 q 511 642 481 675 l 517 642 l 506 742 l 506 967 l 744 967 l 744 0 l 550 0 l 533 64 l 528 64 q 444 6 492 29 q 349 -17 396 -17 m 411 178 q 463 188 440 178 q 506 228 486 199 l 506 483 q 462 510 485 503 q 414 517 439 517 q 337 479 371 517 q 303 350 303 442 q 331 217 303 257 q 411 178 360 178 z "},"ḏ":{"ha":833,"x_min":58,"x_max":744,"o":"m 349 -17 q 138 81 217 -17 q 58 347 58 179 q 101 542 58 461 q 210 667 143 624 q 349 711 276 711 q 442 693 404 711 q 511 642 481 675 l 517 642 l 506 742 l 506 967 l 744 967 l 744 0 l 550 0 l 533 64 l 528 64 q 444 6 492 29 q 349 -17 396 -17 m 411 178 q 463 188 440 178 q 506 228 486 199 l 506 483 q 462 510 485 503 q 414 517 439 517 q 337 479 371 517 q 303 350 303 442 q 331 217 303 257 q 411 178 360 178 z "},"ḑ":{"ha":833,"x_min":58,"x_max":744,"o":"m 349 -17 q 138 81 217 -17 q 58 347 58 179 q 101 542 58 461 q 210 667 143 624 q 349 711 276 711 q 442 693 404 711 q 511 642 481 675 l 517 642 l 506 742 l 506 967 l 744 967 l 744 0 l 550 0 l 533 64 l 528 64 q 444 6 492 29 q 349 -17 396 -17 m 411 178 q 463 188 440 178 q 506 228 486 199 l 506 483 q 462 510 485 503 q 414 517 439 517 q 337 479 371 517 q 303 350 303 442 q 331 217 303 257 q 411 178 360 178 m 225 -339 l 208 -247 q 317 -231 288 -243 q 347 -189 347 -218 q 327 -156 347 -169 q 242 -133 307 -142 l 317 17 l 453 17 l 408 -83 q 490 -120 463 -96 q 517 -189 517 -144 q 440 -299 517 -264 q 225 -339 363 -335 z "},"đ":{"ha":833,"x_min":58,"x_max":833,"o":"m 349 -17 q 138 77 217 -17 q 58 333 58 171 q 101 522 58 443 q 210 642 143 600 q 349 683 276 683 q 444 665 406 683 q 511 614 482 646 l 517 614 l 506 714 l 506 764 l 300 764 l 300 875 l 506 875 l 506 967 l 744 967 l 744 875 l 833 875 l 833 772 l 744 765 l 744 0 l 550 0 l 533 64 l 528 64 q 444 6 492 29 q 349 -17 396 -17 m 411 178 q 463 188 440 178 q 506 228 486 199 l 506 456 q 463 481 485 474 q 418 489 440 489 q 337 455 371 489 q 303 336 303 421 q 331 214 303 250 q 411 178 360 178 z "},"è":{"ha":833,"x_min":69,"x_max":764,"o":"m 442 531 q 310 431 339 531 l 553 431 q 442 531 538 531 m 458 -17 q 260 26 349 -17 q 121 151 172 69 q 69 347 69 232 q 122 542 69 461 q 257 667 174 624 q 433 711 340 711 q 617 666 543 711 q 727 544 690 621 q 764 375 764 468 q 760 316 764 344 q 754 275 757 288 l 308 275 q 369 190 324 217 q 492 164 415 164 q 573 174 533 164 q 658 206 613 185 l 736 64 q 599 4 674 25 q 458 -17 524 -17 m 431 775 l 167 994 l 328 1153 l 547 892 l 431 775 z "},"é":{"ha":833,"x_min":69,"x_max":764,"o":"m 442 531 q 310 431 339 531 l 553 431 q 442 531 538 531 m 458 -17 q 260 26 349 -17 q 121 151 172 69 q 69 347 69 232 q 122 542 69 461 q 257 667 174 624 q 433 711 340 711 q 617 666 543 711 q 727 544 690 621 q 764 375 764 468 q 760 316 764 344 q 754 275 757 288 l 308 275 q 369 190 324 217 q 492 164 415 164 q 573 174 533 164 q 658 206 613 185 l 736 64 q 599 4 674 25 q 458 -17 524 -17 m 431 775 l 314 892 l 533 1153 l 694 994 l 431 775 z "},"ê":{"ha":833,"x_min":69,"x_max":764,"o":"m 442 531 q 310 431 339 531 l 553 431 q 442 531 538 531 m 458 -17 q 260 26 349 -17 q 121 151 172 69 q 69 347 69 232 q 122 542 69 461 q 257 667 174 624 q 433 711 340 711 q 617 666 543 711 q 727 544 690 621 q 764 375 764 468 q 760 316 764 344 q 754 275 757 288 l 308 275 q 369 190 324 217 q 492 164 415 164 q 573 174 533 164 q 658 206 613 185 l 736 64 q 599 4 674 25 q 458 -17 524 -17 m 250 775 l 161 858 l 308 1036 l 553 1036 l 700 858 l 611 775 l 433 892 l 428 892 l 250 775 z "},"ě":{"ha":833,"x_min":69,"x_max":764,"o":"m 442 531 q 310 431 339 531 l 553 431 q 442 531 538 531 m 458 -17 q 260 26 349 -17 q 121 151 172 69 q 69 347 69 232 q 122 542 69 461 q 257 667 174 624 q 433 711 340 711 q 617 666 543 711 q 727 544 690 621 q 764 375 764 468 q 760 316 764 344 q 754 275 757 288 l 308 275 q 369 190 324 217 q 492 164 415 164 q 573 174 533 164 q 658 206 613 185 l 736 64 q 599 4 674 25 q 458 -17 524 -17 m 308 803 l 161 981 l 250 1064 l 428 947 l 433 947 l 611 1064 l 700 981 l 553 803 l 308 803 z "},"ë":{"ha":833,"x_min":69,"x_max":764,"o":"m 442 531 q 310 431 339 531 l 553 431 q 442 531 538 531 m 458 -17 q 260 26 349 -17 q 121 151 172 69 q 69 347 69 232 q 122 542 69 461 q 257 667 174 624 q 433 711 340 711 q 617 666 543 711 q 727 544 690 621 q 764 375 764 468 q 760 316 764 344 q 754 275 757 288 l 308 275 q 369 190 324 217 q 492 164 415 164 q 573 174 533 164 q 658 206 613 185 l 736 64 q 599 4 674 25 q 458 -17 524 -17 m 269 783 q 179 819 214 783 q 144 908 144 856 q 179 997 144 961 q 269 1033 214 1033 q 360 997 325 1033 q 394 908 394 961 q 360 819 394 856 q 269 783 325 783 m 592 783 q 501 819 536 783 q 467 908 467 856 q 501 997 467 961 q 592 1033 536 1033 q 682 997 647 1033 q 717 908 717 961 q 682 819 717 856 q 592 783 647 783 z "},"ē":{"ha":833,"x_min":69,"x_max":764,"o":"m 442 531 q 310 431 339 531 l 553 431 q 442 531 538 531 m 458 -17 q 260 26 349 -17 q 121 151 172 69 q 69 347 69 232 q 122 542 69 461 q 257 667 174 624 q 433 711 340 711 q 617 666 543 711 q 727 544 690 621 q 764 375 764 468 q 760 316 764 344 q 754 275 757 288 l 308 275 q 369 190 324 217 q 492 164 415 164 q 573 174 533 164 q 658 206 613 185 l 736 64 q 599 4 674 25 q 458 -17 524 -17 m 217 817 l 217 967 l 644 967 l 644 817 l 217 817 z "},"ĕ":{"ha":833,"x_min":69,"x_max":764,"o":"m 442 531 q 310 431 339 531 l 553 431 q 442 531 538 531 m 458 -17 q 260 26 349 -17 q 121 151 172 69 q 69 347 69 232 q 122 542 69 461 q 257 667 174 624 q 433 711 340 711 q 617 666 543 711 q 727 544 690 621 q 764 375 764 468 q 760 316 764 344 q 754 275 757 288 l 308 275 q 369 190 324 217 q 492 164 415 164 q 573 174 533 164 q 658 206 613 185 l 736 64 q 599 4 674 25 q 458 -17 524 -17 m 431 794 q 250 857 308 794 q 189 1017 192 919 l 322 1039 q 355 969 329 997 q 431 942 381 942 q 507 969 481 942 q 539 1039 533 997 l 672 1017 q 613 857 671 919 q 431 794 554 794 z "},"ę":{"ha":833,"x_min":69,"x_max":764,"o":"m 442 531 q 310 431 339 531 l 553 431 q 442 531 538 531 m 572 -317 q 451 -281 499 -317 q 403 -175 403 -244 q 426 -90 403 -128 q 493 -14 449 -53 q 474 -16 483 -15 q 458 -17 465 -17 q 260 26 349 -17 q 121 151 172 69 q 69 347 69 232 q 122 542 69 461 q 257 667 174 624 q 433 711 340 711 q 617 666 543 711 q 727 544 690 621 q 764 375 764 468 q 760 316 764 344 q 754 275 757 288 l 308 275 q 369 190 324 217 q 492 164 415 164 q 573 174 533 164 q 658 206 613 185 l 736 64 q 628 -12 665 18 q 576 -67 590 -43 q 561 -119 561 -92 q 581 -163 561 -149 q 631 -178 601 -178 q 692 -161 663 -178 l 739 -267 q 660 -303 708 -290 q 572 -317 611 -317 z "},"ė":{"ha":833,"x_min":69,"x_max":764,"o":"m 442 531 q 310 431 339 531 l 553 431 q 442 531 538 531 m 458 -17 q 260 26 349 -17 q 121 151 172 69 q 69 347 69 232 q 122 542 69 461 q 257 667 174 624 q 433 711 340 711 q 617 666 543 711 q 727 544 690 621 q 764 375 764 468 q 760 316 764 344 q 754 275 757 288 l 308 275 q 369 190 324 217 q 492 164 415 164 q 573 174 533 164 q 658 206 613 185 l 736 64 q 599 4 674 25 q 458 -17 524 -17 m 431 789 q 321 827 364 789 q 278 928 278 865 q 321 1030 278 990 q 431 1069 364 1069 q 540 1030 497 1069 q 583 928 583 990 q 540 827 583 865 q 431 789 497 789 z "},"ẹ":{"ha":833,"x_min":69,"x_max":764,"o":"m 442 531 q 310 431 339 531 l 553 431 q 442 531 538 531 m 458 -17 q 260 26 349 -17 q 121 151 172 69 q 69 347 69 232 q 122 542 69 461 q 257 667 174 624 q 433 711 340 711 q 617 666 543 711 q 727 544 690 621 q 764 375 764 468 q 760 316 764 344 q 754 275 757 288 l 308 275 q 369 190 324 217 q 492 164 415 164 q 573 174 533 164 q 658 206 613 185 l 736 64 q 599 4 674 25 q 458 -17 524 -17 z "},"ẻ":{"ha":833,"x_min":69,"x_max":764,"o":"m 442 531 q 310 431 339 531 l 553 431 q 442 531 538 531 m 458 -17 q 260 26 349 -17 q 121 151 172 69 q 69 347 69 232 q 122 542 69 461 q 257 667 174 624 q 433 711 340 711 q 617 666 543 711 q 727 544 690 621 q 764 375 764 468 q 760 316 764 344 q 754 275 757 288 l 308 275 q 369 190 324 217 q 492 164 415 164 q 573 174 533 164 q 658 206 613 185 l 736 64 q 599 4 674 25 q 458 -17 524 -17 m 364 786 l 347 878 q 387 890 371 881 q 403 919 403 899 q 379 957 403 943 q 294 975 356 971 l 308 1119 q 468 1092 410 1117 q 551 1028 526 1068 q 575 936 575 988 q 546 854 575 886 q 469 806 517 822 q 364 786 421 789 z "},"ẽ":{"ha":833,"x_min":69,"x_max":764,"o":"m 442 531 q 310 431 339 531 l 553 431 q 442 531 538 531 m 458 -17 q 260 26 349 -17 q 121 151 172 69 q 69 347 69 232 q 122 542 69 461 q 257 667 174 624 q 433 711 340 711 q 617 666 543 711 q 727 544 690 621 q 764 375 764 468 q 760 316 764 344 q 754 275 757 288 l 308 275 q 369 190 324 217 q 492 164 415 164 q 573 174 533 164 q 658 206 613 185 l 736 64 q 599 4 674 25 q 458 -17 524 -17 m 519 794 q 446 814 478 794 q 390 853 414 833 q 347 872 365 872 q 320 859 331 872 q 306 808 310 846 l 158 817 q 210 985 161 935 q 342 1036 258 1036 q 415 1017 383 1036 q 472 978 447 997 q 514 958 496 958 q 541 972 531 958 q 556 1022 551 985 l 703 1014 q 652 845 701 896 q 519 794 603 794 z "},"ế":{"ha":833,"x_min":69,"x_max":839,"o":"m 442 531 q 310 431 339 531 l 553 431 q 442 531 538 531 m 458 -17 q 260 26 349 -17 q 121 151 172 69 q 69 347 69 232 q 122 542 69 461 q 257 667 174 624 q 433 711 340 711 q 617 666 543 711 q 727 544 690 621 q 764 375 764 468 q 760 316 764 344 q 754 275 757 288 l 308 275 q 369 190 324 217 q 492 164 415 164 q 573 174 533 164 q 658 206 613 185 l 736 64 q 599 4 674 25 q 458 -17 524 -17 m 286 783 l 211 867 l 336 994 l 525 994 l 650 867 l 575 783 l 433 869 l 428 869 l 286 783 m 697 886 l 608 956 l 714 1136 l 839 1056 l 697 886 z "},"ề":{"ha":833,"x_min":22,"x_max":764,"o":"m 442 531 q 310 431 339 531 l 553 431 q 442 531 538 531 m 458 -17 q 260 26 349 -17 q 121 151 172 69 q 69 347 69 232 q 122 542 69 461 q 257 667 174 624 q 433 711 340 711 q 617 666 543 711 q 727 544 690 621 q 764 375 764 468 q 760 316 764 344 q 754 275 757 288 l 308 275 q 369 190 324 217 q 492 164 415 164 q 573 174 533 164 q 658 206 613 185 l 736 64 q 599 4 674 25 q 458 -17 524 -17 m 286 783 l 211 867 l 336 994 l 525 994 l 650 867 l 575 783 l 433 869 l 428 869 l 286 783 m 164 886 l 22 1056 l 147 1136 l 253 956 l 164 886 z "},"ể":{"ha":833,"x_min":69,"x_max":808,"o":"m 442 531 q 310 431 339 531 l 553 431 q 442 531 538 531 m 458 -17 q 260 26 349 -17 q 121 151 172 69 q 69 347 69 232 q 122 542 69 461 q 257 667 174 624 q 433 711 340 711 q 617 666 543 711 q 727 544 690 621 q 764 375 764 468 q 760 316 764 344 q 754 275 757 288 l 308 275 q 369 190 324 217 q 492 164 415 164 q 573 174 533 164 q 658 206 613 185 l 736 64 q 599 4 674 25 q 458 -17 524 -17 m 286 783 l 211 867 l 336 994 l 525 994 l 650 867 l 575 783 l 433 869 l 428 869 l 286 783 m 633 900 l 619 978 q 646 988 636 981 q 656 1011 656 994 q 638 1038 656 1028 q 567 1053 619 1049 l 589 1150 q 763 1115 717 1146 q 808 1036 808 1085 q 785 960 808 988 q 722 919 761 932 q 633 900 682 906 z "},"ễ":{"ha":833,"x_min":69,"x_max":764,"o":"m 442 531 q 310 431 339 531 l 553 431 q 442 531 538 531 m 458 -17 q 260 26 349 -17 q 121 151 172 69 q 69 347 69 232 q 122 542 69 461 q 257 667 174 624 q 433 711 340 711 q 617 666 543 711 q 727 544 690 621 q 764 375 764 468 q 760 316 764 344 q 754 275 757 288 l 308 275 q 369 190 324 217 q 492 164 415 164 q 573 174 533 164 q 658 206 613 185 l 736 64 q 599 4 674 25 q 458 -17 524 -17 m 286 783 l 211 867 l 336 981 l 525 981 l 650 867 l 575 783 l 433 856 l 428 856 l 286 783 m 508 997 q 446 1012 471 997 q 403 1041 421 1026 q 367 1056 385 1056 q 325 1006 336 1056 l 219 1017 q 264 1145 229 1107 q 353 1183 299 1183 q 415 1169 390 1183 q 458 1140 440 1154 q 494 1125 476 1125 q 536 1175 525 1125 l 642 1164 q 597 1036 632 1075 q 508 997 563 997 z "},"ệ":{"ha":833,"x_min":69,"x_max":764,"o":"m 442 531 q 310 431 339 531 l 553 431 q 442 531 538 531 m 458 -17 q 260 26 349 -17 q 121 151 172 69 q 69 347 69 232 q 122 542 69 461 q 257 667 174 624 q 433 711 340 711 q 617 666 543 711 q 727 544 690 621 q 764 375 764 468 q 760 316 764 344 q 754 275 757 288 l 308 275 q 369 190 324 217 q 492 164 415 164 q 573 174 533 164 q 658 206 613 185 l 736 64 q 599 4 674 25 q 458 -17 524 -17 m 250 775 l 161 858 l 308 1036 l 553 1036 l 700 858 l 611 775 l 433 892 l 428 892 l 250 775 z "},"ḗ":{"ha":833,"x_min":69,"x_max":764,"o":"m 442 531 q 310 431 339 531 l 553 431 q 442 531 538 531 m 458 -17 q 260 26 349 -17 q 121 151 172 69 q 69 347 69 232 q 122 542 69 461 q 257 667 174 624 q 433 711 340 711 q 617 666 543 711 q 727 544 690 621 q 764 375 764 468 q 760 316 764 344 q 754 275 757 288 l 308 275 q 369 190 324 217 q 492 164 415 164 q 573 174 533 164 q 658 206 613 185 l 736 64 q 599 4 674 25 q 458 -17 524 -17 m 217 817 l 217 967 l 644 967 l 644 817 l 217 817 m 394 994 l 317 1089 l 522 1239 l 617 1122 l 394 994 z "},"ǵ":{"ha":833,"x_min":61,"x_max":799,"o":"m 374 -286 q 217 -269 288 -286 q 103 -214 146 -251 q 61 -114 61 -176 q 167 19 61 -31 l 167 25 q 117 73 138 44 q 97 144 97 101 q 121 215 97 181 q 181 275 144 250 l 181 281 q 114 352 142 306 q 86 458 86 399 q 129 601 86 544 q 242 684 172 657 q 393 711 313 711 q 511 694 460 711 l 792 694 l 792 522 l 667 522 q 680 490 674 510 q 686 450 686 471 q 647 317 686 368 q 542 243 608 267 q 393 219 476 219 q 353 222 375 219 q 306 229 331 224 q 288 212 293 219 q 283 189 283 204 q 308 157 283 167 q 392 147 333 147 l 510 147 q 723 105 647 147 q 799 -33 799 63 q 747 -165 799 -108 q 599 -254 694 -222 q 374 -286 504 -286 m 393 361 q 453 385 428 361 q 478 458 478 408 q 453 530 478 507 q 393 553 428 553 q 334 530 358 553 q 310 458 310 507 q 334 385 310 408 q 393 361 358 361 m 411 -139 q 526 -122 481 -139 q 572 -75 572 -104 q 544 -40 572 -47 q 464 -33 517 -33 l 394 -33 q 331 -31 354 -33 q 289 -25 307 -29 q 254 -75 254 -50 q 298 -124 254 -108 q 411 -139 342 -139 m 421 775 l 304 892 l 524 1153 l 685 994 l 421 775 z "},"ĝ":{"ha":833,"x_min":61,"x_max":799,"o":"m 374 -286 q 217 -269 288 -286 q 103 -214 146 -251 q 61 -114 61 -176 q 167 19 61 -31 l 167 25 q 117 73 138 44 q 97 144 97 101 q 121 215 97 181 q 181 275 144 250 l 181 281 q 114 352 142 306 q 86 458 86 399 q 129 601 86 544 q 242 684 172 657 q 393 711 313 711 q 511 694 460 711 l 792 694 l 792 522 l 667 522 q 680 490 674 510 q 686 450 686 471 q 647 317 686 368 q 542 243 608 267 q 393 219 476 219 q 353 222 375 219 q 306 229 331 224 q 288 212 293 219 q 283 189 283 204 q 308 157 283 167 q 392 147 333 147 l 510 147 q 723 105 647 147 q 799 -33 799 63 q 747 -165 799 -108 q 599 -254 694 -222 q 374 -286 504 -286 m 393 361 q 453 385 428 361 q 478 458 478 408 q 453 530 478 507 q 393 553 428 553 q 334 530 358 553 q 310 458 310 507 q 334 385 310 408 q 393 361 358 361 m 411 -139 q 526 -122 481 -139 q 572 -75 572 -104 q 544 -40 572 -47 q 464 -33 517 -33 l 394 -33 q 331 -31 354 -33 q 289 -25 307 -29 q 254 -75 254 -50 q 298 -124 254 -108 q 411 -139 342 -139 m 240 775 l 151 858 l 299 1036 l 543 1036 l 690 858 l 601 775 l 424 892 l 418 892 l 240 775 z "},"ğ":{"ha":833,"x_min":61,"x_max":799,"o":"m 374 -286 q 217 -269 288 -286 q 103 -214 146 -251 q 61 -114 61 -176 q 167 19 61 -31 l 167 25 q 117 73 138 44 q 97 144 97 101 q 121 215 97 181 q 181 275 144 250 l 181 281 q 114 352 142 306 q 86 458 86 399 q 129 601 86 544 q 242 684 172 657 q 393 711 313 711 q 511 694 460 711 l 792 694 l 792 522 l 667 522 q 680 490 674 510 q 686 450 686 471 q 647 317 686 368 q 542 243 608 267 q 393 219 476 219 q 353 222 375 219 q 306 229 331 224 q 288 212 293 219 q 283 189 283 204 q 308 157 283 167 q 392 147 333 147 l 510 147 q 723 105 647 147 q 799 -33 799 63 q 747 -165 799 -108 q 599 -254 694 -222 q 374 -286 504 -286 m 393 361 q 453 385 428 361 q 478 458 478 408 q 453 530 478 507 q 393 553 428 553 q 334 530 358 553 q 310 458 310 507 q 334 385 310 408 q 393 361 358 361 m 411 -139 q 526 -122 481 -139 q 572 -75 572 -104 q 544 -40 572 -47 q 464 -33 517 -33 l 394 -33 q 331 -31 354 -33 q 289 -25 307 -29 q 254 -75 254 -50 q 298 -124 254 -108 q 411 -139 342 -139 m 421 794 q 240 857 299 794 q 179 1017 182 919 l 313 1039 q 345 969 319 997 q 421 942 371 942 q 497 969 471 942 q 529 1039 524 997 l 663 1017 q 603 857 661 919 q 421 794 544 794 z "},"ġ":{"ha":833,"x_min":61,"x_max":799,"o":"m 374 -286 q 217 -269 288 -286 q 103 -214 146 -251 q 61 -114 61 -176 q 167 19 61 -31 l 167 25 q 117 73 138 44 q 97 144 97 101 q 121 215 97 181 q 181 275 144 250 l 181 281 q 114 352 142 306 q 86 458 86 399 q 129 601 86 544 q 242 684 172 657 q 393 711 313 711 q 511 694 460 711 l 792 694 l 792 522 l 667 522 q 680 490 674 510 q 686 450 686 471 q 647 317 686 368 q 542 243 608 267 q 393 219 476 219 q 353 222 375 219 q 306 229 331 224 q 288 212 293 219 q 283 189 283 204 q 308 157 283 167 q 392 147 333 147 l 510 147 q 723 105 647 147 q 799 -33 799 63 q 747 -165 799 -108 q 599 -254 694 -222 q 374 -286 504 -286 m 393 361 q 453 385 428 361 q 478 458 478 408 q 453 530 478 507 q 393 553 428 553 q 334 530 358 553 q 310 458 310 507 q 334 385 310 408 q 393 361 358 361 m 411 -139 q 526 -122 481 -139 q 572 -75 572 -104 q 544 -40 572 -47 q 464 -33 517 -33 l 394 -33 q 331 -31 354 -33 q 289 -25 307 -29 q 254 -75 254 -50 q 298 -124 254 -108 q 411 -139 342 -139 m 421 789 q 311 827 354 789 q 268 928 268 865 q 311 1030 268 990 q 421 1069 354 1069 q 531 1030 488 1069 q 574 928 574 990 q 531 827 574 865 q 421 789 488 789 z "},"ģ":{"ha":833,"x_min":61,"x_max":799,"o":"m 374 -286 q 217 -269 288 -286 q 103 -214 146 -251 q 61 -114 61 -176 q 167 19 61 -31 l 167 25 q 117 73 138 44 q 97 144 97 101 q 121 215 97 181 q 181 275 144 250 l 181 281 q 114 352 142 306 q 86 458 86 399 q 129 601 86 544 q 242 684 172 657 q 393 711 313 711 q 511 694 460 711 l 792 694 l 792 522 l 667 522 q 680 490 674 510 q 686 450 686 471 q 647 317 686 368 q 542 243 608 267 q 393 219 476 219 q 353 222 375 219 q 306 229 331 224 q 288 212 293 219 q 283 189 283 204 q 308 157 283 167 q 392 147 333 147 l 510 147 q 723 105 647 147 q 799 -33 799 63 q 747 -165 799 -108 q 599 -254 694 -222 q 374 -286 504 -286 m 393 361 q 453 385 428 361 q 478 458 478 408 q 453 530 478 507 q 393 553 428 553 q 334 530 358 553 q 310 458 310 507 q 334 385 310 408 q 393 361 358 361 m 411 -139 q 526 -122 481 -139 q 572 -75 572 -104 q 544 -40 572 -47 q 464 -33 517 -33 l 394 -33 q 331 -31 354 -33 q 289 -25 307 -29 q 254 -75 254 -50 q 298 -124 254 -108 q 411 -139 342 -139 m 488 786 q 324 824 369 794 q 279 906 279 854 q 356 1016 279 981 q 571 1056 433 1051 l 588 964 q 478 949 508 960 q 449 914 449 938 q 467 885 449 897 q 532 869 486 874 l 488 786 z "},"ǧ":{"ha":833,"x_min":61,"x_max":799,"o":"m 374 -286 q 217 -269 288 -286 q 103 -214 146 -251 q 61 -114 61 -176 q 167 19 61 -31 l 167 25 q 117 73 138 44 q 97 144 97 101 q 121 215 97 181 q 181 275 144 250 l 181 281 q 114 352 142 306 q 86 458 86 399 q 129 601 86 544 q 242 684 172 657 q 393 711 313 711 q 511 694 460 711 l 792 694 l 792 522 l 667 522 q 680 490 674 510 q 686 450 686 471 q 647 317 686 368 q 542 243 608 267 q 393 219 476 219 q 353 222 375 219 q 306 229 331 224 q 288 212 293 219 q 283 189 283 204 q 308 157 283 167 q 392 147 333 147 l 510 147 q 723 105 647 147 q 799 -33 799 63 q 747 -165 799 -108 q 599 -254 694 -222 q 374 -286 504 -286 m 393 361 q 453 385 428 361 q 478 458 478 408 q 453 530 478 507 q 393 553 428 553 q 334 530 358 553 q 310 458 310 507 q 334 385 310 408 q 393 361 358 361 m 411 -139 q 526 -122 481 -139 q 572 -75 572 -104 q 544 -40 572 -47 q 464 -33 517 -33 l 394 -33 q 331 -31 354 -33 q 289 -25 307 -29 q 254 -75 254 -50 q 298 -124 254 -108 q 411 -139 342 -139 m 299 803 l 151 981 l 240 1064 l 418 947 l 424 947 l 601 1064 l 690 981 l 543 803 l 299 803 z "},"ḡ":{"ha":833,"x_min":61,"x_max":799,"o":"m 374 -286 q 217 -269 288 -286 q 103 -214 146 -251 q 61 -114 61 -176 q 167 19 61 -31 l 167 25 q 117 73 138 44 q 97 144 97 101 q 121 215 97 181 q 181 275 144 250 l 181 281 q 114 352 142 306 q 86 458 86 399 q 129 601 86 544 q 242 684 172 657 q 393 711 313 711 q 511 694 460 711 l 792 694 l 792 522 l 667 522 q 680 490 674 510 q 686 450 686 471 q 647 317 686 368 q 542 243 608 267 q 393 219 476 219 q 353 222 375 219 q 306 229 331 224 q 288 212 293 219 q 283 189 283 204 q 308 157 283 167 q 392 147 333 147 l 510 147 q 723 105 647 147 q 799 -33 799 63 q 747 -165 799 -108 q 599 -254 694 -222 q 374 -286 504 -286 m 393 361 q 453 385 428 361 q 478 458 478 408 q 453 530 478 507 q 393 553 428 553 q 334 530 358 553 q 310 458 310 507 q 334 385 310 408 q 393 361 358 361 m 411 -139 q 526 -122 481 -139 q 572 -75 572 -104 q 544 -40 572 -47 q 464 -33 517 -33 l 394 -33 q 331 -31 354 -33 q 289 -25 307 -29 q 254 -75 254 -50 q 298 -124 254 -108 q 411 -139 342 -139 m 207 817 l 207 967 l 635 967 l 635 817 l 207 817 z "},"ĥ":{"ha":833,"x_min":-39,"x_max":758,"o":"m 89 0 l 89 967 l 328 967 l 328 742 l 314 619 l 319 619 q 408 682 353 653 q 539 711 463 711 q 706 634 654 711 q 758 428 758 557 l 758 0 l 519 0 l 519 397 q 502 482 519 456 q 439 508 485 508 q 381 494 406 508 q 328 456 356 481 l 328 0 l 89 0 m 64 1028 l -39 1089 l 78 1242 l 339 1242 l 456 1089 l 353 1028 l 211 1139 l 206 1139 l 64 1028 z "},"ḧ":{"ha":833,"x_min":-69,"x_max":758,"o":"m 89 0 l 89 967 l 328 967 l 328 742 l 314 619 l 319 619 q 408 682 353 653 q 539 711 463 711 q 706 634 654 711 q 758 428 758 557 l 758 0 l 519 0 l 519 397 q 502 482 519 456 q 439 508 485 508 q 381 494 406 508 q 328 456 356 481 l 328 0 l 89 0 m 44 1047 q -37 1081 -6 1047 q -69 1161 -69 1114 q -37 1242 -69 1210 q 44 1275 -6 1275 q 126 1242 94 1275 q 158 1161 158 1210 q 126 1081 158 1114 q 44 1047 94 1047 m 372 1047 q 290 1081 322 1047 q 258 1161 258 1114 q 290 1242 258 1210 q 372 1275 322 1275 q 454 1242 422 1275 q 486 1161 486 1210 q 454 1081 486 1114 q 372 1047 422 1047 z "},"ḥ":{"ha":833,"x_min":89,"x_max":758,"o":"m 89 0 l 89 967 l 328 967 l 328 742 l 314 619 l 319 619 q 408 682 353 653 q 539 711 463 711 q 706 634 654 711 q 758 428 758 557 l 758 0 l 519 0 l 519 397 q 502 482 519 456 q 439 508 485 508 q 381 494 406 508 q 328 456 356 481 l 328 0 l 89 0 z "},"ẖ":{"ha":833,"x_min":89,"x_max":758,"o":"m 89 0 l 89 967 l 328 967 l 328 742 l 314 619 l 319 619 q 408 682 353 653 q 539 711 463 711 q 706 634 654 711 q 758 428 758 557 l 758 0 l 519 0 l 519 397 q 502 482 519 456 q 439 508 485 508 q 381 494 406 508 q 328 456 356 481 l 328 0 l 89 0 z "},"ḩ":{"ha":833,"x_min":42,"x_max":758,"o":"m 89 0 l 89 967 l 328 967 l 328 742 l 314 619 l 319 619 q 408 682 353 653 q 539 711 463 711 q 706 634 654 711 q 758 428 758 557 l 758 0 l 519 0 l 519 397 q 502 482 519 456 q 439 508 485 508 q 381 494 406 508 q 328 456 356 481 l 328 0 l 89 0 m 58 -339 l 42 -247 q 151 -231 121 -243 q 181 -189 181 -218 q 160 -156 181 -169 q 75 -133 140 -142 l 150 17 l 286 17 l 242 -83 q 323 -120 296 -96 q 350 -189 350 -144 q 273 -299 350 -264 q 58 -339 196 -335 z "},"ḫ":{"ha":833,"x_min":89,"x_max":758,"o":"m 89 0 l 89 967 l 328 967 l 328 742 l 314 619 l 319 619 q 408 682 353 653 q 539 711 463 711 q 706 634 654 711 q 758 428 758 557 l 758 0 l 519 0 l 519 397 q 502 482 519 456 q 439 508 485 508 q 381 494 406 508 q 328 456 356 481 l 328 0 l 89 0 z "},"ħ":{"ha":833,"x_min":0,"x_max":758,"o":"m 89 0 l 89 764 l 0 764 l 0 867 l 89 874 l 89 967 l 328 967 l 328 875 l 564 875 l 564 764 l 328 764 l 328 714 l 314 592 l 319 592 q 408 654 353 625 q 539 683 463 683 q 706 606 654 683 q 758 400 758 529 l 758 0 l 519 0 l 519 369 q 502 454 519 428 q 439 481 485 481 q 381 467 406 481 q 328 428 356 453 l 328 0 l 89 0 z "},"ì":{"ha":833,"x_min":103,"x_max":606,"o":"m 367 0 l 367 508 l 103 508 l 103 694 l 606 694 l 606 0 l 367 0 m 478 775 l 214 994 l 375 1153 l 594 892 l 478 775 z "},"í":{"ha":833,"x_min":103,"x_max":742,"o":"m 367 0 l 367 508 l 103 508 l 103 694 l 606 694 l 606 0 l 367 0 m 478 775 l 361 892 l 581 1153 l 742 994 l 478 775 z "},"î":{"ha":833,"x_min":103,"x_max":747,"o":"m 367 0 l 367 508 l 103 508 l 103 694 l 606 694 l 606 0 l 367 0 m 297 775 l 208 858 l 356 1036 l 600 1036 l 747 858 l 658 775 l 481 892 l 475 892 l 297 775 z "},"ĩ":{"ha":833,"x_min":103,"x_max":750,"o":"m 367 0 l 367 508 l 103 508 l 103 694 l 606 694 l 606 0 l 367 0 m 567 794 q 493 814 525 794 q 437 853 461 833 q 394 872 413 872 q 367 859 378 872 q 353 808 357 846 l 206 817 q 257 985 208 935 q 389 1036 306 1036 q 463 1017 431 1036 q 519 978 494 997 q 561 958 543 958 q 588 972 578 958 q 603 1022 599 985 l 750 1014 q 699 845 749 896 q 567 794 650 794 z "},"ï":{"ha":833,"x_min":103,"x_max":764,"o":"m 367 0 l 367 508 l 103 508 l 103 694 l 606 694 l 606 0 l 367 0 m 317 783 q 226 819 261 783 q 192 908 192 856 q 226 997 192 961 q 317 1033 261 1033 q 407 997 372 1033 q 442 908 442 961 q 407 819 442 856 q 317 783 372 783 m 639 783 q 549 819 583 783 q 514 908 514 856 q 549 997 514 961 q 639 1033 583 1033 q 729 997 694 1033 q 764 908 764 961 q 729 819 764 856 q 639 783 694 783 z "},"ī":{"ha":833,"x_min":103,"x_max":692,"o":"m 367 0 l 367 508 l 103 508 l 103 694 l 606 694 l 606 0 l 367 0 m 264 817 l 264 967 l 692 967 l 692 817 l 264 817 z "},"ǐ":{"ha":833,"x_min":103,"x_max":747,"o":"m 367 0 l 367 508 l 103 508 l 103 694 l 606 694 l 606 0 l 367 0 m 356 803 l 208 981 l 297 1064 l 475 947 l 481 947 l 658 1064 l 747 981 l 600 803 l 356 803 z "},"į":{"ha":833,"x_min":103,"x_max":653,"o":"m 486 -317 q 367 -281 417 -317 q 317 -175 317 -244 q 355 -66 317 -110 q 436 0 393 -22 l 367 0 l 367 508 l 103 508 l 103 694 l 606 694 l 606 0 q 503 -54 532 -21 q 475 -119 475 -87 q 496 -163 475 -149 q 546 -178 517 -178 q 576 -173 561 -178 q 606 -161 592 -168 l 653 -267 q 574 -303 622 -290 q 486 -317 525 -317 m 478 789 q 368 827 411 789 q 325 928 325 865 q 368 1030 325 990 q 478 1069 411 1069 q 588 1030 544 1069 q 631 928 631 990 q 588 827 631 865 q 478 789 544 789 z "},"ỉ":{"ha":833,"x_min":103,"x_max":622,"o":"m 367 0 l 367 508 l 103 508 l 103 694 l 606 694 l 606 0 l 367 0 m 411 786 l 394 878 q 434 890 418 881 q 450 919 450 899 q 426 957 450 943 q 342 975 403 971 l 356 1119 q 515 1092 457 1117 q 598 1028 574 1068 q 622 936 622 988 q 593 854 622 886 q 516 806 564 822 q 411 786 468 789 z "},"ị":{"ha":833,"x_min":103,"x_max":631,"o":"m 367 0 l 367 508 l 103 508 l 103 694 l 606 694 l 606 0 l 367 0 m 478 789 q 368 827 411 789 q 325 928 325 865 q 368 1030 325 990 q 478 1069 411 1069 q 588 1030 544 1069 q 631 928 631 990 q 588 827 631 865 q 478 789 544 789 z "},"ĭ":{"ha":833,"x_min":103,"x_max":719,"o":"m 367 0 l 367 508 l 103 508 l 103 694 l 606 694 l 606 0 l 367 0 m 478 794 q 297 857 356 794 q 236 1017 239 919 l 369 1039 q 402 969 376 997 q 478 942 428 942 q 554 969 528 942 q 586 1039 581 997 l 719 1017 q 660 857 718 919 q 478 794 601 794 z "},"ı":{"ha":833,"x_min":103,"x_max":606,"o":"m 367 0 l 367 508 l 103 508 l 103 694 l 606 694 l 606 0 l 367 0 z "},"ĵ":{"ha":833,"x_min":51,"x_max":747,"o":"m 271 -261 q 150 -248 203 -261 q 51 -214 97 -235 l 119 -44 q 196 -69 164 -62 q 254 -75 228 -75 q 342 -45 318 -75 q 367 56 367 -15 l 367 508 l 103 508 l 103 694 l 606 694 l 606 64 q 590 -58 606 0 q 536 -162 574 -117 q 434 -235 499 -208 q 271 -261 369 -261 m 297 775 l 208 858 l 356 1036 l 600 1036 l 747 858 l 658 775 l 481 892 l 475 892 l 297 775 z "},"ķ":{"ha":833,"x_min":89,"x_max":819,"o":"m 89 0 l 89 967 l 328 967 l 328 447 l 333 447 l 544 694 l 803 694 l 544 408 l 819 0 l 561 0 l 408 258 l 328 169 l 328 0 l 89 0 m 294 -339 l 278 -247 q 387 -231 357 -243 q 417 -197 417 -219 q 398 -169 417 -181 q 333 -153 379 -157 l 378 -69 q 542 -107 497 -78 q 586 -189 586 -136 q 509 -299 586 -264 q 294 -339 432 -335 z "},"ḳ":{"ha":833,"x_min":89,"x_max":819,"o":"m 89 0 l 89 967 l 328 967 l 328 447 l 333 447 l 544 694 l 803 694 l 544 408 l 819 0 l 561 0 l 408 258 l 328 169 l 328 0 l 89 0 z "},"ḵ":{"ha":833,"x_min":89,"x_max":819,"o":"m 89 0 l 89 967 l 328 967 l 328 447 l 333 447 l 544 694 l 803 694 l 544 408 l 819 0 l 561 0 l 408 258 l 328 169 l 328 0 l 89 0 z "},"ĸ":{"ha":833,"x_min":89,"x_max":819,"o":"m 89 0 l 89 694 l 328 694 l 328 453 l 333 453 l 544 694 l 803 694 l 546 406 l 819 0 l 561 0 l 410 247 l 328 167 l 328 0 l 89 0 z "},"ĺ":{"ha":833,"x_min":56,"x_max":758,"o":"m 543 -17 q 334 67 404 -17 q 264 286 264 151 l 264 781 l 56 781 l 56 967 l 503 967 l 503 278 q 537 197 503 218 q 607 175 571 175 q 707 194 650 175 l 758 19 q 657 -7 703 3 q 543 -17 611 -17 m 319 1019 l 214 1139 l 467 1339 l 592 1186 l 319 1019 z "},"ľ":{"ha":833,"x_min":56,"x_max":783,"o":"m 543 -17 q 334 67 404 -17 q 264 286 264 151 l 264 781 l 56 781 l 56 967 l 503 967 l 503 278 q 537 197 503 218 q 607 175 571 175 q 707 194 650 175 l 758 19 q 657 -7 703 3 q 543 -17 611 -17 m 581 761 l 572 1144 l 783 1144 l 781 1000 l 742 761 l 581 761 z "},"ļ":{"ha":833,"x_min":56,"x_max":758,"o":"m 543 -17 q 334 67 404 -17 q 264 286 264 151 l 264 781 l 56 781 l 56 967 l 503 967 l 503 278 q 537 197 503 218 q 607 175 571 175 q 707 194 650 175 l 758 19 q 657 -7 703 3 q 543 -17 611 -17 m 350 -339 l 333 -247 q 442 -231 413 -243 q 472 -197 472 -219 q 453 -169 472 -181 q 389 -153 435 -157 l 433 -69 q 597 -107 553 -78 q 642 -189 642 -136 q 565 -299 642 -264 q 350 -339 488 -335 z "},"ḷ":{"ha":833,"x_min":56,"x_max":758,"o":"m 543 -17 q 334 67 404 -17 q 264 286 264 151 l 264 781 l 56 781 l 56 967 l 503 967 l 503 278 q 537 197 503 218 q 607 175 571 175 q 707 194 650 175 l 758 19 q 657 -7 703 3 q 543 -17 611 -17 z "},"ḹ":{"ha":833,"x_min":56,"x_max":758,"o":"m 543 -17 q 334 67 404 -17 q 264 286 264 151 l 264 781 l 56 781 l 56 967 l 503 967 l 503 278 q 537 197 503 218 q 607 175 571 175 q 707 194 650 175 l 758 19 q 657 -7 703 3 q 543 -17 611 -17 m 156 1078 l 156 1228 l 594 1228 l 594 1078 l 156 1078 z "},"ḻ":{"ha":833,"x_min":56,"x_max":758,"o":"m 543 -17 q 334 67 404 -17 q 264 286 264 151 l 264 781 l 56 781 l 56 967 l 503 967 l 503 278 q 537 197 503 218 q 607 175 571 175 q 707 194 650 175 l 758 19 q 657 -7 703 3 q 543 -17 611 -17 z "},"ł":{"ha":833,"x_min":56,"x_max":758,"o":"m 543 -17 q 334 67 404 -17 q 264 286 264 151 l 264 357 l 158 297 l 78 444 l 264 547 l 264 781 l 56 781 l 56 967 l 503 967 l 503 658 l 658 744 l 739 597 l 503 469 l 503 278 q 537 197 503 218 q 607 175 571 175 q 707 194 650 175 l 758 19 q 657 -7 703 3 q 543 -17 611 -17 z "},"ŀ":{"ha":833,"x_min":-19,"x_max":917,"o":"m 468 -17 q 259 67 329 -17 q 189 286 189 151 l 189 781 l -19 781 l -19 967 l 428 967 l 428 278 q 462 197 428 218 q 532 175 496 175 q 632 194 575 175 l 683 19 q 582 -7 628 3 q 468 -17 536 -17 m 764 361 q 654 399 697 361 q 611 500 611 438 q 654 602 611 563 q 764 642 697 642 q 874 602 831 642 q 917 500 917 563 q 874 399 917 438 q 764 361 831 361 z "},"ḿ":{"ha":833,"x_min":36,"x_max":806,"o":"m 36 0 l 36 694 l 214 694 l 231 611 l 236 611 q 288 681 253 651 q 383 711 324 711 q 458 683 426 711 q 500 600 489 654 q 553 678 515 644 q 650 711 590 711 q 765 649 725 711 q 806 483 806 588 l 806 0 l 581 0 l 581 467 q 557 508 581 508 q 511 456 529 508 l 511 0 l 331 0 l 331 467 q 303 508 331 508 q 261 456 279 508 l 261 0 l 36 0 m 450 781 l 333 897 l 553 1158 l 714 1000 l 450 781 z "},"ṁ":{"ha":833,"x_min":36,"x_max":806,"o":"m 36 0 l 36 694 l 214 694 l 231 611 l 236 611 q 288 681 253 651 q 383 711 324 711 q 458 683 426 711 q 500 600 489 654 q 553 678 515 644 q 650 711 590 711 q 765 649 725 711 q 806 483 806 588 l 806 0 l 581 0 l 581 467 q 557 508 581 508 q 511 456 529 508 l 511 0 l 331 0 l 331 467 q 303 508 331 508 q 261 456 279 508 l 261 0 l 36 0 m 450 794 q 340 833 383 794 q 297 933 297 871 q 340 1035 297 996 q 450 1075 383 1075 q 560 1035 517 1075 q 603 933 603 996 q 560 833 603 871 q 450 794 517 794 z "},"ṃ":{"ha":833,"x_min":36,"x_max":806,"o":"m 36 0 l 36 694 l 214 694 l 231 611 l 236 611 q 288 681 253 651 q 383 711 324 711 q 458 683 426 711 q 500 600 489 654 q 553 678 515 644 q 650 711 590 711 q 765 649 725 711 q 806 483 806 588 l 806 0 l 581 0 l 581 467 q 557 508 581 508 q 511 456 529 508 l 511 0 l 331 0 l 331 467 q 303 508 331 508 q 261 456 279 508 l 261 0 l 36 0 z "},"ń":{"ha":833,"x_min":89,"x_max":758,"o":"m 89 0 l 89 694 l 283 694 l 300 611 l 306 611 q 404 681 347 651 q 538 711 461 711 q 706 634 653 711 q 758 428 758 557 l 758 0 l 519 0 l 519 397 q 502 482 519 456 q 439 508 485 508 q 381 494 406 508 q 328 456 356 481 l 328 0 l 89 0 m 436 775 l 319 892 l 539 1153 l 700 994 l 436 775 z "},"ǹ":{"ha":833,"x_min":89,"x_max":758,"o":"m 89 0 l 89 694 l 283 694 l 300 611 l 306 611 q 404 681 347 651 q 538 711 461 711 q 706 634 653 711 q 758 428 758 557 l 758 0 l 519 0 l 519 397 q 502 482 519 456 q 439 508 485 508 q 381 494 406 508 q 328 456 356 481 l 328 0 l 89 0 m 436 775 l 172 994 l 333 1153 l 553 892 l 436 775 z "},"ň":{"ha":833,"x_min":89,"x_max":758,"o":"m 89 0 l 89 694 l 283 694 l 300 611 l 306 611 q 404 681 347 651 q 538 711 461 711 q 706 634 653 711 q 758 428 758 557 l 758 0 l 519 0 l 519 397 q 502 482 519 456 q 439 508 485 508 q 381 494 406 508 q 328 456 356 481 l 328 0 l 89 0 m 314 803 l 167 981 l 256 1064 l 433 947 l 439 947 l 617 1064 l 706 981 l 558 803 l 314 803 z "},"ñ":{"ha":833,"x_min":89,"x_max":758,"o":"m 89 0 l 89 694 l 283 694 l 300 611 l 306 611 q 404 681 347 651 q 538 711 461 711 q 706 634 653 711 q 758 428 758 557 l 758 0 l 519 0 l 519 397 q 502 482 519 456 q 439 508 485 508 q 381 494 406 508 q 328 456 356 481 l 328 0 l 89 0 m 525 794 q 451 814 483 794 q 395 853 419 833 q 353 872 371 872 q 326 859 336 872 q 311 808 315 846 l 164 817 q 215 985 167 935 q 347 1036 264 1036 q 421 1017 389 1036 q 477 978 453 997 q 519 958 501 958 q 547 972 536 958 q 561 1022 557 985 l 708 1014 q 658 845 707 896 q 525 794 608 794 z "},"ņ":{"ha":833,"x_min":89,"x_max":758,"o":"m 89 0 l 89 694 l 283 694 l 300 611 l 306 611 q 404 681 347 651 q 538 711 461 711 q 706 634 653 711 q 758 428 758 557 l 758 0 l 519 0 l 519 397 q 502 482 519 456 q 439 508 485 508 q 381 494 406 508 q 328 456 356 481 l 328 0 l 89 0 m 272 -339 l 256 -247 q 365 -231 335 -243 q 394 -197 394 -219 q 376 -169 394 -181 q 311 -153 357 -157 l 356 -69 q 519 -107 475 -78 q 564 -189 564 -136 q 487 -299 564 -264 q 272 -339 410 -335 z "},"ṅ":{"ha":833,"x_min":89,"x_max":758,"o":"m 89 0 l 89 694 l 283 694 l 300 611 l 306 611 q 404 681 347 651 q 538 711 461 711 q 706 634 653 711 q 758 428 758 557 l 758 0 l 519 0 l 519 397 q 502 482 519 456 q 439 508 485 508 q 381 494 406 508 q 328 456 356 481 l 328 0 l 89 0 m 436 789 q 326 827 369 789 q 283 928 283 865 q 326 1030 283 990 q 436 1069 369 1069 q 546 1030 503 1069 q 589 928 589 990 q 546 827 589 865 q 436 789 503 789 z "},"ṇ":{"ha":833,"x_min":89,"x_max":758,"o":"m 89 0 l 89 694 l 283 694 l 300 611 l 306 611 q 404 681 347 651 q 538 711 461 711 q 706 634 653 711 q 758 428 758 557 l 758 0 l 519 0 l 519 397 q 502 482 519 456 q 439 508 485 508 q 381 494 406 508 q 328 456 356 481 l 328 0 l 89 0 z "},"ṉ":{"ha":833,"x_min":89,"x_max":758,"o":"m 89 0 l 89 694 l 283 694 l 300 611 l 306 611 q 404 681 347 651 q 538 711 461 711 q 706 634 653 711 q 758 428 758 557 l 758 0 l 519 0 l 519 397 q 502 482 519 456 q 439 508 485 508 q 381 494 406 508 q 328 456 356 481 l 328 0 l 89 0 z "},"ŉ":{"ha":833,"x_min":-81,"x_max":919,"o":"m 311 0 l 311 694 l 506 694 l 522 611 l 528 611 q 613 681 565 651 q 726 711 660 711 q 874 634 828 711 q 919 428 919 557 l 919 0 l 681 0 l 681 397 q 669 482 681 456 q 628 508 657 508 q 587 494 603 508 q 550 456 571 481 l 550 0 l 311 0 m -18 371 l -78 494 q 82 679 72 556 q 70 677 76 678 q 57 676 64 676 q -42 714 -3 676 q -81 814 -81 751 q -40 925 -81 883 q 64 967 1 967 q 196 903 150 967 q 242 724 242 839 q 178 518 242 607 q -18 371 114 429 z "},"ò":{"ha":833,"x_min":58,"x_max":775,"o":"m 417 -17 q 243 26 325 -17 q 110 151 161 69 q 58 347 58 232 q 110 544 58 463 q 243 668 161 625 q 417 711 325 711 q 590 668 508 711 q 724 544 672 625 q 775 347 775 463 q 724 151 775 232 q 590 26 672 69 q 417 -17 508 -17 m 417 175 q 504 222 478 175 q 531 347 531 268 q 504 473 531 426 q 417 519 478 519 q 330 473 357 519 q 303 347 303 426 q 330 222 303 268 q 417 175 357 175 m 417 775 l 153 994 l 314 1153 l 533 892 l 417 775 z "},"ó":{"ha":833,"x_min":58,"x_max":775,"o":"m 417 -17 q 243 26 325 -17 q 110 151 161 69 q 58 347 58 232 q 110 544 58 463 q 243 668 161 625 q 417 711 325 711 q 590 668 508 711 q 724 544 672 625 q 775 347 775 463 q 724 151 775 232 q 590 26 672 69 q 417 -17 508 -17 m 417 175 q 504 222 478 175 q 531 347 531 268 q 504 473 531 426 q 417 519 478 519 q 330 473 357 519 q 303 347 303 426 q 330 222 303 268 q 417 175 357 175 m 417 775 l 300 892 l 519 1153 l 681 994 l 417 775 z "},"ô":{"ha":833,"x_min":58,"x_max":775,"o":"m 417 -17 q 243 26 325 -17 q 110 151 161 69 q 58 347 58 232 q 110 544 58 463 q 243 668 161 625 q 417 711 325 711 q 590 668 508 711 q 724 544 672 625 q 775 347 775 463 q 724 151 775 232 q 590 26 672 69 q 417 -17 508 -17 m 417 175 q 504 222 478 175 q 531 347 531 268 q 504 473 531 426 q 417 519 478 519 q 330 473 357 519 q 303 347 303 426 q 330 222 303 268 q 417 175 357 175 m 236 775 l 147 858 l 294 1036 l 539 1036 l 686 858 l 597 775 l 419 892 l 414 892 l 236 775 z "},"õ":{"ha":833,"x_min":58,"x_max":775,"o":"m 417 -17 q 243 26 325 -17 q 110 151 161 69 q 58 347 58 232 q 110 544 58 463 q 243 668 161 625 q 417 711 325 711 q 590 668 508 711 q 724 544 672 625 q 775 347 775 463 q 724 151 775 232 q 590 26 672 69 q 417 -17 508 -17 m 417 175 q 504 222 478 175 q 531 347 531 268 q 504 473 531 426 q 417 519 478 519 q 330 473 357 519 q 303 347 303 426 q 330 222 303 268 q 417 175 357 175 m 506 794 q 432 814 464 794 q 376 853 400 833 q 333 872 351 872 q 306 859 317 872 q 292 808 296 846 l 144 817 q 196 985 147 935 q 328 1036 244 1036 q 401 1017 369 1036 q 458 978 433 997 q 500 958 482 958 q 527 972 517 958 q 542 1022 538 985 l 689 1014 q 638 845 688 896 q 506 794 589 794 z "},"ö":{"ha":833,"x_min":58,"x_max":775,"o":"m 417 -17 q 243 26 325 -17 q 110 151 161 69 q 58 347 58 232 q 110 544 58 463 q 243 668 161 625 q 417 711 325 711 q 590 668 508 711 q 724 544 672 625 q 775 347 775 463 q 724 151 775 232 q 590 26 672 69 q 417 -17 508 -17 m 417 175 q 504 222 478 175 q 531 347 531 268 q 504 473 531 426 q 417 519 478 519 q 330 473 357 519 q 303 347 303 426 q 330 222 303 268 q 417 175 357 175 m 256 783 q 165 819 200 783 q 131 908 131 856 q 165 997 131 961 q 256 1033 200 1033 q 346 997 311 1033 q 381 908 381 961 q 346 819 381 856 q 256 783 311 783 m 578 783 q 488 819 522 783 q 453 908 453 856 q 488 997 453 961 q 578 1033 522 1033 q 668 997 633 1033 q 703 908 703 961 q 668 819 703 856 q 578 783 633 783 z "},"ō":{"ha":833,"x_min":58,"x_max":775,"o":"m 417 -17 q 243 26 325 -17 q 110 151 161 69 q 58 347 58 232 q 110 544 58 463 q 243 668 161 625 q 417 711 325 711 q 590 668 508 711 q 724 544 672 625 q 775 347 775 463 q 724 151 775 232 q 590 26 672 69 q 417 -17 508 -17 m 417 175 q 504 222 478 175 q 531 347 531 268 q 504 473 531 426 q 417 519 478 519 q 330 473 357 519 q 303 347 303 426 q 330 222 303 268 q 417 175 357 175 m 203 817 l 203 967 l 631 967 l 631 817 l 203 817 z "},"ő":{"ha":833,"x_min":58,"x_max":775,"o":"m 417 -17 q 243 26 325 -17 q 110 151 161 69 q 58 347 58 232 q 110 544 58 463 q 243 668 161 625 q 417 711 325 711 q 590 668 508 711 q 724 544 672 625 q 775 347 775 463 q 724 151 775 232 q 590 26 672 69 q 417 -17 508 -17 m 417 175 q 504 222 478 175 q 531 347 531 268 q 504 473 531 426 q 417 519 478 519 q 330 473 357 519 q 303 347 303 426 q 330 222 303 268 q 417 175 357 175 m 344 783 l 219 839 l 342 1094 l 500 1025 l 344 783 m 608 783 l 483 839 l 606 1094 l 764 1025 l 608 783 z "},"ǒ":{"ha":833,"x_min":58,"x_max":775,"o":"m 417 -17 q 243 26 325 -17 q 110 151 161 69 q 58 347 58 232 q 110 544 58 463 q 243 668 161 625 q 417 711 325 711 q 590 668 508 711 q 724 544 672 625 q 775 347 775 463 q 724 151 775 232 q 590 26 672 69 q 417 -17 508 -17 m 417 175 q 504 222 478 175 q 531 347 531 268 q 504 473 531 426 q 417 519 478 519 q 330 473 357 519 q 303 347 303 426 q 330 222 303 268 q 417 175 357 175 m 294 803 l 147 981 l 236 1064 l 414 947 l 419 947 l 597 1064 l 686 981 l 539 803 l 294 803 z "},"ǫ":{"ha":833,"x_min":58,"x_max":775,"o":"m 442 -317 q 326 -281 374 -317 q 278 -175 278 -246 q 307 -76 278 -118 q 363 -12 336 -35 q 213 46 282 0 q 101 168 143 92 q 58 347 58 244 q 110 544 58 463 q 243 668 161 625 q 417 711 325 711 q 591 668 510 711 q 724 544 672 625 q 775 347 775 463 q 708 132 775 213 q 533 3 642 51 q 459 -55 482 -21 q 436 -119 436 -89 q 458 -164 436 -150 q 500 -178 479 -178 q 540 -172 524 -178 q 567 -161 557 -167 l 614 -267 q 536 -303 585 -289 q 442 -317 488 -317 m 417 169 q 504 217 478 169 q 531 347 531 264 q 504 473 531 426 q 417 519 478 519 q 330 473 357 519 q 303 347 303 426 q 330 217 303 264 q 417 169 357 169 z "},"ọ":{"ha":833,"x_min":58,"x_max":775,"o":"m 417 -17 q 243 26 325 -17 q 110 151 161 69 q 58 347 58 232 q 110 544 58 463 q 243 668 161 625 q 417 711 325 711 q 590 668 508 711 q 724 544 672 625 q 775 347 775 463 q 724 151 775 232 q 590 26 672 69 q 417 -17 508 -17 m 417 175 q 504 222 478 175 q 531 347 531 268 q 504 473 531 426 q 417 519 478 519 q 330 473 357 519 q 303 347 303 426 q 330 222 303 268 q 417 175 357 175 z "},"ỏ":{"ha":833,"x_min":58,"x_max":775,"o":"m 417 -17 q 243 26 325 -17 q 110 151 161 69 q 58 347 58 232 q 110 544 58 463 q 243 668 161 625 q 417 711 325 711 q 590 668 508 711 q 724 544 672 625 q 775 347 775 463 q 724 151 775 232 q 590 26 672 69 q 417 -17 508 -17 m 417 175 q 504 222 478 175 q 531 347 531 268 q 504 473 531 426 q 417 519 478 519 q 330 473 357 519 q 303 347 303 426 q 330 222 303 268 q 417 175 357 175 m 350 786 l 333 878 q 373 890 357 881 q 389 919 389 899 q 365 957 389 943 q 281 975 342 971 l 294 1119 q 454 1092 396 1117 q 537 1028 513 1068 q 561 936 561 988 q 532 854 561 886 q 455 806 503 822 q 350 786 407 789 z "},"ố":{"ha":833,"x_min":58,"x_max":825,"o":"m 417 -17 q 243 26 325 -17 q 110 151 161 69 q 58 347 58 232 q 110 544 58 463 q 243 668 161 625 q 417 711 325 711 q 590 668 508 711 q 724 544 672 625 q 775 347 775 463 q 724 151 775 232 q 590 26 672 69 q 417 -17 508 -17 m 417 175 q 504 222 478 175 q 531 347 531 268 q 504 473 531 426 q 417 519 478 519 q 330 473 357 519 q 303 347 303 426 q 330 222 303 268 q 417 175 357 175 m 272 783 l 197 867 l 322 994 l 511 994 l 636 867 l 561 783 l 419 869 l 414 869 l 272 783 m 683 886 l 594 956 l 700 1136 l 825 1056 l 683 886 z "},"ồ":{"ha":833,"x_min":8,"x_max":775,"o":"m 417 -17 q 243 26 325 -17 q 110 151 161 69 q 58 347 58 232 q 110 544 58 463 q 243 668 161 625 q 417 711 325 711 q 590 668 508 711 q 724 544 672 625 q 775 347 775 463 q 724 151 775 232 q 590 26 672 69 q 417 -17 508 -17 m 417 175 q 504 222 478 175 q 531 347 531 268 q 504 473 531 426 q 417 519 478 519 q 330 473 357 519 q 303 347 303 426 q 330 222 303 268 q 417 175 357 175 m 272 783 l 197 867 l 322 994 l 511 994 l 636 867 l 561 783 l 419 869 l 414 869 l 272 783 m 150 886 l 8 1056 l 133 1136 l 239 956 l 150 886 z "},"ổ":{"ha":833,"x_min":58,"x_max":794,"o":"m 417 -17 q 243 26 325 -17 q 110 151 161 69 q 58 347 58 232 q 110 544 58 463 q 243 668 161 625 q 417 711 325 711 q 590 668 508 711 q 724 544 672 625 q 775 347 775 463 q 724 151 775 232 q 590 26 672 69 q 417 -17 508 -17 m 417 175 q 504 222 478 175 q 531 347 531 268 q 504 473 531 426 q 417 519 478 519 q 330 473 357 519 q 303 347 303 426 q 330 222 303 268 q 417 175 357 175 m 272 783 l 197 867 l 322 994 l 511 994 l 636 867 l 561 783 l 419 869 l 414 869 l 272 783 m 619 900 l 606 978 q 632 988 622 981 q 642 1011 642 994 q 624 1038 642 1028 q 553 1053 606 1049 l 575 1150 q 749 1115 703 1146 q 794 1036 794 1085 q 771 960 794 988 q 708 919 747 932 q 619 900 668 906 z "},"ỗ":{"ha":833,"x_min":58,"x_max":775,"o":"m 417 -17 q 243 26 325 -17 q 110 151 161 69 q 58 347 58 232 q 110 544 58 463 q 243 668 161 625 q 417 711 325 711 q 590 668 508 711 q 724 544 672 625 q 775 347 775 463 q 724 151 775 232 q 590 26 672 69 q 417 -17 508 -17 m 417 175 q 504 222 478 175 q 531 347 531 268 q 504 473 531 426 q 417 519 478 519 q 330 473 357 519 q 303 347 303 426 q 330 222 303 268 q 417 175 357 175 m 272 783 l 197 867 l 322 981 l 511 981 l 636 867 l 561 783 l 419 856 l 414 856 l 272 783 m 494 997 q 432 1012 457 997 q 389 1041 407 1026 q 353 1056 371 1056 q 311 1006 322 1056 l 206 1017 q 250 1145 215 1107 q 339 1183 285 1183 q 401 1169 376 1183 q 444 1140 426 1154 q 481 1125 463 1125 q 522 1175 511 1125 l 628 1164 q 583 1036 618 1075 q 494 997 549 997 z "},"ộ":{"ha":833,"x_min":58,"x_max":775,"o":"m 417 -17 q 243 26 325 -17 q 110 151 161 69 q 58 347 58 232 q 110 544 58 463 q 243 668 161 625 q 417 711 325 711 q 590 668 508 711 q 724 544 672 625 q 775 347 775 463 q 724 151 775 232 q 590 26 672 69 q 417 -17 508 -17 m 417 175 q 504 222 478 175 q 531 347 531 268 q 504 473 531 426 q 417 519 478 519 q 330 473 357 519 q 303 347 303 426 q 330 222 303 268 q 417 175 357 175 m 236 775 l 147 858 l 294 1036 l 539 1036 l 686 858 l 597 775 l 419 892 l 414 892 l 236 775 z "},"ŏ":{"ha":833,"x_min":58,"x_max":775,"o":"m 417 -17 q 243 26 325 -17 q 110 151 161 69 q 58 347 58 232 q 110 544 58 463 q 243 668 161 625 q 417 711 325 711 q 590 668 508 711 q 724 544 672 625 q 775 347 775 463 q 724 151 775 232 q 590 26 672 69 q 417 -17 508 -17 m 417 175 q 504 222 478 175 q 531 347 531 268 q 504 473 531 426 q 417 519 478 519 q 330 473 357 519 q 303 347 303 426 q 330 222 303 268 q 417 175 357 175 m 417 794 q 236 857 294 794 q 175 1017 178 919 l 308 1039 q 341 969 315 997 q 417 942 367 942 q 493 969 467 942 q 525 1039 519 997 l 658 1017 q 599 857 657 919 q 417 794 540 794 z "},"ṓ":{"ha":833,"x_min":58,"x_max":775,"o":"m 417 -17 q 243 26 325 -17 q 110 151 161 69 q 58 347 58 232 q 110 544 58 463 q 243 668 161 625 q 417 711 325 711 q 590 668 508 711 q 724 544 672 625 q 775 347 775 463 q 724 151 775 232 q 590 26 672 69 q 417 -17 508 -17 m 417 175 q 504 222 478 175 q 531 347 531 268 q 504 473 531 426 q 417 519 478 519 q 330 473 357 519 q 303 347 303 426 q 330 222 303 268 q 417 175 357 175 m 203 817 l 203 967 l 631 967 l 631 817 l 203 817 m 381 994 l 303 1089 l 508 1239 l 603 1122 l 381 994 z "},"ơ":{"ha":833,"x_min":58,"x_max":842,"o":"m 417 -17 q 243 26 325 -17 q 110 151 161 69 q 58 347 58 232 q 110 544 58 463 q 243 668 161 625 q 417 711 325 711 q 561 682 493 711 q 621 728 597 697 q 644 819 644 758 q 622 914 644 883 l 797 989 q 829 923 817 964 q 842 836 842 882 q 795 692 842 749 q 672 608 749 636 q 747 496 719 561 q 775 347 775 431 q 724 151 775 232 q 590 26 672 69 q 417 -17 508 -17 m 417 175 q 504 222 478 175 q 531 347 531 268 q 504 473 531 426 q 417 519 478 519 q 330 473 357 519 q 303 347 303 426 q 330 222 303 268 q 417 175 357 175 z "},"ớ":{"ha":833,"x_min":58,"x_max":842,"o":"m 417 -17 q 243 26 325 -17 q 110 151 161 69 q 58 347 58 232 q 110 544 58 463 q 243 668 161 625 q 417 711 325 711 q 561 682 493 711 q 621 728 597 697 q 644 819 644 758 q 622 914 644 883 l 797 989 q 829 923 817 964 q 842 836 842 882 q 795 692 842 749 q 672 608 749 636 q 747 496 719 561 q 775 347 775 431 q 724 151 775 232 q 590 26 672 69 q 417 -17 508 -17 m 417 175 q 504 222 478 175 q 531 347 531 268 q 504 473 531 426 q 417 519 478 519 q 330 473 357 519 q 303 347 303 426 q 330 222 303 268 q 417 175 357 175 m 417 775 l 300 892 l 519 1153 l 681 994 l 417 775 z "},"ờ":{"ha":833,"x_min":58,"x_max":842,"o":"m 417 -17 q 243 26 325 -17 q 110 151 161 69 q 58 347 58 232 q 110 544 58 463 q 243 668 161 625 q 417 711 325 711 q 561 682 493 711 q 621 728 597 697 q 644 819 644 758 q 622 914 644 883 l 797 989 q 829 923 817 964 q 842 836 842 882 q 795 692 842 749 q 672 608 749 636 q 747 496 719 561 q 775 347 775 431 q 724 151 775 232 q 590 26 672 69 q 417 -17 508 -17 m 417 175 q 504 222 478 175 q 531 347 531 268 q 504 473 531 426 q 417 519 478 519 q 330 473 357 519 q 303 347 303 426 q 330 222 303 268 q 417 175 357 175 m 417 775 l 153 994 l 314 1153 l 533 892 l 417 775 z "},"ở":{"ha":833,"x_min":58,"x_max":842,"o":"m 417 -17 q 243 26 325 -17 q 110 151 161 69 q 58 347 58 232 q 110 544 58 463 q 243 668 161 625 q 417 711 325 711 q 561 682 493 711 q 621 728 597 697 q 644 819 644 758 q 622 914 644 883 l 797 989 q 829 923 817 964 q 842 836 842 882 q 795 692 842 749 q 672 608 749 636 q 747 496 719 561 q 775 347 775 431 q 724 151 775 232 q 590 26 672 69 q 417 -17 508 -17 m 417 175 q 504 222 478 175 q 531 347 531 268 q 504 473 531 426 q 417 519 478 519 q 330 473 357 519 q 303 347 303 426 q 330 222 303 268 q 417 175 357 175 m 350 786 l 333 878 q 373 890 357 881 q 389 919 389 899 q 365 957 389 943 q 281 975 342 971 l 294 1119 q 454 1092 396 1117 q 537 1028 513 1068 q 561 936 561 988 q 532 854 561 886 q 455 806 503 822 q 350 786 407 789 z "},"ỡ":{"ha":833,"x_min":58,"x_max":842,"o":"m 417 -17 q 243 26 325 -17 q 110 151 161 69 q 58 347 58 232 q 110 544 58 463 q 243 668 161 625 q 417 711 325 711 q 561 682 493 711 q 621 728 597 697 q 644 819 644 758 q 622 914 644 883 l 797 989 q 829 923 817 964 q 842 836 842 882 q 795 692 842 749 q 672 608 749 636 q 747 496 719 561 q 775 347 775 431 q 724 151 775 232 q 590 26 672 69 q 417 -17 508 -17 m 417 175 q 504 222 478 175 q 531 347 531 268 q 504 473 531 426 q 417 519 478 519 q 330 473 357 519 q 303 347 303 426 q 330 222 303 268 q 417 175 357 175 m 478 794 q 404 814 436 794 q 348 853 372 833 q 306 872 324 872 q 278 859 289 872 q 264 808 268 846 l 117 817 q 168 985 119 935 q 300 1036 217 1036 q 374 1017 342 1036 q 430 978 406 997 q 472 958 454 958 q 499 972 489 958 q 514 1022 510 985 l 661 1014 q 610 845 660 896 q 478 794 561 794 z "},"ợ":{"ha":833,"x_min":58,"x_max":842,"o":"m 417 -17 q 243 26 325 -17 q 110 151 161 69 q 58 347 58 232 q 110 544 58 463 q 243 668 161 625 q 417 711 325 711 q 561 682 493 711 q 621 728 597 697 q 644 819 644 758 q 622 914 644 883 l 797 989 q 829 923 817 964 q 842 836 842 882 q 795 692 842 749 q 672 608 749 636 q 747 496 719 561 q 775 347 775 431 q 724 151 775 232 q 590 26 672 69 q 417 -17 508 -17 m 417 175 q 504 222 478 175 q 531 347 531 268 q 504 473 531 426 q 417 519 478 519 q 330 473 357 519 q 303 347 303 426 q 330 222 303 268 q 417 175 357 175 z "},"ø":{"ha":833,"x_min":58,"x_max":775,"o":"m 303 347 q 303 323 303 335 q 306 300 304 311 l 478 508 q 417 528 451 528 q 330 477 357 528 q 303 347 303 426 m 169 -36 l 83 31 l 144 104 q 82 211 106 150 q 58 347 58 272 q 110 544 58 463 q 243 668 161 625 q 417 711 325 711 q 604 661 519 711 l 664 733 l 750 667 l 688 592 q 751 485 728 546 q 775 347 775 424 q 724 151 775 232 q 590 26 672 69 q 417 -17 508 -17 q 228 35 315 -17 l 169 -36 m 417 167 q 504 217 478 167 q 531 347 531 268 q 530 374 531 361 q 528 397 529 386 l 354 188 q 417 167 379 167 z "},"ǿ":{"ha":833,"x_min":58,"x_max":775,"o":"m 303 347 q 303 323 303 335 q 306 300 304 311 l 478 508 q 417 528 451 528 q 330 477 357 528 q 303 347 303 426 m 169 -36 l 83 31 l 144 104 q 82 211 106 150 q 58 347 58 272 q 110 544 58 463 q 243 668 161 625 q 417 711 325 711 q 604 661 519 711 l 664 733 l 750 667 l 688 592 q 751 485 728 546 q 775 347 775 424 q 724 151 775 232 q 590 26 672 69 q 417 -17 508 -17 q 228 35 315 -17 l 169 -36 m 417 167 q 504 217 478 167 q 531 347 531 268 q 530 374 531 361 q 528 397 529 386 l 354 188 q 417 167 379 167 m 417 775 l 300 892 l 519 1153 l 681 994 l 417 775 z "},"œ":{"ha":833,"x_min":17,"x_max":821,"o":"m 294 175 q 335 222 322 175 q 349 347 349 268 q 335 473 349 426 q 294 519 322 519 q 245 473 260 519 q 231 347 231 426 q 245 222 231 268 q 294 175 260 175 m 578 531 q 535 506 556 531 q 504 419 514 481 l 636 419 q 619 506 633 481 q 578 531 606 531 m 275 -17 q 146 26 204 -17 q 52 151 88 69 q 17 347 17 232 q 53 544 17 463 q 149 668 89 625 q 281 711 210 711 q 372 686 331 711 q 440 601 413 661 q 514 686 468 661 q 600 711 560 711 q 722 665 672 711 q 796 540 771 618 q 821 369 821 463 q 817 313 821 339 q 811 275 814 288 l 508 275 q 553 194 522 219 q 622 169 585 169 q 669 177 646 169 q 719 203 693 185 l 800 50 q 706 0 758 17 q 614 -17 654 -17 q 519 5 571 -17 q 440 85 468 26 q 371 5 413 26 q 275 -17 329 -17 z "},"ŕ":{"ha":833,"x_min":144,"x_max":767,"o":"m 144 0 l 144 694 l 340 694 l 358 547 l 364 547 q 485 672 414 633 q 635 711 557 711 q 710 703 683 711 q 767 683 738 696 l 719 483 q 663 498 689 493 q 599 503 636 503 q 481 467 539 503 q 383 344 422 432 l 383 0 l 144 0 m 486 775 l 369 892 l 589 1153 l 750 994 l 486 775 z "},"ŗ":{"ha":833,"x_min":103,"x_max":767,"o":"m 144 0 l 144 694 l 340 694 l 358 547 l 364 547 q 485 672 414 633 q 635 711 557 711 q 710 703 683 711 q 767 683 738 696 l 719 483 q 663 498 689 493 q 599 503 636 503 q 481 467 539 503 q 383 344 422 432 l 383 0 l 144 0 m 119 -339 l 103 -247 q 212 -231 182 -243 q 242 -197 242 -219 q 223 -169 242 -181 q 158 -153 204 -157 l 203 -69 q 367 -107 322 -78 q 411 -189 411 -136 q 334 -299 411 -264 q 119 -339 257 -335 z "},"ř":{"ha":833,"x_min":144,"x_max":767,"o":"m 144 0 l 144 694 l 340 694 l 358 547 l 364 547 q 485 672 414 633 q 635 711 557 711 q 710 703 683 711 q 767 683 738 696 l 719 483 q 663 498 689 493 q 599 503 636 503 q 481 467 539 503 q 383 344 422 432 l 383 0 l 144 0 m 364 803 l 217 981 l 306 1064 l 483 947 l 489 947 l 667 1064 l 756 981 l 608 803 l 364 803 z "},"ṙ":{"ha":833,"x_min":144,"x_max":767,"o":"m 144 0 l 144 694 l 340 694 l 358 547 l 364 547 q 485 672 414 633 q 635 711 557 711 q 710 703 683 711 q 767 683 738 696 l 719 483 q 663 498 689 493 q 599 503 636 503 q 481 467 539 503 q 383 344 422 432 l 383 0 l 144 0 m 486 789 q 376 827 419 789 q 333 928 333 865 q 376 1030 333 990 q 486 1069 419 1069 q 596 1030 553 1069 q 639 928 639 990 q 596 827 639 865 q 486 789 553 789 z "},"ṛ":{"ha":833,"x_min":117,"x_max":767,"o":"m 144 0 l 144 694 l 340 694 l 358 547 l 364 547 q 485 672 414 633 q 635 711 557 711 q 710 703 683 711 q 767 683 738 696 l 719 483 q 663 498 689 493 q 599 503 636 503 q 481 467 539 503 q 383 344 422 432 l 383 0 l 144 0 z "},"ṝ":{"ha":833,"x_min":117,"x_max":767,"o":"m 144 0 l 144 694 l 340 694 l 358 547 l 364 547 q 485 672 414 633 q 635 711 557 711 q 710 703 683 711 q 767 683 738 696 l 719 483 q 663 498 689 493 q 599 503 636 503 q 481 467 539 503 q 383 344 422 432 l 383 0 l 144 0 m 272 817 l 272 967 l 700 967 l 700 817 l 272 817 z "},"ṟ":{"ha":833,"x_min":56,"x_max":767,"o":"m 144 0 l 144 694 l 340 694 l 358 547 l 364 547 q 485 672 414 633 q 635 711 557 711 q 710 703 683 711 q 767 683 738 696 l 719 483 q 663 498 689 493 q 599 503 636 503 q 481 467 539 503 q 383 344 422 432 l 383 0 l 144 0 z "},"ś":{"ha":833,"x_min":64,"x_max":758,"o":"m 403 -17 q 222 15 314 -17 q 64 89 131 46 l 164 236 q 299 178 229 197 q 436 158 369 158 q 502 170 482 158 q 522 200 522 182 q 490 235 522 225 q 369 264 457 246 q 167 351 226 296 q 108 486 108 406 q 198 650 108 589 q 439 711 288 711 q 615 680 538 711 q 747 614 692 649 l 642 472 q 529 520 588 504 q 417 536 471 536 q 364 526 383 536 q 344 497 344 517 q 376 467 344 475 q 489 439 408 458 q 652 385 593 415 q 735 313 711 354 q 758 214 758 272 q 667 50 758 117 q 403 -17 576 -17 m 439 775 l 322 892 l 542 1153 l 703 994 l 439 775 z "},"ŝ":{"ha":833,"x_min":64,"x_max":758,"o":"m 403 -17 q 222 15 314 -17 q 64 89 131 46 l 164 236 q 299 178 229 197 q 436 158 369 158 q 502 170 482 158 q 522 200 522 182 q 490 235 522 225 q 369 264 457 246 q 167 351 226 296 q 108 486 108 406 q 198 650 108 589 q 439 711 288 711 q 615 680 538 711 q 747 614 692 649 l 642 472 q 529 520 588 504 q 417 536 471 536 q 364 526 383 536 q 344 497 344 517 q 376 467 344 475 q 489 439 408 458 q 652 385 593 415 q 735 313 711 354 q 758 214 758 272 q 667 50 758 117 q 403 -17 576 -17 m 258 775 l 169 858 l 317 1036 l 561 1036 l 708 858 l 619 775 l 442 892 l 436 892 l 258 775 z "},"š":{"ha":833,"x_min":64,"x_max":758,"o":"m 403 -17 q 222 15 314 -17 q 64 89 131 46 l 164 236 q 299 178 229 197 q 436 158 369 158 q 502 170 482 158 q 522 200 522 182 q 490 235 522 225 q 369 264 457 246 q 167 351 226 296 q 108 486 108 406 q 198 650 108 589 q 439 711 288 711 q 615 680 538 711 q 747 614 692 649 l 642 472 q 529 520 588 504 q 417 536 471 536 q 364 526 383 536 q 344 497 344 517 q 376 467 344 475 q 489 439 408 458 q 652 385 593 415 q 735 313 711 354 q 758 214 758 272 q 667 50 758 117 q 403 -17 576 -17 m 317 803 l 169 981 l 258 1064 l 436 947 l 442 947 l 619 1064 l 708 981 l 561 803 l 317 803 z "},"ṧ":{"ha":833,"x_min":64,"x_max":758,"o":"m 403 -17 q 222 15 314 -17 q 64 89 131 46 l 164 236 q 299 178 229 197 q 436 158 369 158 q 502 170 482 158 q 522 200 522 182 q 490 235 522 225 q 369 264 457 246 q 167 351 226 296 q 108 486 108 406 q 198 650 108 589 q 439 711 288 711 q 615 680 538 711 q 747 614 692 649 l 642 472 q 529 520 588 504 q 417 536 471 536 q 364 526 383 536 q 344 497 344 517 q 376 467 344 475 q 489 439 408 458 q 652 385 593 415 q 735 313 711 354 q 758 214 758 272 q 667 50 758 117 q 403 -17 576 -17 m 439 975 q 356 1006 389 975 q 322 1086 322 1036 q 356 1168 322 1136 q 439 1200 389 1200 q 522 1168 489 1200 q 556 1086 556 1136 q 522 1006 556 1036 q 439 975 489 975 m 317 803 l 169 981 l 244 1050 l 436 925 l 442 925 l 633 1050 l 708 981 l 561 803 l 317 803 z "},"ş":{"ha":833,"x_min":64,"x_max":758,"o":"m 403 -17 q 222 15 314 -17 q 64 89 131 46 l 164 236 q 299 178 229 197 q 436 158 369 158 q 502 170 482 158 q 522 200 522 182 q 490 235 522 225 q 369 264 457 246 q 167 351 226 296 q 108 486 108 406 q 198 650 108 589 q 439 711 288 711 q 615 680 538 711 q 747 614 692 649 l 642 472 q 529 520 588 504 q 417 536 471 536 q 364 526 383 536 q 344 497 344 517 q 376 467 344 475 q 489 439 408 458 q 652 385 593 415 q 735 313 711 354 q 758 214 758 272 q 667 50 758 117 q 403 -17 576 -17 m 281 -339 l 264 -247 q 373 -231 343 -243 q 403 -189 403 -218 q 383 -156 403 -169 q 297 -133 363 -142 l 372 17 l 508 17 l 464 -83 q 545 -120 518 -96 q 572 -189 572 -144 q 495 -299 572 -264 q 281 -339 418 -335 z "},"ș":{"ha":833,"x_min":64,"x_max":758,"o":"m 403 -17 q 222 15 314 -17 q 64 89 131 46 l 164 236 q 299 178 229 197 q 436 158 369 158 q 502 170 482 158 q 522 200 522 182 q 490 235 522 225 q 369 264 457 246 q 167 351 226 296 q 108 486 108 406 q 198 650 108 589 q 439 711 288 711 q 615 680 538 711 q 747 614 692 649 l 642 472 q 529 520 588 504 q 417 536 471 536 q 364 526 383 536 q 344 497 344 517 q 376 467 344 475 q 489 439 408 458 q 652 385 593 415 q 735 313 711 354 q 758 214 758 272 q 667 50 758 117 q 403 -17 576 -17 m 275 -339 l 258 -247 q 367 -231 338 -243 q 397 -197 397 -219 q 378 -169 397 -181 q 314 -153 360 -157 l 358 -69 q 522 -107 478 -78 q 567 -189 567 -136 q 490 -299 567 -264 q 275 -339 413 -335 z "},"ṡ":{"ha":833,"x_min":64,"x_max":758,"o":"m 403 -17 q 222 15 314 -17 q 64 89 131 46 l 164 236 q 299 178 229 197 q 436 158 369 158 q 502 170 482 158 q 522 200 522 182 q 490 235 522 225 q 369 264 457 246 q 167 351 226 296 q 108 486 108 406 q 198 650 108 589 q 439 711 288 711 q 615 680 538 711 q 747 614 692 649 l 642 472 q 529 520 588 504 q 417 536 471 536 q 364 526 383 536 q 344 497 344 517 q 376 467 344 475 q 489 439 408 458 q 652 385 593 415 q 735 313 711 354 q 758 214 758 272 q 667 50 758 117 q 403 -17 576 -17 m 439 789 q 329 827 372 789 q 286 928 286 865 q 329 1030 286 990 q 439 1069 372 1069 q 549 1030 506 1069 q 592 928 592 990 q 549 827 592 865 q 439 789 506 789 z "},"ṣ":{"ha":833,"x_min":64,"x_max":758,"o":"m 403 -17 q 222 15 314 -17 q 64 89 131 46 l 164 236 q 299 178 229 197 q 436 158 369 158 q 502 170 482 158 q 522 200 522 182 q 490 235 522 225 q 369 264 457 246 q 167 351 226 296 q 108 486 108 406 q 198 650 108 589 q 439 711 288 711 q 615 680 538 711 q 747 614 692 649 l 642 472 q 529 520 588 504 q 417 536 471 536 q 364 526 383 536 q 344 497 344 517 q 376 467 344 475 q 489 439 408 458 q 652 385 593 415 q 735 313 711 354 q 758 214 758 272 q 667 50 758 117 q 403 -17 576 -17 z "},"ß":{"ha":833,"x_min":69,"x_max":797,"o":"m 549 -17 q 450 -4 493 -17 q 358 31 407 8 l 436 192 q 492 166 465 174 q 540 158 518 158 q 567 169 556 158 q 578 200 578 179 q 558 244 578 225 q 510 283 539 264 q 453 327 482 301 q 406 389 425 353 q 386 478 386 425 q 397 547 386 518 q 420 603 407 576 q 444 658 433 629 q 454 725 454 686 q 439 776 454 756 q 399 797 424 797 q 329 760 350 797 q 308 664 308 722 l 308 0 l 69 0 l 69 675 q 105 831 69 761 q 213 942 140 901 q 399 983 286 983 q 556 948 494 983 q 646 856 617 913 q 675 739 675 800 q 665 656 675 690 q 640 597 654 622 q 616 552 626 572 q 606 508 606 532 q 625 468 606 486 q 673 431 644 450 q 730 384 701 411 q 778 317 758 357 q 797 219 797 278 q 770 101 797 154 q 688 15 743 47 q 549 -17 632 -17 z "},"ſ":{"ha":833,"x_min":103,"x_max":817,"o":"m 281 0 l 281 508 l 103 508 l 103 686 l 281 694 l 281 697 q 314 840 281 775 q 418 944 347 906 q 603 983 489 983 q 720 972 665 983 q 817 947 775 960 l 772 772 q 707 790 743 783 q 633 797 671 797 q 549 775 578 797 q 519 697 519 753 l 519 0 l 281 0 z "},"ť":{"ha":833,"x_min":58,"x_max":767,"o":"m 536 -17 q 354 22 422 -17 q 256 131 286 61 q 225 294 225 201 l 225 508 l 58 508 l 58 686 l 236 694 l 267 903 l 464 903 l 464 694 l 739 694 l 739 508 l 464 508 l 464 299 q 498 197 464 225 q 599 169 532 169 q 666 176 635 169 q 725 192 697 182 l 767 19 q 664 -5 721 7 q 536 -17 607 -17 m 525 761 l 517 1144 l 728 1144 l 725 1000 l 686 761 l 525 761 z "},"ţ":{"ha":833,"x_min":58,"x_max":767,"o":"m 536 -17 q 354 22 422 -17 q 256 131 286 61 q 225 294 225 201 l 225 508 l 58 508 l 58 686 l 236 694 l 267 903 l 464 903 l 464 694 l 739 694 l 739 508 l 464 508 l 464 299 q 498 197 464 225 q 599 169 532 169 q 666 176 635 169 q 725 192 697 182 l 767 19 q 664 -5 721 7 q 536 -17 607 -17 m 364 -339 l 347 -247 q 456 -231 426 -243 q 486 -189 486 -218 q 466 -156 486 -169 q 381 -133 446 -142 l 456 17 l 592 17 l 547 -83 q 628 -120 601 -96 q 656 -189 656 -144 q 578 -299 656 -264 q 364 -339 501 -335 z "},"ț":{"ha":833,"x_min":58,"x_max":767,"o":"m 536 -17 q 354 22 422 -17 q 256 131 286 61 q 225 294 225 201 l 225 508 l 58 508 l 58 686 l 236 694 l 267 903 l 464 903 l 464 694 l 739 694 l 739 508 l 464 508 l 464 299 q 498 197 464 225 q 599 169 532 169 q 666 176 635 169 q 725 192 697 182 l 767 19 q 664 -5 721 7 q 536 -17 607 -17 m 356 -339 l 339 -247 q 448 -231 418 -243 q 478 -197 478 -219 q 459 -169 478 -181 q 394 -153 440 -157 l 439 -69 q 603 -107 558 -78 q 647 -189 647 -136 q 570 -299 647 -264 q 356 -339 493 -335 z "},"ṭ":{"ha":833,"x_min":58,"x_max":767,"o":"m 536 -17 q 354 22 422 -17 q 256 131 286 61 q 225 294 225 201 l 225 508 l 58 508 l 58 686 l 236 694 l 267 903 l 464 903 l 464 694 l 739 694 l 739 508 l 464 508 l 464 299 q 498 197 464 225 q 599 169 532 169 q 666 176 635 169 q 725 192 697 182 l 767 19 q 664 -5 721 7 q 536 -17 607 -17 z "},"ṯ":{"ha":833,"x_min":58,"x_max":767,"o":"m 536 -17 q 354 22 422 -17 q 256 131 286 61 q 225 294 225 201 l 225 508 l 58 508 l 58 686 l 236 694 l 267 903 l 464 903 l 464 694 l 739 694 l 739 508 l 464 508 l 464 299 q 498 197 464 225 q 599 169 532 169 q 666 176 635 169 q 725 192 697 182 l 767 19 q 664 -5 721 7 q 536 -17 607 -17 z "},"ẗ":{"ha":833,"x_min":58,"x_max":767,"o":"m 536 -17 q 354 22 422 -17 q 256 131 286 61 q 225 294 225 201 l 225 508 l 58 508 l 58 686 l 236 694 l 267 903 l 464 903 l 464 694 l 739 694 l 739 508 l 464 508 l 464 299 q 498 197 464 225 q 599 169 532 169 q 666 176 635 169 q 725 192 697 182 l 767 19 q 664 -5 721 7 q 536 -17 607 -17 m 208 983 q 118 1019 153 983 q 83 1108 83 1056 q 118 1197 83 1161 q 208 1233 153 1233 q 299 1197 264 1233 q 333 1108 333 1161 q 299 1019 333 1056 q 208 983 264 983 m 531 983 q 440 1019 475 983 q 406 1108 406 1056 q 440 1197 406 1161 q 531 1233 475 1233 q 621 1197 586 1233 q 656 1108 656 1161 q 621 1019 656 1056 q 531 983 586 983 z "},"ŧ":{"ha":833,"x_min":58,"x_max":767,"o":"m 536 -17 q 354 22 422 -17 q 256 131 286 61 q 225 294 225 201 l 225 300 l 58 300 l 58 403 l 225 410 l 225 508 l 58 508 l 58 686 l 236 694 l 267 903 l 464 903 l 464 694 l 739 694 l 739 508 l 464 508 l 464 411 l 711 411 l 711 300 l 464 300 l 464 299 q 498 197 464 225 q 599 169 532 169 q 666 176 635 169 q 725 192 697 182 l 767 19 q 664 -5 721 7 q 536 -17 607 -17 z "},"ù":{"ha":833,"x_min":78,"x_max":739,"o":"m 297 -17 q 129 60 181 -17 q 78 267 78 138 l 78 694 l 317 694 l 317 297 q 333 213 317 239 q 396 186 349 186 q 450 198 426 186 q 500 247 474 210 l 500 694 l 739 694 l 739 0 l 544 0 l 528 92 l 522 92 q 425 13 479 42 q 297 -17 371 -17 m 411 775 l 147 994 l 308 1153 l 528 892 l 411 775 z "},"ú":{"ha":833,"x_min":78,"x_max":739,"o":"m 297 -17 q 129 60 181 -17 q 78 267 78 138 l 78 694 l 317 694 l 317 297 q 333 213 317 239 q 396 186 349 186 q 450 198 426 186 q 500 247 474 210 l 500 694 l 739 694 l 739 0 l 544 0 l 528 92 l 522 92 q 425 13 479 42 q 297 -17 371 -17 m 411 775 l 294 892 l 514 1153 l 675 994 l 411 775 z "},"û":{"ha":833,"x_min":78,"x_max":739,"o":"m 297 -17 q 129 60 181 -17 q 78 267 78 138 l 78 694 l 317 694 l 317 297 q 333 213 317 239 q 396 186 349 186 q 450 198 426 186 q 500 247 474 210 l 500 694 l 739 694 l 739 0 l 544 0 l 528 92 l 522 92 q 425 13 479 42 q 297 -17 371 -17 m 231 775 l 142 858 l 289 1036 l 533 1036 l 681 858 l 592 775 l 414 892 l 408 892 l 231 775 z "},"ũ":{"ha":833,"x_min":78,"x_max":739,"o":"m 297 -17 q 129 60 181 -17 q 78 267 78 138 l 78 694 l 317 694 l 317 297 q 333 213 317 239 q 396 186 349 186 q 450 198 426 186 q 500 247 474 210 l 500 694 l 739 694 l 739 0 l 544 0 l 528 92 l 522 92 q 425 13 479 42 q 297 -17 371 -17 m 500 794 q 426 814 458 794 q 370 853 394 833 q 328 872 346 872 q 301 859 311 872 q 286 808 290 846 l 139 817 q 190 985 142 935 q 322 1036 239 1036 q 396 1017 364 1036 q 452 978 428 997 q 494 958 476 958 q 522 972 511 958 q 536 1022 532 985 l 683 1014 q 633 845 682 896 q 500 794 583 794 z "},"ü":{"ha":833,"x_min":78,"x_max":739,"o":"m 297 -17 q 129 60 181 -17 q 78 267 78 138 l 78 694 l 317 694 l 317 297 q 333 213 317 239 q 396 186 349 186 q 450 198 426 186 q 500 247 474 210 l 500 694 l 739 694 l 739 0 l 544 0 l 528 92 l 522 92 q 425 13 479 42 q 297 -17 371 -17 m 250 783 q 160 819 194 783 q 125 908 125 856 q 160 997 125 961 q 250 1033 194 1033 q 340 997 306 1033 q 375 908 375 961 q 340 819 375 856 q 250 783 306 783 m 572 783 q 482 819 517 783 q 447 908 447 856 q 482 997 447 961 q 572 1033 517 1033 q 663 997 628 1033 q 697 908 697 961 q 663 819 697 856 q 572 783 628 783 z "},"ū":{"ha":833,"x_min":78,"x_max":739,"o":"m 297 -17 q 129 60 181 -17 q 78 267 78 138 l 78 694 l 317 694 l 317 297 q 333 213 317 239 q 396 186 349 186 q 450 198 426 186 q 500 247 474 210 l 500 694 l 739 694 l 739 0 l 544 0 l 528 92 l 522 92 q 425 13 479 42 q 297 -17 371 -17 m 197 817 l 197 967 l 625 967 l 625 817 l 197 817 z "},"ŭ":{"ha":833,"x_min":78,"x_max":739,"o":"m 297 -17 q 129 60 181 -17 q 78 267 78 138 l 78 694 l 317 694 l 317 297 q 333 213 317 239 q 396 186 349 186 q 450 198 426 186 q 500 247 474 210 l 500 694 l 739 694 l 739 0 l 544 0 l 528 92 l 522 92 q 425 13 479 42 q 297 -17 371 -17 m 411 794 q 231 857 289 794 q 169 1017 172 919 l 303 1039 q 335 969 310 997 q 411 942 361 942 q 488 969 461 942 q 519 1039 514 997 l 653 1017 q 593 857 651 919 q 411 794 535 794 z "},"ů":{"ha":833,"x_min":78,"x_max":739,"o":"m 297 -17 q 129 60 181 -17 q 78 267 78 138 l 78 694 l 317 694 l 317 297 q 333 213 317 239 q 396 186 349 186 q 450 198 426 186 q 500 247 474 210 l 500 694 l 739 694 l 739 0 l 544 0 l 528 92 l 522 92 q 425 13 479 42 q 297 -17 371 -17 m 411 789 q 265 833 314 789 q 217 936 217 876 q 265 1040 217 997 q 411 1083 314 1083 q 558 1040 510 1083 q 606 936 606 997 q 558 833 606 876 q 411 789 510 789 m 411 875 q 449 892 433 875 q 464 936 464 910 q 449 981 464 964 q 411 997 433 997 q 374 981 389 997 q 358 936 358 964 q 374 892 358 910 q 411 875 389 875 z "},"ű":{"ha":833,"x_min":78,"x_max":758,"o":"m 297 -17 q 129 60 181 -17 q 78 267 78 138 l 78 694 l 317 694 l 317 297 q 333 213 317 239 q 396 186 349 186 q 450 198 426 186 q 500 247 474 210 l 500 694 l 739 694 l 739 0 l 544 0 l 528 92 l 522 92 q 425 13 479 42 q 297 -17 371 -17 m 339 783 l 214 839 l 336 1094 l 494 1025 l 339 783 m 603 783 l 478 839 l 600 1094 l 758 1025 l 603 783 z "},"ǔ":{"ha":833,"x_min":78,"x_max":739,"o":"m 297 -17 q 129 60 181 -17 q 78 267 78 138 l 78 694 l 317 694 l 317 297 q 333 213 317 239 q 396 186 349 186 q 450 198 426 186 q 500 247 474 210 l 500 694 l 739 694 l 739 0 l 544 0 l 528 92 l 522 92 q 425 13 479 42 q 297 -17 371 -17 m 289 803 l 142 981 l 231 1064 l 408 947 l 414 947 l 592 1064 l 681 981 l 533 803 l 289 803 z "},"ų":{"ha":833,"x_min":78,"x_max":767,"o":"m 600 -317 q 481 -281 531 -317 q 431 -175 431 -244 q 450 -97 431 -131 q 497 -41 469 -64 q 547 -6 525 -18 l 528 92 l 522 92 q 425 13 479 42 q 297 -17 371 -17 q 129 60 181 -17 q 78 267 78 138 l 78 694 l 317 694 l 317 297 q 333 213 317 239 q 396 186 349 186 q 450 198 426 186 q 500 247 474 210 l 500 694 l 739 694 l 739 0 q 624 -53 658 -18 q 589 -119 589 -87 q 610 -163 589 -149 q 658 -178 632 -178 q 719 -161 696 -178 l 767 -267 q 688 -303 736 -290 q 600 -317 639 -317 z "}}}
